<?xml version="1.0" encoding="UTF-8"?>
<svg version="1.1" xmlns="http://www.w3.org/2000/svg" width="1024" height="1024">
<path d="M0 0 C337.92 0 675.84 0 1024 0 C1024 337.92 1024 675.84 1024 1024 C686.08 1024 348.16 1024 0 1024 C0 686.08 0 348.16 0 0 Z " fill="#F7F2E7" transform="translate(0,0)"/>
<path d="M0 0 C1.9013284 2.86644038 2.70639685 5.96645244 3.59765625 9.25 C3.91404053 10.36737549 3.91404053 10.36737549 4.23681641 11.50732422 C6.18558196 18.4338994 8.03684263 25.38846053 9.90673828 32.33666992 C12.06488047 40.28956851 14.45901679 48.16069259 16.89013672 56.03369141 C18.577595 61.52522463 20.09394733 67.00952186 21.4140625 72.6015625 C22.97465308 78.57799458 24.84708295 84.46352796 26.66137695 90.36694336 C28.9654748 97.86580119 31.16437947 105.38455815 33.28515625 112.9375 C36.01739474 122.56752092 38.81466178 132.17685508 41.6484375 141.77734375 C42.26887029 143.88224765 42.88686546 145.98784951 43.50390625 148.09375 C46.21690853 157.34936227 48.97153296 166.5919585 51.75 175.828125 C52.76790751 179.21210197 53.78075846 182.59752444 54.7890625 185.984375 C57.48208348 195.01908268 60.24368565 204.02652106 63.10766602 213.00854492 C64.72132451 218.08975164 66.24707477 223.18969233 67.72265625 228.3125 C69.84916005 235.67421213 72.23379988 242.93803225 74.69897461 250.19287109 C76.23306075 254.71978499 77.69868493 259.25781753 79.0859375 263.83203125 C81.85675706 272.90246286 84.89782403 281.88265144 87.91015625 290.875 C88.84598759 293.67283453 89.78145624 296.47079015 90.71690369 299.26875305 C91.3419187 301.1380313 91.96713155 303.00724342 92.59254456 304.87638855 C94.51265607 310.61716089 96.42149757 316.36152659 98.3203125 322.109375 C98.99414629 324.1454819 99.66816807 326.18152649 100.34222412 328.21755981 C100.95557962 330.07333281 101.56596736 331.93008586 102.17626953 333.78686523 C104.00211324 339.29582156 105.94762594 344.62853286 108.28515625 349.9375 C109.11531217 352.28549874 109.9261854 354.64036208 110.72265625 357 C112.75033323 362.92197309 114.98587326 368.74504178 117.34375 374.54296875 C117.61458908 375.21050674 117.88542816 375.87804474 118.16447449 376.56581116 C119.53817366 379.94624884 120.92307647 383.32158484 122.32202148 386.69165039 C122.83865737 387.95577816 123.35502616 389.22001512 123.87109375 390.484375 C124.33563965 391.60682617 124.80018555 392.72927734 125.27880859 393.88574219 C126.25145255 396.83529326 126.66639874 398.86731713 126.28515625 401.9375 C123.79857019 404.42408606 121.83199231 404.85967735 118.47265625 405.8828125 C117.31507813 406.23730469 116.1575 406.59179688 114.96484375 406.95703125 C113.75054688 407.32183594 112.53625 407.68664062 111.28515625 408.0625 C110.07085938 408.43503906 108.8565625 408.80757812 107.60546875 409.19140625 C98.57253033 411.9375 98.57253033 411.9375 96.28515625 411.9375 C98.33545437 416.92046211 98.33545437 416.92046211 101.03515625 421.5625 C102.28515625 423.9375 102.28515625 423.9375 102.22265625 426.5625 C100.80627561 430.15066429 98.37180731 431.45379821 94.91357422 432.99316406 C94.04361816 433.30995117 93.17366211 433.62673828 92.27734375 433.953125 C91.29983154 434.3135791 90.32231934 434.6740332 89.31518555 435.04541016 C88.27402588 435.4222998 87.23286621 435.79918945 86.16015625 436.1875 C83.97621969 436.99125664 81.79262835 437.7959519 79.609375 438.6015625 C77.99361572 439.19565918 77.99361572 439.19565918 76.34521484 439.80175781 C72.20141625 441.33973061 68.08531705 442.94348874 63.97265625 444.5625 C55.57779424 447.85475252 47.12419426 450.9787575 38.65185547 454.06542969 C31.94830619 456.53552233 25.27265566 459.07904834 18.59765625 461.625 C17.69571533 461.96877686 16.79377441 462.31255371 15.86450195 462.66674805 C13.00464261 463.75679567 10.1448863 464.84711323 7.28515625 465.9375 C3.51441654 467.37524574 -0.25643108 468.81270796 -4.02734375 470.25 C-5.30581177 470.73762817 -5.30581177 470.73762817 -6.61010742 471.23510742 C-10.44709725 472.69755888 -14.28609279 474.15380796 -18.13232422 475.59179688 C-21.39518976 476.81742825 -24.61635766 478.11255835 -27.83984375 479.4375 C-35.66338705 482.61010904 -43.59643368 485.48480589 -51.52734375 488.375 C-62.02034286 492.1993211 -72.47207418 496.10562283 -82.85986328 500.20849609 C-86.73843165 501.73276632 -90.63434057 503.21230781 -94.52734375 504.69921875 C-97.0639448 505.68463852 -99.58693518 506.69422458 -102.109375 507.71484375 C-109.83764724 510.8132322 -117.65672541 513.67671921 -125.46069336 516.57763672 C-133.314885 519.49921259 -141.13110631 522.48533401 -148.90219116 525.62336731 C-156.21780467 528.56371021 -163.60742761 531.30490351 -170.99554443 534.05670166 C-175.40238247 535.69860233 -179.80674064 537.34712385 -184.2109375 538.99609375 C-185.10012878 539.32899414 -185.98932007 539.66189453 -186.90545654 540.00488281 C-195.31358349 543.15602837 -203.70504021 546.34987856 -212.08984375 549.5625 C-212.77109314 549.82345459 -213.45234253 550.08440918 -214.15423584 550.35327148 C-217.58999951 551.66963731 -221.02536207 552.98704564 -224.46044922 554.30517578 C-231.27974097 556.92190613 -238.10042402 559.53499855 -244.92193604 562.14593506 C-247.07831104 562.97165149 -249.23424201 563.79851882 -251.39013672 564.62548828 C-253.98901573 565.62231859 -256.59072063 566.61114663 -259.19482422 567.59423828 C-261.43257371 568.44817764 -263.66205497 569.32436439 -265.87939453 570.22998047 C-269.84086459 571.80473052 -273.25457236 572.88867616 -277.5078125 573.33984375 C-282.78901076 571.03052563 -284.47585423 566.47400869 -287.02734375 561.5 C-287.59074463 560.45247559 -288.15414551 559.40495117 -288.73461914 558.32568359 C-289.87925363 556.19606313 -291.01434796 554.06128632 -292.13964844 551.92138672 C-294.24595756 547.93141305 -296.4453722 543.99732514 -298.65234375 540.0625 C-299.45902544 538.60845667 -300.26499449 537.15401779 -301.0703125 535.69921875 C-304.18582846 530.08219363 -307.32529999 524.47862036 -310.46484375 518.875 C-311.05845703 517.81539062 -311.65207031 516.75578125 -312.26367188 515.6640625 C-314.66390356 511.38033361 -317.06471463 507.09693016 -319.46630859 502.81396484 C-329.87523812 484.25073695 -340.22066254 465.65275004 -350.5390625 447.0390625 C-351.80580026 444.75510332 -353.07272637 442.47124859 -354.33984375 440.1875 C-354.96221924 439.06577393 -355.58459473 437.94404785 -356.22583008 436.78833008 C-360.2268368 429.58756605 -364.27095361 422.41257647 -368.33984375 415.25 C-372.74843668 407.48770102 -377.04690849 399.67324633 -381.27734375 391.8125 C-385.26617829 384.40135587 -389.32578979 377.04270229 -393.52734375 369.75 C-398.26287457 361.52807755 -402.88895798 353.24908051 -407.46484375 344.9375 C-407.80066467 344.32764252 -408.1364856 343.71778503 -408.48248291 343.08944702 C-410.54878639 339.33602643 -412.61298439 335.58145086 -414.67657471 331.82653809 C-417.74881753 326.23686579 -420.82396642 320.6487962 -423.90234375 315.0625 C-424.23648285 314.4560968 -424.57062195 313.8496936 -424.91488647 313.22491455 C-429.83934043 304.29226736 -434.82615973 295.39655704 -439.85888672 286.52441406 C-447.93709877 272.27283087 -455.86416364 257.936131 -463.765625 243.5859375 C-469.91056028 232.42652528 -476.06208151 221.27304363 -482.33984375 210.1875 C-482.85264893 209.27838867 -483.3654541 208.36927734 -483.89379883 207.43261719 C-486.77266593 202.3356657 -489.68682819 197.26160966 -492.6328125 192.203125 C-493.93108707 189.94797279 -495.22926627 187.69276567 -496.52734375 185.4375 C-497.45377686 183.86983887 -497.45377686 183.86983887 -498.39892578 182.27050781 C-503.84098414 172.75972241 -503.84098414 172.75972241 -502.71484375 166.9375 C-500.1458426 163.33922865 -495.92213063 162.13767773 -491.96875 160.5390625 C-490.81922096 160.0638063 -490.81922096 160.0638063 -489.64646912 159.57894897 C-487.19292756 158.5664148 -484.73529016 157.56428732 -482.27734375 156.5625 C-480.65791825 155.89652564 -479.03877449 155.22986573 -477.41992188 154.5625 C-474.28985284 153.27289992 -471.15768925 151.98860156 -468.02392578 150.70800781 C-465.32530027 149.60326195 -462.63310768 148.4856047 -459.94873047 147.34667969 C-458.86994629 146.88938477 -457.79116211 146.43208984 -456.6796875 145.9609375 C-455.29511353 145.36804932 -455.29511353 145.36804932 -453.88256836 144.76318359 C-451.71484375 143.9375 -451.71484375 143.9375 -449.71484375 143.9375 C-450.04806641 143.12595459 -450.38128906 142.31440918 -450.72460938 141.47827148 C-451.96437801 138.44235552 -453.19301138 135.40240328 -454.41455078 132.35913086 C-454.94373468 131.04714869 -455.47719745 129.73688346 -456.01513672 128.4284668 C-456.79116541 126.53878653 -457.55119059 124.6433037 -458.30859375 122.74609375 C-458.76943359 121.60970459 -459.23027344 120.47331543 -459.70507812 119.30249023 C-460.82875916 115.55788294 -461.26549382 112.81789854 -460.71484375 108.9375 C-457.62360822 106.31404242 -454.26842479 105.35390467 -450.3828125 104.359375 C-448.83098267 103.95368286 -448.83098267 103.95368286 -447.24780273 103.53979492 C-446.14380127 103.2585376 -445.0397998 102.97728027 -443.90234375 102.6875 C-433.78693977 100.04513494 -423.73666452 97.2470506 -413.72143555 94.24707031 C-408.08631422 92.57353537 -402.46869143 91.14480683 -396.71484375 89.9375 C-397.33654411 86.77017649 -397.96281504 83.60377261 -398.58984375 80.4375 C-398.85087891 79.1071875 -398.85087891 79.1071875 -399.1171875 77.75 C-399.93197032 73.64590873 -400.78068263 69.5691976 -401.8203125 65.515625 C-402.76736785 61.7274036 -403.23695031 58.81600588 -402.71484375 54.9375 C-399.13225973 51.35573767 -396.30951728 50.34384815 -391.33984375 49.7421875 C-389.48939453 49.50435547 -389.48939453 49.50435547 -387.6015625 49.26171875 C-386.31894531 49.11347656 -385.03632813 48.96523438 -383.71484375 48.8125 C-381.19389077 48.49835447 -378.67305634 48.18325613 -376.15234375 47.8671875 C-374.90751221 47.71564209 -373.66268066 47.56409668 -372.38012695 47.40795898 C-368.91126416 46.96271163 -365.46191502 46.44937821 -362.0078125 45.90234375 C-356.02907922 44.96068187 -350.0442157 44.26931882 -344.02734375 43.625 C-333.80448095 42.48796425 -323.63462236 41.09184493 -313.46484375 39.5625 C-301.47829409 37.76333769 -289.48389229 36.06807703 -277.46484375 34.5 C-276.68897919 34.3986676 -275.91311462 34.29733521 -275.11373901 34.19293213 C-268.39373774 33.31637642 -261.67262639 32.44844952 -254.95147705 31.58074951 C-248.14316993 30.70168669 -241.33513025 29.82058568 -234.52734375 28.9375 C-233.55409149 28.81145386 -232.58083923 28.68540771 -231.57809448 28.55554199 C-217.99545449 26.79401623 -204.4341526 24.91902391 -190.88220215 22.93612671 C-180.14002537 21.36853819 -169.38663263 20.02460524 -158.58520508 18.92504883 C-152.561943 18.30379807 -146.62596902 17.46198029 -140.65942383 16.43041992 C-135.96436362 15.64447128 -131.24893779 15.03954408 -126.52734375 14.4375 C-125.52251953 14.30714355 -124.51769531 14.17678711 -123.48242188 14.04248047 C-119.17131541 13.48742895 -114.86091418 12.94141594 -110.5390625 12.4765625 C-100.79693187 11.4217455 -91.16739355 9.89906911 -81.49975586 8.29995728 C-65.67700555 5.69170763 -49.79316912 3.56902239 -33.89355469 1.48950195 C-31.10870286 1.12427083 -28.32583092 0.74727242 -25.54394531 0.36010742 C-24.87480103 0.26791428 -24.20565674 0.17572113 -23.51623535 0.08073425 C-21.70680044 -0.16918762 -19.89781479 -0.42235626 -18.08886719 -0.67578125 C-3.74426534 -2.31990928 -3.74426534 -2.31990928 0 0 Z " fill="#F7F2E7" transform="translate(684.71484375,220.0625)"/>
<path d="M0 0 C1.9013284 2.86644038 2.70639685 5.96645244 3.59765625 9.25 C3.91404053 10.36737549 3.91404053 10.36737549 4.23681641 11.50732422 C6.18558196 18.4338994 8.03684263 25.38846053 9.90673828 32.33666992 C12.06488047 40.28956851 14.45901679 48.16069259 16.89013672 56.03369141 C18.577595 61.52522463 20.09394733 67.00952186 21.4140625 72.6015625 C22.97465308 78.57799458 24.84708295 84.46352796 26.66137695 90.36694336 C28.9654748 97.86580119 31.16437947 105.38455815 33.28515625 112.9375 C36.01739474 122.56752092 38.81466178 132.17685508 41.6484375 141.77734375 C42.26887029 143.88224765 42.88686546 145.98784951 43.50390625 148.09375 C46.21690853 157.34936227 48.97153296 166.5919585 51.75 175.828125 C52.76790751 179.21210197 53.78075846 182.59752444 54.7890625 185.984375 C57.48208348 195.01908268 60.24368565 204.02652106 63.10766602 213.00854492 C64.72132451 218.08975164 66.24707477 223.18969233 67.72265625 228.3125 C69.84916005 235.67421213 72.23379988 242.93803225 74.69897461 250.19287109 C76.23306075 254.71978499 77.69868493 259.25781753 79.0859375 263.83203125 C81.85675706 272.90246286 84.89782403 281.88265144 87.91015625 290.875 C88.84598759 293.67283453 89.78145624 296.47079015 90.71690369 299.26875305 C91.3419187 301.1380313 91.96713155 303.00724342 92.59254456 304.87638855 C94.51265607 310.61716089 96.42149757 316.36152659 98.3203125 322.109375 C98.99414629 324.1454819 99.66816807 326.18152649 100.34222412 328.21755981 C100.95557962 330.07333281 101.56596736 331.93008586 102.17626953 333.78686523 C104.00211324 339.29582156 105.94762594 344.62853286 108.28515625 349.9375 C109.11531217 352.28549874 109.9261854 354.64036208 110.72265625 357 C112.75033323 362.92197309 114.98587326 368.74504178 117.34375 374.54296875 C117.61458908 375.21050674 117.88542816 375.87804474 118.16447449 376.56581116 C119.53817366 379.94624884 120.92307647 383.32158484 122.32202148 386.69165039 C122.83865737 387.95577816 123.35502616 389.22001512 123.87109375 390.484375 C124.33563965 391.60682617 124.80018555 392.72927734 125.27880859 393.88574219 C126.25145255 396.83529326 126.66639874 398.86731713 126.28515625 401.9375 C123.79857019 404.42408606 121.83199231 404.85967735 118.47265625 405.8828125 C117.31507813 406.23730469 116.1575 406.59179688 114.96484375 406.95703125 C113.75054688 407.32183594 112.53625 407.68664062 111.28515625 408.0625 C110.07085938 408.43503906 108.8565625 408.80757812 107.60546875 409.19140625 C98.57253033 411.9375 98.57253033 411.9375 96.28515625 411.9375 C98.33545437 416.92046211 98.33545437 416.92046211 101.03515625 421.5625 C102.28515625 423.9375 102.28515625 423.9375 102.22265625 426.5625 C100.80627561 430.15066429 98.37180731 431.45379821 94.91357422 432.99316406 C94.04361816 433.30995117 93.17366211 433.62673828 92.27734375 433.953125 C91.29983154 434.3135791 90.32231934 434.6740332 89.31518555 435.04541016 C88.27402588 435.4222998 87.23286621 435.79918945 86.16015625 436.1875 C83.97621969 436.99125664 81.79262835 437.7959519 79.609375 438.6015625 C77.99361572 439.19565918 77.99361572 439.19565918 76.34521484 439.80175781 C72.20141625 441.33973061 68.08531705 442.94348874 63.97265625 444.5625 C55.57779424 447.85475252 47.12419426 450.9787575 38.65185547 454.06542969 C31.94830619 456.53552233 25.27265566 459.07904834 18.59765625 461.625 C17.69571533 461.96877686 16.79377441 462.31255371 15.86450195 462.66674805 C13.00464261 463.75679567 10.1448863 464.84711323 7.28515625 465.9375 C3.51441654 467.37524574 -0.25643108 468.81270796 -4.02734375 470.25 C-5.30581177 470.73762817 -5.30581177 470.73762817 -6.61010742 471.23510742 C-10.44709725 472.69755888 -14.28609279 474.15380796 -18.13232422 475.59179688 C-21.39518976 476.81742825 -24.61635766 478.11255835 -27.83984375 479.4375 C-35.66338705 482.61010904 -43.59643368 485.48480589 -51.52734375 488.375 C-62.02034286 492.1993211 -72.47207418 496.10562283 -82.85986328 500.20849609 C-86.73843165 501.73276632 -90.63434057 503.21230781 -94.52734375 504.69921875 C-97.0639448 505.68463852 -99.58693518 506.69422458 -102.109375 507.71484375 C-109.83764724 510.8132322 -117.65672541 513.67671921 -125.46069336 516.57763672 C-133.314885 519.49921259 -141.13110631 522.48533401 -148.90219116 525.62336731 C-156.21780467 528.56371021 -163.60742761 531.30490351 -170.99554443 534.05670166 C-175.40238247 535.69860233 -179.80674064 537.34712385 -184.2109375 538.99609375 C-185.10012878 539.32899414 -185.98932007 539.66189453 -186.90545654 540.00488281 C-195.31358349 543.15602837 -203.70504021 546.34987856 -212.08984375 549.5625 C-212.77109314 549.82345459 -213.45234253 550.08440918 -214.15423584 550.35327148 C-217.58999951 551.66963731 -221.02536207 552.98704564 -224.46044922 554.30517578 C-231.27974097 556.92190613 -238.10042402 559.53499855 -244.92193604 562.14593506 C-247.07831104 562.97165149 -249.23424201 563.79851882 -251.39013672 564.62548828 C-253.98901573 565.62231859 -256.59072063 566.61114663 -259.19482422 567.59423828 C-261.43257371 568.44817764 -263.66205497 569.32436439 -265.87939453 570.22998047 C-269.84086459 571.80473052 -273.25457236 572.88867616 -277.5078125 573.33984375 C-282.78901076 571.03052563 -284.47585423 566.47400869 -287.02734375 561.5 C-287.59074463 560.45247559 -288.15414551 559.40495117 -288.73461914 558.32568359 C-289.87925363 556.19606313 -291.01434796 554.06128632 -292.13964844 551.92138672 C-294.24595756 547.93141305 -296.4453722 543.99732514 -298.65234375 540.0625 C-299.45902544 538.60845667 -300.26499449 537.15401779 -301.0703125 535.69921875 C-304.18582846 530.08219363 -307.32529999 524.47862036 -310.46484375 518.875 C-311.05845703 517.81539062 -311.65207031 516.75578125 -312.26367188 515.6640625 C-314.66390356 511.38033361 -317.06471463 507.09693016 -319.46630859 502.81396484 C-329.87523812 484.25073695 -340.22066254 465.65275004 -350.5390625 447.0390625 C-351.80580026 444.75510332 -353.07272637 442.47124859 -354.33984375 440.1875 C-354.96221924 439.06577393 -355.58459473 437.94404785 -356.22583008 436.78833008 C-360.2268368 429.58756605 -364.27095361 422.41257647 -368.33984375 415.25 C-372.74843668 407.48770102 -377.04690849 399.67324633 -381.27734375 391.8125 C-385.26617829 384.40135587 -389.32578979 377.04270229 -393.52734375 369.75 C-398.26287457 361.52807755 -402.88895798 353.24908051 -407.46484375 344.9375 C-407.80066467 344.32764252 -408.1364856 343.71778503 -408.48248291 343.08944702 C-410.54878639 339.33602643 -412.61298439 335.58145086 -414.67657471 331.82653809 C-417.74881753 326.23686579 -420.82396642 320.6487962 -423.90234375 315.0625 C-424.23648285 314.4560968 -424.57062195 313.8496936 -424.91488647 313.22491455 C-429.83934043 304.29226736 -434.82615973 295.39655704 -439.85888672 286.52441406 C-447.93709877 272.27283087 -455.86416364 257.936131 -463.765625 243.5859375 C-469.91056028 232.42652528 -476.06208151 221.27304363 -482.33984375 210.1875 C-482.85264893 209.27838867 -483.3654541 208.36927734 -483.89379883 207.43261719 C-486.77266593 202.3356657 -489.68682819 197.26160966 -492.6328125 192.203125 C-493.93108707 189.94797279 -495.22926627 187.69276567 -496.52734375 185.4375 C-497.45377686 183.86983887 -497.45377686 183.86983887 -498.39892578 182.27050781 C-503.84098414 172.75972241 -503.84098414 172.75972241 -502.71484375 166.9375 C-500.1458426 163.33922865 -495.92213063 162.13767773 -491.96875 160.5390625 C-490.81922096 160.0638063 -490.81922096 160.0638063 -489.64646912 159.57894897 C-487.19292756 158.5664148 -484.73529016 157.56428732 -482.27734375 156.5625 C-480.65791825 155.89652564 -479.03877449 155.22986573 -477.41992188 154.5625 C-474.28985284 153.27289992 -471.15768925 151.98860156 -468.02392578 150.70800781 C-465.32530027 149.60326195 -462.63310768 148.4856047 -459.94873047 147.34667969 C-458.86994629 146.88938477 -457.79116211 146.43208984 -456.6796875 145.9609375 C-455.29511353 145.36804932 -455.29511353 145.36804932 -453.88256836 144.76318359 C-451.71484375 143.9375 -451.71484375 143.9375 -449.71484375 143.9375 C-450.04806641 143.12595459 -450.38128906 142.31440918 -450.72460938 141.47827148 C-451.96437801 138.44235552 -453.19301138 135.40240328 -454.41455078 132.35913086 C-454.94373468 131.04714869 -455.47719745 129.73688346 -456.01513672 128.4284668 C-456.79116541 126.53878653 -457.55119059 124.6433037 -458.30859375 122.74609375 C-458.76943359 121.60970459 -459.23027344 120.47331543 -459.70507812 119.30249023 C-460.82875916 115.55788294 -461.26549382 112.81789854 -460.71484375 108.9375 C-457.62360822 106.31404242 -454.26842479 105.35390467 -450.3828125 104.359375 C-448.83098267 103.95368286 -448.83098267 103.95368286 -447.24780273 103.53979492 C-446.14380127 103.2585376 -445.0397998 102.97728027 -443.90234375 102.6875 C-433.78693977 100.04513494 -423.73666452 97.2470506 -413.72143555 94.24707031 C-408.08631422 92.57353537 -402.46869143 91.14480683 -396.71484375 89.9375 C-397.33654411 86.77017649 -397.96281504 83.60377261 -398.58984375 80.4375 C-398.85087891 79.1071875 -398.85087891 79.1071875 -399.1171875 77.75 C-399.93197032 73.64590873 -400.78068263 69.5691976 -401.8203125 65.515625 C-402.76736785 61.7274036 -403.23695031 58.81600588 -402.71484375 54.9375 C-399.13225973 51.35573767 -396.30951728 50.34384815 -391.33984375 49.7421875 C-389.48939453 49.50435547 -389.48939453 49.50435547 -387.6015625 49.26171875 C-386.31894531 49.11347656 -385.03632813 48.96523438 -383.71484375 48.8125 C-381.19389077 48.49835447 -378.67305634 48.18325613 -376.15234375 47.8671875 C-374.90751221 47.71564209 -373.66268066 47.56409668 -372.38012695 47.40795898 C-368.91126416 46.96271163 -365.46191502 46.44937821 -362.0078125 45.90234375 C-356.02907922 44.96068187 -350.0442157 44.26931882 -344.02734375 43.625 C-333.80448095 42.48796425 -323.63462236 41.09184493 -313.46484375 39.5625 C-301.47829409 37.76333769 -289.48389229 36.06807703 -277.46484375 34.5 C-276.68897919 34.3986676 -275.91311462 34.29733521 -275.11373901 34.19293213 C-268.39373774 33.31637642 -261.67262639 32.44844952 -254.95147705 31.58074951 C-248.14316993 30.70168669 -241.33513025 29.82058568 -234.52734375 28.9375 C-233.55409149 28.81145386 -232.58083923 28.68540771 -231.57809448 28.55554199 C-217.99545449 26.79401623 -204.4341526 24.91902391 -190.88220215 22.93612671 C-180.14002537 21.36853819 -169.38663263 20.02460524 -158.58520508 18.92504883 C-152.561943 18.30379807 -146.62596902 17.46198029 -140.65942383 16.43041992 C-135.96436362 15.64447128 -131.24893779 15.03954408 -126.52734375 14.4375 C-125.52251953 14.30714355 -124.51769531 14.17678711 -123.48242188 14.04248047 C-119.17131541 13.48742895 -114.86091418 12.94141594 -110.5390625 12.4765625 C-100.79693187 11.4217455 -91.16739355 9.89906911 -81.49975586 8.29995728 C-65.67700555 5.69170763 -49.79316912 3.56902239 -33.89355469 1.48950195 C-31.10870286 1.12427083 -28.32583092 0.74727242 -25.54394531 0.36010742 C-24.87480103 0.26791428 -24.20565674 0.17572113 -23.51623535 0.08073425 C-21.70680044 -0.16918762 -19.89781479 -0.42235626 -18.08886719 -0.67578125 C-3.74426534 -2.31990928 -3.74426534 -2.31990928 0 0 Z M-25.44140625 10.3671875 C-30.15177239 11.18784795 -34.88688601 11.6698881 -39.64233398 12.15185547 C-44.1432129 12.61800882 -48.61560264 13.19689901 -53.09375 13.84765625 C-58.69300489 14.66082137 -64.29692417 15.41104949 -69.91015625 16.12109375 C-70.71678207 16.22330231 -71.5234079 16.32551086 -72.35447693 16.43081665 C-75.67359892 16.8505695 -78.99289716 17.2688808 -82.3125 17.68481445 C-91.1572917 18.79479376 -99.9863889 19.95514236 -108.796875 21.3125 C-117.90033697 22.70961972 -127.02494507 23.93090209 -136.15625 25.12890625 C-136.88756386 25.22494581 -137.61887772 25.32098537 -138.3723526 25.41993523 C-145.2246942 26.31926884 -152.07769981 27.21349976 -158.9309082 28.10620117 C-162.72143919 28.60013585 -166.51160955 29.09676786 -170.30158806 29.59492302 C-172.40542626 29.87060836 -174.50965159 30.14318431 -176.61390686 30.41566467 C-183.24850729 31.28773146 -189.83554684 32.24862281 -196.40666199 33.5174408 C-200.07282977 34.18463588 -203.75903559 34.56620272 -207.46484375 34.9375 C-209.03398213 35.10426912 -210.60299155 35.2722557 -212.171875 35.44140625 C-213.32357178 35.56539795 -213.32357178 35.56539795 -214.49853516 35.69189453 C-222.42020641 36.56975323 -230.30270556 37.69557675 -238.16833496 38.97361755 C-247.84738203 40.54251654 -257.54211352 41.86707511 -267.27243042 43.07208252 C-280.68047329 44.73499949 -294.05504308 46.526809 -307.41259766 48.55834961 C-315.43100748 49.7700341 -323.46097649 50.81241528 -331.51049805 51.79345703 C-350.95610428 54.175075 -370.35181259 56.96204003 -389.71484375 59.9375 C-388.37008061 69.41797995 -386.60102392 78.76533588 -384.58984375 88.125 C-384.44000031 88.8280426 -384.29015686 89.53108521 -384.13577271 90.25543213 C-381.47071294 102.74804172 -378.58941844 115.18517578 -375.62866211 127.6105957 C-373.55290599 136.32742061 -371.56291003 145.05761476 -369.65234375 153.8125 C-367.40038878 164.09961384 -364.91054151 174.31275428 -362.32226562 184.52001953 C-360.33301928 192.38808164 -358.45432502 200.27455493 -356.65234375 208.1875 C-352.95040322 224.4060514 -349.01050633 240.55219079 -344.47070312 256.55786133 C-343.06552888 261.55271006 -341.81747406 266.56904407 -340.65234375 271.625 C-337.87256137 283.68402624 -334.55466248 295.57733836 -331.1394043 307.46899414 C-329.11669582 314.51351264 -327.12679539 321.56680937 -325.15234375 328.625 C-324.88381592 329.5845459 -324.61528809 330.5440918 -324.33862305 331.53271484 C-324.06961182 332.49516113 -323.80060059 333.45760742 -323.5234375 334.44921875 C-323.23702393 335.47354004 -322.95061035 336.49786133 -322.65551758 337.55322266 C-321.98863352 339.95248215 -321.32760214 342.35337192 -320.6706543 344.75537109 C-316.86908331 358.62646765 -312.75729514 372.40371255 -308.65234375 386.1875 C-307.24383046 390.92158967 -305.83641244 395.65600364 -304.4296875 400.390625 C-304.09573471 401.51355453 -303.76178192 402.63648407 -303.41770935 403.79344177 C-301.73122565 409.47396471 -300.0712605 415.1596213 -298.46484375 420.86328125 C-296.7463514 426.92993046 -294.80201872 432.9043966 -292.77734375 438.875 C-292.08072917 440.94661458 -291.38411458 443.01822917 -290.6875 445.08984375 C-290.35250488 446.08226074 -290.01750977 447.07467773 -289.67236328 448.09716797 C-288.3429852 452.04056026 -287.02817302 455.98874041 -285.71484375 459.9375 C-285.32296875 461.113125 -284.93109375 462.28875 -284.52734375 463.5 C-284.25921875 464.304375 -283.99109375 465.10875 -283.71484375 465.9375 C-273.13920049 464.96285337 -262.83742936 463.25673384 -252.43823242 461.11328125 C-243.17640796 459.21074098 -233.89482651 457.4352047 -224.5977478 455.71469116 C-222.95132082 455.40962364 -221.3051717 455.10305195 -219.65933228 454.79483032 C-210.4768566 453.07622539 -201.32677959 451.5750046 -192.05810547 450.39624023 C-187.35073052 449.75032542 -182.73432519 448.80443182 -178.08984375 447.8125 C-166.47861766 445.4202191 -154.8261545 443.3105531 -143.15234375 441.25 C-142.21519531 441.08444611 -141.27804687 440.91889221 -140.3125 440.74832153 C-136.34258415 440.04723218 -132.37256151 439.34675249 -128.40237427 438.64720154 C-116.66836504 436.57909339 -104.93828204 434.48904857 -93.20877075 432.39559937 C-89.71152374 431.77170713 -86.21405105 431.14909298 -82.71655273 430.52661133 C-70.08868165 428.27555555 -57.46945199 425.98476267 -44.86459351 423.60774231 C-37.53729375 422.23641822 -30.19948295 421.07918051 -22.82102966 420.02359009 C-17.40187094 419.23270862 -12.05310582 418.24501211 -6.69140625 417.1328125 C5.32858482 414.68654061 17.39783279 412.53092694 29.47265625 410.375 C31.64651617 409.98520331 33.82034442 409.59522995 35.99414062 409.20507812 C45.95456902 407.41888185 55.91702963 405.64461156 65.8833313 403.89147949 C69.29148735 403.29149664 72.69800279 402.68412729 76.1015625 402.05859375 C84.28341038 400.56555582 92.42974996 399.35999243 100.69921875 398.46484375 C104.40179836 397.92034675 107.71751466 397.04264347 111.28515625 395.9375 C109.2413356 388.73561399 106.79091609 381.76399727 104.109375 374.77734375 C99.55163412 362.75812826 95.28288174 350.65309064 91.09765625 338.5 C90.36505163 336.37885693 89.63230149 334.25776412 88.89941406 332.13671875 C87.04861114 326.77671944 85.20248616 321.4151215 83.35772705 316.05303955 C82.31545914 313.02552201 81.27114917 309.99871756 80.22607422 306.97216797 C78.62263095 302.32794751 77.02341258 297.68229534 75.42782593 293.03536987 C74.84435073 291.33732559 74.25978177 289.63965663 73.67398071 287.94241333 C70.36676723 278.35322296 67.27672764 268.73761181 64.46435547 258.99169922 C62.30125967 251.50474542 59.92511978 244.0816843 57.59179688 236.64648438 C55.71320921 230.63173672 53.89666876 224.61046588 52.1953125 218.54296875 C51.14486706 214.81953807 50.06535398 211.16410577 48.671875 207.5546875 C47.22329351 203.7761341 46.12882166 199.96837447 45.09765625 196.0625 C43.0593498 188.52720793 40.80204393 181.07499534 38.47265625 173.625 C35.16785335 163.01772443 32.14129211 152.35216978 29.2199707 141.63354492 C26.86704388 133.00884509 24.42374941 124.41583908 21.89428711 115.84130859 C16.4707443 97.445446 11.31985318 78.97116167 6.16015625 60.5 C4.94970263 56.16783334 3.73877036 51.83580093 2.52734375 47.50390625 C2.24113663 46.48001297 1.9549295 45.45611969 1.66004944 44.40119934 C-0.17054364 37.85968975 -2.0246942 31.32579106 -3.91674805 24.80175781 C-5.08322329 20.61543554 -6.1016332 16.39672005 -7.1015625 12.16796875 C-7.50471389 9.98285066 -7.50471389 9.98285066 -8.71484375 8.9375 C-14.56170051 8.65458758 -19.72062734 9.22944155 -25.44140625 10.3671875 Z " fill="#4C4C4B" transform="translate(684.71484375,220.0625)"/>
<path d="M0 0 C2.45279386 7.90649194 4.46763588 15.84187476 6.1875 23.9375 C8.49645592 34.79628546 10.94216306 45.6202999 13.4375 56.4375 C13.6332663 57.28648865 13.82903259 58.13547729 14.0307312 59.01019287 C16.57122461 70.00996235 19.19188747 80.98375351 21.97900391 91.92407227 C23.53500609 98.0526505 24.95329349 104.20012253 26.3125 110.375 C28.61160079 120.76524108 31.34748703 131.02789511 34.10067749 141.30462646 C36.38816525 149.84475218 38.63248984 158.38509824 40.625 167 C44.90571684 185.43958723 50.16570179 203.64219281 55.22973633 221.87817383 C56.91284055 227.96305341 58.53425174 234.04685422 60 240.1875 C61.93453106 248.13867833 64.41180197 255.90577932 66.85839844 263.7121582 C69.67070175 272.75422254 72.18923606 281.85524421 74.56567383 291.02099609 C76.42397889 298.1238256 78.63046236 305.05262398 81 312 C81.65656189 314.05910986 82.3049797 316.12087836 82.9375 318.1875 C83.27523437 319.28835938 83.61296875 320.38921875 83.9609375 321.5234375 C84.6519611 323.83550894 85.32397467 326.15334984 85.9765625 328.4765625 C88.67091508 337.99402379 91.74195435 347.36621806 94.93380737 356.72665405 C95.43546798 358.19820131 95.93525103 359.67039 96.43313599 361.14321899 C97.14050631 363.23182094 97.85604711 365.31743473 98.57421875 367.40234375 C98.99276123 368.62429443 99.41130371 369.84624512 99.8425293 371.10522461 C100.80760465 374.07029771 100.80760465 374.07029771 103 376 C109.99487912 376.57001343 116.4935281 375.0794961 123.3125 373.625 C125.45423232 373.17875172 127.59615835 372.73343211 129.73828125 372.2890625 C130.67712158 372.09006348 131.61596191 371.89106445 132.58325195 371.68603516 C136.41192176 370.91729188 140.25033267 370.21854447 144.09327698 369.52523804 C148.72767109 368.68781388 153.35774116 367.82718558 157.98828125 366.96875 C159.02293015 366.77709763 160.05757904 366.58544525 161.12358093 366.38798523 C164.51991912 365.75882851 167.91621011 365.12941738 171.3125 364.5 C173.73502283 364.05117081 176.15754893 363.6023593 178.58007812 363.15356445 C182.33513997 362.45790337 186.09019912 361.7622278 189.84524536 361.06648254 C197.93182939 359.56821179 206.01858056 358.07084689 214.10546875 356.57421875 C218.40365318 355.7786855 222.70182878 354.98310458 227 354.1875 C228.08606537 353.98647675 229.17213074 353.78545349 230.29110718 353.57833862 C244.14565828 351.01367599 257.99915822 348.44341624 271.8515625 345.8671875 C277.77601615 344.76548774 283.70049517 343.66392448 289.625 342.5625 C290.36011055 342.42583042 291.0952211 342.28916084 291.85260773 342.14834976 C316.50119965 337.56609496 341.15668825 333.02258067 365.81884766 328.51391602 C368.13704579 328.09001482 370.45524246 327.66610561 372.7734375 327.2421875 C373.86310822 327.04304245 374.95277893 326.8438974 376.07546997 326.63871765 C382.02503715 325.54993149 387.97120521 324.44509723 393.9140625 323.3203125 C399.26253401 322.31185595 404.61790639 321.38224593 409.98925781 320.50488281 C413.36121694 319.93942616 416.7232011 319.32884144 420.0859375 318.7109375 C421.28347656 318.49179687 422.48101563 318.27265625 423.71484375 318.046875 C426.1790111 317.59454119 428.64254521 317.1387455 431.10546875 316.6796875 C432.29527344 316.463125 433.48507812 316.2465625 434.7109375 316.0234375 C435.77618652 315.82669434 436.84143555 315.62995117 437.93896484 315.42724609 C441.00220107 314.99969278 443.91149583 314.92421913 447 315 C444.00198959 316.99867361 441.76412578 317.7829702 438.328125 318.76953125 C437.19616699 319.09848389 436.06420898 319.42743652 434.89794922 319.76635742 C433.09221436 320.284198 433.09221436 320.284198 431.25 320.8125 C422.5880792 323.33335416 413.99637955 325.9354491 405.4609375 328.85546875 C400.78317854 330.40240258 396.05772741 331.7616751 391.32470703 333.12792969 C386.75862394 334.45560456 382.25092342 335.89952071 377.75 337.4375 C371.8996546 339.4225487 366.01311629 341.1545756 360.0625 342.8125 C352.29143132 344.98257448 344.63915494 347.40450441 337 350 C328.63201641 352.84291725 320.23754452 355.41814375 311.72265625 357.78125 C305.58000655 359.50305333 299.53796536 361.44269808 293.5 363.5 C285.57188978 366.19970289 277.59791088 368.60797396 269.53442383 370.86889648 C262.28271017 372.90390309 255.09630274 375.10798213 247.91943359 377.39111328 C244.61653868 378.43886448 241.30787275 379.46809801 238 380.5 C237.34322266 380.70560547 236.68644531 380.91121094 236.00976562 381.12304688 C232.61702086 382.18515245 229.222409 383.24059485 225.82421875 384.28515625 C217.25599479 386.92535405 217.25599479 386.92535405 208.8125 389.9375 C203.52222788 391.91935421 198.1238835 393.41837672 192.6875 394.9375 C185.38843951 396.97795271 178.27882221 399.22953811 171.16796875 401.85546875 C167.02333828 403.35285066 162.8280659 404.63159173 158.609375 405.90234375 C155.07334425 406.97769509 151.55157809 408.09130477 148.03027344 409.21362305 C140.46035388 411.62584217 132.88026129 413.92168948 125.2265625 416.0546875 C120.96823407 417.30228493 116.79462744 418.76060591 112.62109375 420.265625 C109.93873935 421.01716394 107.76741398 421.05437076 105 421 C103.34530757 417.09979517 101.69580791 413.19743698 100.05004883 409.29345703 C99.49595441 407.98075671 98.94071303 406.66853961 98.3840332 405.35693359 C93.32810266 393.44037973 88.59646752 381.40249447 83.88012695 369.34814453 C81.13062672 362.32313117 78.35168764 355.31011741 75.5625 348.30078125 C74.64873581 346.00318465 73.73499911 343.70557712 72.82128906 341.40795898 C72.3614563 340.25174042 71.90162354 339.09552185 71.42785645 337.90426636 C61.26242961 312.33318166 51.2443653 286.7076548 41.33251953 261.03710938 C37.69966969 251.63074292 34.05225717 242.23001819 30.40588379 232.82888794 C29.19451727 229.70559279 27.98345449 226.58218001 26.77246094 223.45874023 C22.4642766 212.34775397 18.15118927 201.2386946 13.8298645 190.1328125 C11.21884086 183.42229067 8.60913856 176.71125497 6 170 C5.47950073 168.66119781 5.47950073 168.66119781 4.94848633 167.29534912 C-5.17380274 141.25628151 -15.2501241 115.20054517 -25.21386719 89.1003418 C-25.57333939 88.15941681 -25.93281158 87.21849182 -26.30317688 86.24905396 C-26.96533658 84.51558128 -27.62684993 82.78186148 -28.28752136 81.04782104 C-30.16189824 76.14123139 -32.09068384 71.2591507 -34.04814148 66.38514709 C-35.4188238 62.95052012 -36.74255777 59.49882896 -38.05859375 56.04296875 C-38.46513939 54.97844231 -38.46513939 54.97844231 -38.87989807 53.89241028 C-39.73317376 51.65772243 -40.58538525 49.42263075 -41.4375 47.1875 C-42.28347124 44.97049703 -43.12966709 42.75358084 -43.97647095 40.53689575 C-44.52761465 39.09206123 -45.07725689 37.646653 -45.62533569 36.20065308 C-46.900756 32.84154431 -48.19639176 29.4951756 -49.55908203 26.17041016 C-50.02556152 25.01718262 -50.49204102 23.86395508 -50.97265625 22.67578125 C-51.389104 21.67071533 -51.80555176 20.66564941 -52.23461914 19.63012695 C-53.03321423 16.88586384 -53.00292417 15.63292014 -52 13 C-39.24921027 9.39729677 -26.50128168 5.79820394 -13.66479492 2.51098633 C-3.62837329 -0.07887768 -3.62837329 -0.07887768 0 0 Z " fill="#F5F1E6" transform="translate(291,321)"/>
<path d="M0 0 C1.23480189 2.56054475 2.27375228 5.04048836 3.265625 7.6953125 C3.57600204 8.49856964 3.88637909 9.30182678 4.2061615 10.12942505 C5.23149949 12.79063547 6.24068961 15.45767411 7.25 18.125 C7.95899577 19.97403444 8.66905094 21.82266299 9.38012695 23.67089844 C10.85602629 27.51235007 12.32542094 31.35619585 13.78955078 35.20214844 C15.91710293 40.78871198 18.06305694 46.36804547 20.21484375 51.9453125 C22.7460543 58.50844204 25.27349437 65.07298049 27.79296875 71.640625 C28.07526337 72.37637756 28.35755798 73.11213013 28.64840698 73.87017822 C29.83527312 76.96368003 31.02195826 80.05725116 32.20849609 83.15087891 C36.11639738 93.32683274 40.05961652 103.48912413 44.00048828 113.65234375 C45.23378644 116.83318309 46.46651697 120.01424201 47.69921875 123.1953125 C52.09181506 134.52664831 56.50283364 145.85051445 60.93629456 157.16592407 C63.65181258 164.10023603 66.33496501 171.04612338 69 178 C70.76743354 182.58464911 72.53949548 187.16750276 74.3125 191.75 C74.56233643 192.39573975 74.81217285 193.04147949 75.06958008 193.70678711 C80.03222076 206.52990444 85.02993644 219.33925737 90.03396606 232.14627075 C93.45767455 240.90885595 96.88004945 249.67181543 100.265625 258.44921875 C100.51837189 259.10439484 100.77111877 259.75957092 101.03152466 260.43460083 C102.24843583 263.58972212 103.46489745 266.74501627 104.68115234 269.90039062 C107.19200498 276.39460007 109.73814213 282.87219443 112.3359375 289.33203125 C112.61244141 290.0200029 112.88894531 290.70797455 113.17382812 291.41679382 C114.49974701 294.71277693 115.83054131 298.00667466 117.16894531 301.29760742 C119.39749047 306.81390232 121.55583598 312.22334391 123 318 C119.89013226 315.37721998 118.44808759 312.10357169 116.75 308.5 C108.34024229 291.19824104 98.47471008 274.57151056 88.9855957 257.84545898 C84.24702844 249.47646228 79.60583089 241.05492895 74.97052002 232.62854004 C70.50707258 224.51679946 66.00655275 216.42789365 61.4375 208.375 C47.71848635 184.19139818 34.35537815 159.80608557 20.94415283 135.45080566 C13.74512374 122.37821451 6.51899067 109.32210137 -0.78393555 96.30712891 C-5.64938043 87.63463361 -10.48627582 78.94651995 -15.30908203 70.25024414 C-18.52829543 64.44570196 -21.75557193 58.64594014 -25 52.85546875 C-31.61481771 41.0376088 -38.14430983 29.21650378 -44 17 C-34.86364114 12.05184261 -25.41190384 7.96352245 -15.8125 4 C-14.6061792 3.4949292 -13.3998584 2.9898584 -12.15698242 2.46948242 C-10.44925659 1.77302612 -10.44925659 1.77302612 -8.70703125 1.0625 C-7.6806958 0.64097656 -6.65436035 0.21945312 -5.59692383 -0.21484375 C-3 -1 -3 -1 0 0 Z " fill="#F5F1E6" transform="translate(240,375)"/>
<path d="M0 0 C2.04169485 2.90548882 3 4.40142046 3 8 C1.82816162 8.40234863 0.65632324 8.80469727 -0.55102539 9.21923828 C-13.94776341 13.84752428 -27.20076276 18.80984509 -40.4375 23.875 C-43.7550415 25.14092154 -47.07297196 26.40581966 -50.39094543 27.67060852 C-52.64136975 28.52846685 -54.89168507 29.38661115 -57.14189148 30.24504089 C-67.06671787 34.02999556 -77.00365331 37.78240071 -86.94329834 41.52822876 C-105.7107374 48.60155094 -124.44972645 55.74731757 -143.17260742 62.93774414 C-152.35538199 66.46340389 -161.54460064 69.96849097 -170.75854492 73.41186523 C-175.88528351 75.32882771 -181.00501001 77.26431885 -186.125 79.19921875 C-187.09241623 79.56478378 -188.05983246 79.93034882 -189.05656433 80.30699158 C-192.03776809 81.43367291 -195.01889157 82.56056645 -198 83.6875 C-201.01998956 84.82900286 -204.04000216 85.97044468 -207.06005859 87.11177063 C-208.9211031 87.8151001 -210.78210837 88.51853342 -212.64306641 89.22209167 C-217.75919822 91.15572748 -222.87851856 93.08058096 -228 95 C-232.02254395 96.5163207 -236.04263892 98.03908216 -240.0625 99.5625 C-240.66835938 99.79209412 -241.27421875 100.02168823 -241.8984375 100.25823975 C-253.44800178 104.63683572 -264.98169256 109.05647934 -276.51412964 113.47994995 C-293.00717862 119.80486171 -309.50614542 126.1141018 -326.0246582 132.37225342 C-327.99231597 133.11805658 -329.9596077 133.86482624 -331.92651367 134.61260986 C-334.65827871 135.65082358 -337.39142939 136.68530123 -340.125 137.71875 C-340.92393677 138.02311981 -341.72287354 138.32748962 -342.54602051 138.64108276 C-346.98792522 140.31481373 -351.41662159 141.76297413 -356 143 C-359.70194348 137.69949002 -363.14525031 132.24971514 -366.4375 126.6875 C-366.80359375 126.08921387 -367.1696875 125.49092773 -367.546875 124.87451172 C-368.93616122 122.48818466 -369.96289331 120.51242573 -370.1640625 117.734375 C-368.2271793 114.84854903 -365.13537003 114.41937756 -361.9375 113.5625 C-360.45951917 113.13451582 -358.98165758 112.70611967 -357.50390625 112.27734375 C-356.37106201 111.95805908 -356.37106201 111.95805908 -355.21533203 111.63232422 C-351.91513475 110.69034593 -348.64814384 109.65737732 -345.375 108.625 C-344.03780216 108.20689772 -342.70056107 107.78893375 -341.36328125 107.37109375 C-330.39225528 103.92984776 -319.44103959 100.4251005 -308.4921875 96.9140625 C-289.21419875 90.7324479 -289.21419875 90.7324479 -280.1796875 87.9765625 C-276.19705227 86.75339443 -272.22296722 85.50416778 -268.25 84.25 C-267.06422363 83.87572876 -267.06422363 83.87572876 -265.85449219 83.49389648 C-261.17225959 82.01266016 -256.494693 80.51755459 -251.8203125 79.01171875 C-233.09864121 72.98461562 -233.09864121 72.98461562 -224.8125 70.625 C-215.42522831 67.94360397 -206.19173379 64.77641494 -196.94458008 61.65283203 C-188.99859476 58.97471551 -181.02189389 56.44025451 -173 54 C-170.01803178 53.07130264 -167.03993654 52.13061295 -164.0625 51.1875 C-163.26730957 50.93597168 -162.47211914 50.68444336 -161.65283203 50.42529297 C-148.97234543 46.41173317 -136.29795674 42.37903931 -123.63232422 38.31884766 C-111.92545576 34.56667111 -100.21114954 30.83819947 -88.49331665 27.12042236 C-86.68708475 26.54732606 -84.88091054 25.97404791 -83.07479858 25.40057373 C-57.17989929 17.17959776 -57.17989929 17.17959776 -46.37207031 14.07397461 C-40.04485278 12.25547969 -33.84044399 10.28868378 -27.67578125 7.96875 C-22.51841521 6.10155762 -17.25212334 4.575637 -12 3 C-11.01773437 2.69707031 -10.03546875 2.39414062 -9.0234375 2.08203125 C-8.12882812 1.80746094 -7.23421875 1.53289063 -6.3125 1.25 C-5.52488281 1.00765625 -4.73726562 0.7653125 -3.92578125 0.515625 C-2 0 -2 0 0 0 Z " fill="#F4F0E5" transform="translate(768,637)"/>
<path d="M0 0 C1.17175781 0.01353516 1.17175781 0.01353516 2.3671875 0.02734375 C2.94726562 0.03894531 3.52734375 0.05054688 4.125 0.0625 C4.125 1.0525 4.125 2.0425 4.125 3.0625 C3.41480713 3.17319824 2.70461426 3.28389648 1.97290039 3.39794922 C-1.28937119 3.9081686 -4.55093188 4.42280374 -7.8125 4.9375 C-8.92947266 5.11152344 -10.04644531 5.28554688 -11.19726562 5.46484375 C-15.93870532 6.21568757 -20.64882056 6.96604514 -25.3203125 8.078125 C-31.41172577 9.48964293 -37.61547313 10.1543199 -43.8125 10.9375 C-46.51480809 11.28669651 -49.21650168 11.64045314 -51.91796875 11.99609375 C-52.59469635 12.08514481 -53.27142395 12.17419586 -53.96865845 12.26594543 C-61.25035263 13.23224727 -68.50500182 14.35411564 -75.76147461 15.49169922 C-84.0603811 16.79050543 -92.36698219 18.0273976 -100.67858887 19.24157715 C-111.91491784 20.88334388 -123.1491151 22.53801988 -134.375 24.25 C-135.39980469 24.4046875 -136.42460938 24.559375 -137.48046875 24.71875 C-142.09925766 25.42790985 -146.68404961 26.20385051 -151.26171875 27.14453125 C-154.57756776 27.82527064 -157.8042064 28.34100778 -161.1875 28.5625 C-168.98674483 29.1904053 -176.6864267 30.38658635 -184.33984375 32.00390625 C-192.42910925 33.64091994 -200.63752442 34.52547339 -208.8203125 35.5625 C-215.04889622 36.36781183 -221.18742428 37.27256766 -227.33203125 38.56689453 C-232.09481364 39.49512497 -236.90633176 40.10384009 -241.71240234 40.76306152 C-245.02433161 41.22163922 -248.33376119 41.69749462 -251.64355469 42.17120361 C-255.41949804 42.71058874 -259.19628882 43.2439013 -262.97314453 43.77685547 C-264.92225393 44.05267593 -266.87114512 44.3300424 -268.81982422 44.60888672 C-271.67101063 45.01660685 -274.52290707 45.41898911 -277.375 45.8203125 C-278.67352905 46.00776535 -278.67352905 46.00776535 -279.99829102 46.19900513 C-284.33043691 46.80302888 -288.48707381 47.20407473 -292.875 47.0625 C-292.34619141 45.15576172 -292.34619141 45.15576172 -290.875 43.0625 C-288.27737611 42.33858477 -285.98966042 41.89967296 -283.3359375 41.5703125 C-282.55911621 41.45902008 -281.78229492 41.34772766 -280.98193359 41.23306274 C-278.40665566 40.86783609 -275.82866657 40.52790125 -273.25 40.1875 C-271.45497568 39.93711535 -269.66021832 39.68480987 -267.86572266 39.43066406 C-264.11198604 38.90049007 -260.35720863 38.37876951 -256.6015625 37.86230469 C-248.3301379 36.71689525 -240.07612008 35.4566806 -231.82061768 34.20257568 C-200.3983997 29.43444417 -200.3983997 29.43444417 -189 28.125 C-182.29510326 27.32195923 -175.70332905 26.16370536 -169.08203125 24.84375 C-151.19834156 21.40241342 -132.99716374 19.21925241 -114.98730469 16.5222168 C-111.01350014 15.92700071 -107.03987552 15.33060441 -103.06640625 14.7331543 C-64.50581883 8.93600316 -64.50581883 8.93600316 -48.98857117 6.98075867 C-41.0646568 5.97940693 -33.19168907 4.74464657 -25.3125 3.4375 C-23.97466459 3.21841254 -22.63677372 2.99966356 -21.29882812 2.78125 C-16.73842119 2.03462451 -12.17837655 1.28777375 -7.62475586 0.50073242 C-5.02453713 0.08633194 -2.62808682 -0.0398195 0 0 Z " fill="#595958" transform="translate(651.875,313.9375)"/>
<path d="M0 0 C0 0.99 0 1.98 0 3 C-8.76198168 5.65685896 -17.56640691 6.84252042 -26.63696289 7.90942383 C-31.75268404 8.52244145 -36.69742599 9.33020355 -41.71069336 10.51147461 C-46.07725989 11.44327579 -50.51058455 11.94087536 -54.9375 12.5 C-60.31910527 13.18254506 -65.65657962 13.88931666 -70.96875 15 C-77.43495709 16.34449053 -83.96864952 17.06826351 -90.52148438 17.85546875 C-94.83982538 18.39273392 -99.08117689 18.96251276 -103.31640625 19.97265625 C-109.59168265 21.44713266 -115.98695372 22.12789479 -122.375 22.9375 C-136.04772822 24.7088328 -149.66751977 26.66189689 -163.23413086 29.12304688 C-172.42745904 30.79043777 -181.64912865 32.08398093 -190.91015625 33.31640625 C-196.95490723 34.1215631 -202.97771863 35.04223959 -209 36 C-210.23492187 36.19078125 -211.46984375 36.3815625 -212.7421875 36.578125 C-220.57329789 37.79283961 -228.39394829 39.06066004 -236.20703125 40.38671875 C-250.9284652 42.88166565 -265.64632156 45.32639437 -280.4375 47.375 C-281.63874512 47.54249756 -282.83999023 47.70999512 -284.07763672 47.88256836 C-288.76007186 48.51513653 -293.26785583 49.09126086 -298 49 C-298 48.01 -298 47.02 -298 46 C-294.04307267 45.2424696 -290.0841878 44.49561797 -286.125 43.75 C-285.05507813 43.54503906 -283.98515625 43.34007812 -282.8828125 43.12890625 C-272.84200536 41.24625491 -262.75781936 39.70448374 -252.65917969 38.16894531 C-244.77023147 36.96885491 -236.88602908 35.73909305 -229.00218964 34.5059433 C-226.55076581 34.12255392 -224.09927655 33.73958562 -221.64776611 33.35675049 C-214.93392214 32.30825692 -208.22012685 31.25945439 -201.5065918 30.20898438 C-184.25996049 27.51074179 -167.01430382 24.81396513 -149.74073792 22.29248047 C-141.57378399 21.09886524 -133.42486438 19.80499999 -125.27670288 18.48982239 C-118.4307682 17.38571131 -111.58117413 16.31055001 -104.7265625 15.26171875 C-102.43902595 14.91077669 -100.15151115 14.5596928 -97.86401367 14.20849609 C-96.61598969 14.01688904 -95.3679657 13.82528198 -94.0821228 13.62786865 C-87.98384282 12.69058245 -81.88656154 11.7468287 -75.78913879 10.8039856 C-69.8008935 9.87806032 -63.81238434 8.9538466 -57.82383442 8.02989388 C-53.40771349 7.3484637 -48.9917076 6.66630316 -44.57592773 5.98266602 C-40.22143699 5.30855309 -35.86666284 4.6362993 -31.51169014 3.96530724 C-29.87507495 3.71281616 -28.23856066 3.45967002 -26.60215569 3.20582008 C-5.93022418 0 -5.93022418 0 0 0 Z " fill="#5A5B59" transform="translate(682,408)"/>
<path d="M0 0 C-0.33 1.32 -0.66 2.64 -1 4 C-2.09763672 4.16604736 -3.19527344 4.33209473 -4.32617188 4.50317383 C-8.47910995 5.13218874 -12.63147377 5.76493001 -16.78369141 6.39868164 C-18.56576831 6.67017367 -20.34799052 6.9407139 -22.13037109 7.21020508 C-32.177914 8.73007284 -42.17864804 10.36734755 -52.15820312 12.28344727 C-58.08747876 13.38934609 -64.03973467 14.33085252 -70 15.25268555 C-72.00058943 15.56259131 -74.00030589 15.87773383 -76 16.19335938 C-84.0918736 17.45931233 -92.18929065 18.55368328 -100.32397461 19.5078125 C-104.11433276 20.01530815 -107.81255 20.69136665 -111.5625 21.4375 C-119.27933553 22.96067417 -127.03506165 23.97651346 -134.84399414 24.90991211 C-139.90298922 25.52958733 -144.79863295 26.35625096 -149.7590332 27.52026367 C-153.84309834 28.3945624 -157.98356518 28.85604778 -162.125 29.375 C-170.01485338 30.40577441 -177.85325368 31.60852068 -185.6875 33 C-186.64930176 33.17055908 -187.61110352 33.34111816 -188.60205078 33.5168457 C-190.02686768 33.76954224 -190.02686768 33.76954224 -191.48046875 34.02734375 C-203.4090843 36.1418774 -215.35404173 37.93763732 -227.375 39.4375 C-236.7864725 40.61649538 -246.04911489 42.25594505 -255.3515625 44.09375 C-261.20954681 45.24983836 -267.08965565 46.15659909 -273 47 C-274.76048516 47.26125765 -276.52089518 47.52302184 -278.28125 47.78515625 C-280.18744077 48.0655072 -282.09369109 48.34545351 -284 48.625 C-284.90943359 48.76043213 -285.81886719 48.89586426 -286.75585938 49.03540039 C-287.62017578 49.16035889 -288.48449219 49.28531738 -289.375 49.4140625 C-290.14585937 49.5270166 -290.91671875 49.6399707 -291.7109375 49.75634766 C-294.15657612 50.01666627 -296.54238528 50.04070696 -299 50 C-298.67 48.68 -298.34 47.36 -298 46 C-283.59036473 43.62788663 -269.17901242 41.2890574 -254.7252655 39.20039368 C-253.25434186 38.98777494 -251.78342004 38.77514364 -250.3125 38.5625 C-249.64299442 38.46583982 -248.97348885 38.36917965 -248.28369522 38.26959038 C-238.4090023 36.83977286 -228.56126032 35.2922114 -218.72454262 33.62179184 C-198.34764102 30.1670135 -177.93121617 26.97265315 -157.50964355 23.79486084 C-150.32236283 22.67602617 -143.13561958 21.55374024 -135.94881821 20.43183136 C-133.36029683 20.02784882 -130.77171747 19.62423927 -128.18313599 19.22064209 C-117.72059845 17.58825796 -107.26342159 15.92562385 -96.80921936 14.24060059 C-90.67164184 13.25545762 -84.52985638 12.34069946 -78.37304688 11.48339844 C-71.96604661 10.56519776 -65.57682753 9.53080964 -59.18505859 8.51278687 C-55.01437366 7.84859881 -50.84313731 7.18789459 -46.671875 6.52734375 C-45.84594849 6.39650894 -45.02002197 6.26567413 -44.16906738 6.13087463 C-35.73101061 4.79600738 -27.28794333 3.49467601 -18.84277344 2.20556641 C-17.40466309 1.98586182 -17.40466309 1.98586182 -15.9375 1.76171875 C-15.07012207 1.62934814 -14.20274414 1.49697754 -13.30908203 1.3605957 C-11.36730611 1.05736003 -9.4292208 0.73062361 -7.4921875 0.3984375 C-4.95333882 -0.00745994 -2.56657797 -0.07548759 0 0 Z " fill="#636360" transform="translate(696,455)"/>
<path d="M0 0 C0 0.99 0 1.98 0 3 C-32.08359565 9.05922209 -32.08359565 9.05922209 -48.31225586 11.02880859 C-53.62131318 11.67612634 -58.86857203 12.45179776 -64.125 13.4375 C-71.90167461 14.89532419 -79.72164069 15.94866169 -87.5625 17 C-96.45350106 18.1933549 -105.23339024 19.54076985 -114.03125 21.2890625 C-118.94969623 22.21635221 -123.9106863 22.81315508 -128.875 23.4375 C-144.22027657 25.36865154 -159.57756558 27.47537602 -174.75 30.5 C-183.85747948 32.28444191 -193.06512459 33.39127421 -202.26855469 34.5546875 C-210.16923386 35.56468888 -210.16923386 35.56468888 -218 37 C-224.48452163 38.37031652 -231.05380612 39.1071378 -237.625 39.9375 C-246.78805549 41.1163023 -255.85388566 42.45340198 -264.9140625 44.2734375 C-270.48881041 45.32467568 -276.12287672 45.98483763 -281.75 46.6875 C-282.79978027 46.81906494 -283.84956055 46.95062988 -284.93115234 47.08618164 C-289.0030526 47.58046047 -292.89115209 48 -297 48 C-297 47.01 -297 46.02 -297 45 C-285.83599668 42.59111867 -274.72826809 40.60798206 -263.38995361 39.23013306 C-255.93010774 38.30180339 -248.53643462 37.11847371 -241.12890625 35.84375 C-221.0793593 32.45158233 -200.97114253 29.44239141 -180.8661499 26.39996338 C-176.79257089 25.78303571 -172.71929564 25.16411628 -168.64602947 24.54512691 C-151.64557008 21.96179692 -134.64514897 19.37911383 -117.6328125 16.875 C-108.21899221 15.48924503 -98.8130466 14.05550681 -89.41015625 12.59765625 C-88.74661385 12.49478113 -88.08307144 12.39190601 -87.39942169 12.28591347 C-84.69647783 11.86675281 -81.99355651 11.44744704 -79.29065132 11.02803707 C-38.09990384 4.63805252 -38.09990384 4.63805252 -18.1875 1.875 C-17.45628937 1.7727713 -16.72507874 1.6705426 -15.97171021 1.56521606 C-4.73031905 0 -4.73031905 0 0 0 Z " fill="#60615E" transform="translate(669,361)"/>
<path d="M0 0 C0.99 0.99 0.99 0.99 2 2 C-6.85473605 4.48509048 -15.68558887 5.96513018 -24.77755737 7.19171143 C-27.89425279 7.61222158 -31.00891689 8.04693594 -34.12373352 8.48110962 C-35.66049534 8.69530097 -37.19734937 8.90883195 -38.73429871 9.12167358 C-44.31201147 9.89589313 -49.87831204 10.7266998 -55.4375 11.625 C-56.14608154 11.73884033 -56.85466309 11.85268066 -57.5847168 11.9699707 C-58.98115696 12.19443037 -60.37756042 12.41911847 -61.77392578 12.64404297 C-66.13840038 13.34193768 -70.50603159 14.01838226 -74.875 14.6875 C-75.71474365 14.81914551 -76.5544873 14.95079102 -77.41967773 15.08642578 C-81.31657082 15.67919711 -85.04396495 16.16817153 -89 16 C-89 15.01 -89 14.02 -89 13 C-72.4778259 9.8369272 -55.94331986 6.97426856 -39.30419922 4.50146484 C-35.84625873 3.97666731 -32.39381376 3.42327209 -28.94140625 2.86328125 C-27.77939697 2.67709229 -26.6173877 2.49090332 -25.42016602 2.29907227 C-23.21268403 1.94468387 -21.00606035 1.58488694 -18.80053711 1.21850586 C-6.09364612 -0.79812198 -6.09364612 -0.79812198 0 0 Z " fill="#61625F" transform="translate(473,441)"/>
<path d="M0 0 C0 0.33 0 0.66 0 1 C-13.17413398 2.99790071 -26.35545093 4.93678959 -39.55078125 6.78979492 C-41.45891398 7.05849722 -43.36678654 7.32905256 -45.27441406 7.60131836 C-48.08603935 8.00253795 -50.89837713 8.39836419 -53.7109375 8.79296875 C-54.55780121 8.91480026 -55.40466492 9.03663177 -56.27719116 9.16215515 C-60.55734001 9.75609222 -64.66523542 10.13516067 -69 10 C-68.52832031 8.10205078 -68.52832031 8.10205078 -67 6 C-64.10836808 5.23465838 -61.49381647 4.74178399 -58.546875 4.3671875 C-57.69506653 4.24441437 -56.84325806 4.12164124 -55.96563721 3.99514771 C-53.22917557 3.60473719 -50.49001675 3.23953298 -47.75 2.875 C-45.95028718 2.62275526 -44.15080396 2.36886648 -42.3515625 2.11328125 C-38.85234392 1.61871669 -35.35185366 1.13573505 -31.84960938 0.66308594 C-28.82678387 0.2539583 -25.80759119 -0.1711206 -22.79101562 -0.62402344 C-21.56576172 -0.80739258 -20.34050781 -0.99076172 -19.078125 -1.1796875 C-18.0355957 -1.33937012 -16.99306641 -1.49905273 -15.91894531 -1.66357422 C-10.02691995 -2.34266513 -5.56805257 -1.78177682 0 0 Z " fill="#595A58" transform="translate(428,351)"/>
<path d="M0 0 C0 0.99 0 1.98 0 3 C-8.76198168 5.65685896 -17.56640691 6.84252042 -26.63696289 7.90942383 C-31.88433365 8.53821705 -36.92954456 9.34016052 -42.03833008 10.71069336 C-44.29245669 11.04313145 -45.84403046 10.68230697 -48 10 C-47.01 10 -46.02 10 -45 10 C-45 9.34 -45 8.68 -45 8 C-46.03125 8.350625 -47.0625 8.70125 -48.125 9.0625 C-51.9798964 9.99513623 -54.20172226 9.92640921 -58 9 C-58 8.67 -58 8.34 -58 8 C-51.61408395 7.01880968 -45.22772685 6.04052936 -38.84106445 5.06420898 C-36.67136701 4.73218663 -34.50176895 4.39951412 -32.33227539 4.06616211 C-29.20224911 3.58533832 -26.07186521 3.10690396 -22.94140625 2.62890625 C-21.98166397 2.48095108 -21.02192169 2.33299591 -20.03309631 2.18055725 C-5.70657571 0 -5.70657571 0 0 0 Z " fill="#6A6A67" transform="translate(682,408)"/>
<path d="M0 0 C-0.99 0 -1.98 0 -3 0 C-3 0.66 -3 1.32 -3 2 C-2.34 2.33 -1.68 2.66 -1 3 C-8.2907604 4.73001094 -15.58691233 5.92319774 -23 7 C-24.77605441 7.26423728 -26.55209509 7.52856683 -28.328125 7.79296875 C-30.21868537 8.07075274 -32.1093106 8.34809563 -34 8.625 C-34.9084668 8.760271 -35.81693359 8.89554199 -36.75292969 9.03491211 C-38.05085449 9.22259155 -38.05085449 9.22259155 -39.375 9.4140625 C-40.14585937 9.5270166 -40.91671875 9.6399707 -41.7109375 9.75634766 C-44.15657612 10.01666627 -46.54238528 10.04070696 -49 10 C-48.67 8.68 -48.34 7.36 -48 6 C-43.82326431 5.32390274 -39.64641987 4.64848219 -35.46948242 3.97363281 C-34.05474033 3.74496822 -32.64002581 3.51613297 -31.2253418 3.28710938 C-27.80528215 2.7334895 -24.38483162 2.18264371 -20.96337891 1.63769531 C-18.37910464 1.22541595 -15.80005193 0.79507411 -13.22021484 0.35449219 C-12.06859863 0.16274414 -10.91698242 -0.02900391 -9.73046875 -0.2265625 C-8.71750732 -0.40010254 -7.7045459 -0.57364258 -6.66088867 -0.75244141 C-4.10457831 -0.99027045 -2.41439083 -0.80635268 0 0 Z " fill="#4A4B4B" transform="translate(446,495)"/>
<path d="M0 0 C0 0.33 0 0.66 0 1 C-19.04296875 3.9296875 -19.04296875 3.9296875 -22.50708008 4.4609375 C-24.87478549 4.82634559 -27.24179584 5.19628088 -29.6081543 5.5703125 C-30.75582275 5.75078125 -31.90349121 5.93125 -33.0859375 6.1171875 C-34.631604 6.36251221 -34.631604 6.36251221 -36.20849609 6.61279297 C-42.25191537 7.4510703 -47.23879573 7.30448171 -53 5 C-53 4.67 -53 4.34 -53 4 C-47.55656538 3.13966733 -42.11223179 2.28535718 -36.66699219 1.43652344 C-34.8161492 1.14714715 -32.96555886 0.85614997 -31.11523438 0.56347656 C-28.44987309 0.14217752 -25.78364647 -0.27321248 -23.1171875 -0.6875 C-22.29507782 -0.81874268 -21.47296814 -0.94998535 -20.62594604 -1.08520508 C-13.18504569 -2.23062379 -7.2519676 -2.00054279 0 0 Z " fill="#5E5E5C" transform="translate(522,436)"/>
<path d="M0 0 C-0.33 1.32 -0.66 2.64 -1 4 C-6.38803206 4.863371 -11.77741865 5.71752326 -17.16821289 6.56347656 C-18.99868336 6.85201409 -20.82877172 7.14298733 -22.65844727 7.43652344 C-25.3012572 7.86006452 -27.94535588 8.27458126 -30.58984375 8.6875 C-31.39646957 8.81874268 -32.2030954 8.94998535 -33.03416443 9.08520508 C-38.41543497 9.91381425 -43.55468791 10.11418741 -49 10 C-49 9.34 -49 8.68 -49 8 C-40.59725231 5.73222921 -32.23470202 4.12205997 -23.625 2.875 C-21.36715653 2.53927072 -19.10934299 2.20334005 -16.8515625 1.8671875 C-15.87010254 1.72394043 -14.88864258 1.58069336 -13.87744141 1.43310547 C-11.85268075 1.12834343 -9.83165802 0.79820361 -7.81396484 0.44970703 C-5.15198505 0.02428913 -2.68951167 -0.07910328 0 0 Z " fill="#505150" transform="translate(696,455)"/>
<path d="M0 0 C-5.27135879 3.01751855 -11.26716319 3.31658481 -17.1875 4.1875 C-18.97897461 4.47270508 -18.97897461 4.47270508 -20.80664062 4.76367188 C-28.93020055 5.97527602 -36.51132285 7.06534134 -44 3 C-39.41103582 2.28213907 -34.82119764 1.57025733 -30.23046875 0.86376953 C-28.67064736 0.62287672 -27.11107193 0.38038537 -25.55175781 0.13623047 C-23.3033712 -0.21552861 -21.05414688 -0.56142614 -18.8046875 -0.90625 C-18.1138205 -1.0156189 -17.42295349 -1.12498779 -16.71115112 -1.2376709 C-10.5867581 -2.16624618 -5.69131877 -2.67826766 0 0 Z " fill="#5F5F5D" transform="translate(496,390)"/>
<path d="M0 0 C0 0.99 0 1.98 0 3 C-3.92645574 3.72448099 -7.85504978 4.43591133 -11.78588867 5.13623047 C-13.76665842 5.4917716 -15.74566354 5.85709961 -17.72460938 6.22265625 C-25.23750842 7.55405608 -32.3690981 8.35821159 -40 8 C-39 6 -39 6 -36.36181641 4.94189453 C-32.96654154 3.9906258 -29.70373154 3.40352557 -26.2109375 2.9296875 C-24.93992187 2.75566406 -23.66890625 2.58164062 -22.359375 2.40234375 C-21.37807617 2.27255127 -21.37807617 2.27255127 -20.37695312 2.14013672 C-18.37275541 1.87470273 -16.36996067 1.60017599 -14.3671875 1.32421875 C-4.56996006 0 -4.56996006 0 0 0 Z " fill="#5A5B59" transform="translate(669,361)"/>
<path d="M0 0 C0.495 0.99 0.495 0.99 1 2 C-4.69468676 4.24277047 -10.47061318 4.87799632 -16.5 5.625 C-17.51964844 5.7590625 -18.53929687 5.893125 -19.58984375 6.03125 C-24.42016126 6.64681712 -29.11912356 7.18386863 -34 7 C-33.4375 5.0625 -33.4375 5.0625 -32 3 C-26.48155454 1.52841454 -20.76158745 1.95464917 -15.0859375 2.0625 C-9.71919383 1.95380646 -5.29076313 -0.13923061 0 0 Z " fill="#4E4F4E" transform="translate(393,354)"/>
<path d="M0 0 C0.66 0.66 1.32 1.32 2 2 C-23.01623238 7.19008971 -23.01623238 7.19008971 -31 7 C-31 6.01 -31 5.02 -31 4 C-27.71143316 3.31741588 -24.41876964 2.65697831 -21.125 2 C-19.74828125 1.71382813 -19.74828125 1.71382813 -18.34375 1.421875 C-12.31324689 0.23276171 -6.14974976 -0.82016766 0 0 Z " fill="#4E4F4F" transform="translate(415,450)"/>
<path d="M0 0 C0.33 0.66 0.66 1.32 1 2 C-1.35368393 2.48164188 -3.70790155 2.96036648 -6.0625 3.4375 C-6.71927734 3.57220703 -7.37605469 3.70691406 -8.05273438 3.84570312 C-13.98646171 5.04414067 -19.85983076 6.1560026 -25.9375 6.0625 C-26.70964844 6.05347656 -27.48179687 6.04445313 -28.27734375 6.03515625 C-28.84582031 6.02355469 -29.41429687 6.01195312 -30 6 C-30 5.01 -30 4.02 -30 3 C-9.46808511 -0.57446809 -9.46808511 -0.57446809 0 0 Z " fill="#565755" transform="translate(574,475)"/>
<path d="M0 0 C-0.66 0 -1.32 0 -2 0 C-2 0.66 -2 1.32 -2 2 C-0.02 2 1.96 2 4 2 C4 2.33 4 2.66 4 3 C-5.6434699 4.55220235 -15.30452907 5.83007154 -25 7 C-24.67 6.34 -24.34 5.68 -24 5 C-25.32 4.34 -26.64 3.68 -28 3 C-24.08559007 2.29921164 -20.168211 1.61668646 -16.25 0.9375 C-14.58324219 0.63875977 -14.58324219 0.63875977 -12.8828125 0.33398438 C-11.81289063 0.15029297 -10.74296875 -0.03339844 -9.640625 -0.22265625 C-8.16384277 -0.48187866 -8.16384277 -0.48187866 -6.65722656 -0.74633789 C-4.09865957 -0.99058184 -2.41709608 -0.80486291 0 0 Z " fill="#656664" transform="translate(649,463)"/>
<path d="M0 0 C-3.10112546 2.06741697 -5.56910022 2.89716328 -9.12890625 3.9453125 C-10.32837891 4.29980469 -11.52785156 4.65429688 -12.76367188 5.01953125 C-14.01728516 5.38433594 -15.27089844 5.74914062 -16.5625 6.125 C-17.81998047 6.49753906 -19.07746094 6.87007812 -20.37304688 7.25390625 C-29.72284226 10 -29.72284226 10 -32 10 C-32 9.01 -32 8.02 -32 7 C-32.66 6.34 -33.32 5.68 -34 5 C-30.1234573 4.28113037 -26.24569194 3.56930273 -22.36669922 2.86376953 C-20.4039504 2.50528758 -18.44219945 2.14135597 -16.48046875 1.77734375 C-15.23652344 1.55175781 -13.99257813 1.32617188 -12.7109375 1.09375 C-11.56931152 0.88427734 -10.42768555 0.67480469 -9.25146484 0.45898438 C-6.11683829 0.01649317 -3.16047405 -0.08372117 0 0 Z " fill="#EEECE2" transform="translate(738,636)"/>
<path d="M0 0 C0.66 0.66 1.32 1.32 2 2 C-0.54152435 2.47993156 -3.08321222 2.95896727 -5.625 3.4375 C-6.33785156 3.57220703 -7.05070312 3.70691406 -7.78515625 3.84570312 C-14.62632352 5.13234468 -21.02482465 6.12026164 -28 6 C-28 5.34 -28 4.68 -28 4 C-18.62867127 1.51659789 -9.74835644 -0.50422533 0 0 Z " fill="#515250" transform="translate(471,491)"/>
<path d="M0 0 C0.33 0.66 0.66 1.32 1 2 C-1.97788016 2.50893577 -4.9569254 3.00730636 -7.9375 3.5 C-9.18370117 3.71462891 -9.18370117 3.71462891 -10.45507812 3.93359375 C-24.53184567 6.23407716 -24.53184567 6.23407716 -29 4 C-29 3.34 -29 2.68 -29 2 C-19.22907228 0.12612345 -9.89644867 -0.22867275 0 0 Z " fill="#525453" transform="translate(543,431)"/>
<path d="M0 0 C0.66 0.66 1.32 1.32 2 2 C-18.57926829 6.71036585 -18.57926829 6.71036585 -24 4 C-24 3.34 -24 2.68 -24 2 C-7.52992519 -0.93266833 -7.52992519 -0.93266833 0 0 Z " fill="#505151" transform="translate(515,385)"/>
<path d="M0 0 C-0.33 0.99 -0.66 1.98 -1 3 C-7.84161371 5.13099443 -14.85730621 5.72928405 -22 5 C-22.99 4.34 -23.98 3.68 -25 3 C-20.27003378 -1.72996622 -6.33908816 -0.2286645 0 0 Z " fill="#5B5B59" transform="translate(561,378)"/>
<path d="M0 0 C0.33 0.66 0.66 1.32 1 2 C-7.98271694 3.79203512 -16.83808082 5.43708547 -26 6 C-26 5.01 -26 4.02 -26 3 C-8.14350797 -0.44419134 -8.14350797 -0.44419134 0 0 Z " fill="#4F504F" transform="translate(398,403)"/>
<path d="M0 0 C1.67542976 0.28604898 3.34385343 0.61781233 5 1 C1.34257578 3.43828281 -2.12866055 3.92205867 -6.375 4.625 C-7.50808594 4.82609375 -7.50808594 4.82609375 -8.6640625 5.03125 C-12.48477419 5.68584746 -16.10771193 6.17057836 -20 6 C-19.67 4.68 -19.34 3.36 -19 2 C-13.81243572 0.84720794 -8.79165766 0.95858976 -3.51171875 1.0625 C-1.0604712 1.29023727 -1.0604712 1.29023727 0 0 Z " fill="#484949" transform="translate(417,499)"/>
<path d="M0 0 C0.66 0.66 1.32 1.32 2 2 C-0.20751848 2.33868777 -2.41605911 2.67071689 -4.625 3 C-5.85476563 3.185625 -7.08453125 3.37125 -8.3515625 3.5625 C-13.21025709 4.14512719 -17.27840236 4.18039941 -22 3 C-22.99 3.495 -22.99 3.495 -24 4 C-26.00800456 3.71887936 -28.01014051 3.38932033 -30 3 C-30 2.67 -30 2.34 -30 2 C-26.6903454 1.45993463 -23.37705098 0.94657591 -20.0625 0.4375 C-19.13630859 0.28603516 -18.21011719 0.13457031 -17.25585938 -0.02148438 C-11.22095949 -0.93201313 -6.02346617 -1.09463189 0 0 Z " fill="#626360" transform="translate(530,334)"/>
<path d="M0 0 C0 0.66 0 1.32 0 2 C-8.48831358 4.56943546 -16.14593366 5.38558031 -25 5 C-25.33 4.34 -25.66 3.68 -26 3 C-25.2575 3.04125 -24.515 3.0825 -23.75 3.125 C-21.06134383 3.18931975 -21.06134383 3.18931975 -19.125 2.0625 C-13.34790947 -0.82604527 -6.3067388 -0.11420654 0 0 Z " fill="#535454" transform="translate(620,320)"/>
<path d="M0 0 C-0.33 1.32 -0.66 2.64 -1 4 C-3.74828288 4.41704293 -6.49635754 4.809154 -9.25 5.1875 C-10.02730469 5.30802734 -10.80460938 5.42855469 -11.60546875 5.55273438 C-17.42997175 6.32435657 -17.42997175 6.32435657 -20.546875 4.55078125 C-21.02640625 4.03902344 -21.5059375 3.52726562 -22 3 C-19.27172635 2.49465273 -16.54255306 1.99556155 -13.8125 1.5 C-13.04357422 1.35691406 -12.27464844 1.21382813 -11.48242188 1.06640625 C-7.60578227 0.36761285 -3.958529 -0.19039017 0 0 Z " fill="#535352" transform="translate(696,455)"/>
<path d="M0 0 C0.53625 0.495 1.0725 0.99 1.625 1.5 C-0.95657368 2.03132389 -3.53961756 2.55034379 -6.125 3.0625 C-6.85460937 3.21396484 -7.58421875 3.36542969 -8.3359375 3.52148438 C-12.04057073 4.24557178 -14.76822322 4.59817231 -18.375 3.5 C-17.715 3.5 -17.055 3.5 -16.375 3.5 C-16.375 2.84 -16.375 2.18 -16.375 1.5 C-18.355 1.5 -20.335 1.5 -22.375 1.5 C-22.375 1.17 -22.375 0.84 -22.375 0.5 C-20.16748152 0.16131223 -17.95894089 -0.17071689 -15.75 -0.5 C-14.52023437 -0.685625 -13.29046875 -0.87125 -12.0234375 -1.0625 C-3.33240852 -2.10467906 -3.33240852 -2.10467906 0 0 Z " fill="#5A5B58" transform="translate(636.375,318.5)"/>
<path d="M0 0 C0.33 1.32 0.66 2.64 1 4 C-4.61 4.66 -10.22 5.32 -16 6 C-15.34 5.34 -14.68 4.68 -14 4 C-15.65 3.67 -17.3 3.34 -19 3 C-19 2.67 -19 2.34 -19 2 C-16.95928485 1.66089006 -14.91737379 1.32897296 -12.875 1 C-11.73804688 0.814375 -10.60109375 0.62875 -9.4296875 0.4375 C-6.23862398 0.03043951 -3.21182209 -0.07809902 0 0 Z " fill="#666664" transform="translate(588,472)"/>
<path d="M0 0 C2.92599951 4.38899926 4.68802626 9.19515665 6.6875 14.0625 C7.11611328 15.08150391 7.54472656 16.10050781 7.98632812 17.15039062 C8.38658203 18.12298828 8.78683594 19.09558594 9.19921875 20.09765625 C9.56877686 20.98976807 9.93833496 21.88187988 10.3190918 22.80102539 C11 25 11 25 10 27 C8.34703881 23.92043712 6.70389829 20.83573921 5.0625 17.75 C4.35963867 16.44095703 4.35963867 16.44095703 3.64257812 15.10546875 C3.19462891 14.26113281 2.74667969 13.41679688 2.28515625 12.546875 C1.66459351 11.38430176 1.66459351 11.38430176 1.03149414 10.19824219 C-0.73710264 6.42914268 -1.28597998 4.00082659 0 0 Z " fill="#D6D4CE" transform="translate(352,666)"/>
<path d="M0 0 C-0.6953125 1.91796875 -0.6953125 1.91796875 -2 4 C-4.2421875 4.86328125 -4.2421875 4.86328125 -6.875 5.3125 C-7.73867188 5.47363281 -8.60234375 5.63476562 -9.4921875 5.80078125 C-11.96004384 5.99682591 -13.66156338 5.75591323 -16 5 C-15.34 4.67 -14.68 4.34 -14 4 C-16.97 3.505 -16.97 3.505 -20 3 C-20 2.67 -20 2.34 -20 2 C-6.3667426 -0.29612756 -6.3667426 -0.29612756 0 0 Z " fill="#565756" transform="translate(412,400)"/>
<path d="M0 0 C-15.07865169 3.46067416 -15.07865169 3.46067416 -20 1 C-20 0.34 -20 -0.32 -20 -1 C-13.6003528 -2.3837075 -5.61430694 -3.74287129 0 0 Z " fill="#515150" transform="translate(459,396)"/>
<path d="M0 0 C-0.99 0.33 -1.98 0.66 -3 1 C-0.03 1.495 -0.03 1.495 3 2 C3 2.33 3 2.66 3 3 C0.79245484 3.19656224 -1.41609539 3.38185459 -3.625 3.5625 C-4.85476563 3.66691406 -6.08453125 3.77132813 -7.3515625 3.87890625 C-10.7585776 3.99198705 -13.66033485 3.5827275 -17 3 C-17.99 3.495 -17.99 3.495 -19 4 C-20.67654729 3.72057545 -22.34608154 3.39171753 -24 3 C-24 2.67 -24 2.34 -24 2 C-20.75198175 1.46626918 -17.50138509 0.95028732 -14.25 0.4375 C-13.32960938 0.28603516 -12.40921875 0.13457031 -11.4609375 -0.02148438 C-10.12675781 -0.2293457 -10.12675781 -0.2293457 -8.765625 -0.44140625 C-7.94868164 -0.57232666 -7.13173828 -0.70324707 -6.29003906 -0.83813477 C-3.93889793 -1.00431883 -2.23573504 -0.70259545 0 0 Z " fill="#6D6E6B" transform="translate(633,367)"/>
<path d="M0 0 C0.33 0.66 0.66 1.32 1 2 C-13.38330757 5.80834621 -13.38330757 5.80834621 -19 3 C-19 2.34 -19 1.68 -19 1 C-12.62694402 0.25492456 -6.41688675 -0.10349817 0 0 Z " fill="#4D4D4C" transform="translate(480,341)"/>
<path d="M0 0 C-0.99 0 -1.98 0 -3 0 C-3 0.66 -3 1.32 -3 2 C-2.34 2.33 -1.68 2.66 -1 3 C-2.41377782 3.36552803 -3.83120576 3.71695495 -5.25 4.0625 C-6.03890625 4.25972656 -6.8278125 4.45695312 -7.640625 4.66015625 C-10.10394822 5.01497267 -11.65604132 4.76877544 -14 4 C-13.01 4 -12.02 4 -11 4 C-11 3.34 -11 2.68 -11 2 C-12.03125 2.350625 -13.0625 2.70125 -14.125 3.0625 C-17.9798964 3.99513623 -20.20172226 3.92640921 -24 3 C-24 2.67 -24 2.34 -24 2 C-20.75198175 1.46626918 -17.50138509 0.95028732 -14.25 0.4375 C-13.32960938 0.28603516 -12.40921875 0.13457031 -11.4609375 -0.02148438 C-10.12675781 -0.2293457 -10.12675781 -0.2293457 -8.765625 -0.44140625 C-7.94868164 -0.57232666 -7.13173828 -0.70324707 -6.29003906 -0.83813477 C-3.93889793 -1.00431883 -2.23573504 -0.70259545 0 0 Z " fill="#7A7B77" transform="translate(648,414)"/>
<path d="M0 0 C-0.99 0.33 -1.98 0.66 -3 1 C-0.03 1.495 -0.03 1.495 3 2 C3 2.33 3 2.66 3 3 C-11.09677419 5.4516129 -11.09677419 5.4516129 -16 3 C-16 2.34 -16 1.68 -16 1 C-14.0852312 0.63571223 -12.16807707 0.28394694 -10.25 -0.0625 C-9.18265625 -0.25972656 -8.1153125 -0.45695312 -7.015625 -0.66015625 C-4.25228095 -0.97156937 -2.59053383 -0.8991416 0 0 Z " fill="#696866" transform="translate(503,486)"/>
<path d="M0 0 C1.06863281 0.01804687 2.13726563 0.03609375 3.23828125 0.0546875 C4.04652344 0.07789063 4.85476563 0.10109375 5.6875 0.125 C5.6875 0.785 5.6875 1.445 5.6875 2.125 C0.04350642 4.56564587 -5.29001478 4.31789099 -11.3125 4.125 C-11.3125 3.465 -11.3125 2.805 -11.3125 2.125 C-7.38392246 0.27368517 -4.32474888 -0.09504943 0 0 Z " fill="#5C5D5B" transform="translate(656.3125,411.875)"/>
<path d="M0 0 C1.2065625 0.0309375 1.2065625 0.0309375 2.4375 0.0625 C2.1075 1.0525 1.7775 2.0425 1.4375 3.0625 C-3.49236492 4.07375434 -8.54238939 4.62666481 -13.5625 4.0625 C-14.5525 3.4025 -15.5425 2.7425 -16.5625 2.0625 C-13.54083856 1.05527952 -11.58524409 0.98908323 -8.4375 1.0625 C-6.81293671 1.10017103 -5.18683238 1.10907584 -3.5625 1.0625 C-2.5625 0.0625 -2.5625 0.0625 0 0 Z " fill="#4A4B4B" transform="translate(510.5625,335.9375)"/>
<path d="M0 0 C-0.99 0 -1.98 0 -3 0 C-3 0.66 -3 1.32 -3 2 C-2.34 2.33 -1.68 2.66 -1 3 C-2.41377782 3.36552803 -3.83120576 3.71695495 -5.25 4.0625 C-6.03890625 4.25972656 -6.8278125 4.45695312 -7.640625 4.66015625 C-10.10394822 5.01497267 -11.65604132 4.76877544 -14 4 C-13.34 3.67 -12.68 3.34 -12 3 C-13.65 2.67 -15.3 2.34 -17 2 C-17 1.67 -17 1.34 -17 1 C-14.91835982 0.63601378 -12.83459438 0.28416713 -10.75 -0.0625 C-9.00976562 -0.35833984 -9.00976562 -0.35833984 -7.234375 -0.66015625 C-4.37477376 -0.9606216 -2.66674071 -0.9439206 0 0 Z " fill="#6C6D6A" transform="translate(446,495)"/>
<path d="M0 0 C1.8871875 0.0309375 1.8871875 0.0309375 3.8125 0.0625 C4.1425 0.7225 4.4725 1.3825 4.8125 2.0625 C-0.83149358 4.50314587 -6.16501478 4.25539099 -12.1875 4.0625 C-12.1875 3.4025 -12.1875 2.7425 -12.1875 2.0625 C-11.424375 1.918125 -10.66125 1.77375 -9.875 1.625 C-1.95777027 -0.03209459 -1.95777027 -0.03209459 0 0 Z " fill="#484A4A" transform="translate(621.1875,466.9375)"/>
<path d="M0 0 C-0.99 0.33 -1.98 0.66 -3 1 C-2.01 1.66 -1.02 2.32 0 3 C-5.96422183 4.98807394 -11.25472393 4.29811043 -17 2 C-17 1.67 -17 1.34 -17 1 C-14.91835982 0.63601378 -12.83459438 0.28416713 -10.75 -0.0625 C-9.00976562 -0.35833984 -9.00976562 -0.35833984 -7.234375 -0.66015625 C-4.37477376 -0.9606216 -2.66674071 -0.9439206 0 0 Z " fill="#585757" transform="translate(486,439)"/>
<path d="M0 0 C-3.11910856 1.79275866 -5.67682428 2.34290718 -9.25 2.625 C-10.14203125 2.69976562 -11.0340625 2.77453125 -11.953125 2.8515625 C-12.62859375 2.90054687 -13.3040625 2.94953125 -14 3 C-13.34 2.67 -12.68 2.34 -12 2 C-12 1.34 -12 0.68 -12 0 C-13.65 0 -15.3 0 -17 0 C-17 -0.33 -17 -0.66 -17 -1 C-10.77383456 -2.18593628 -5.84934351 -2.75263224 0 0 Z " fill="#525352" transform="translate(496,390)"/>
<path d="M0 0 C-0.99 0 -1.98 0 -3 0 C-3 0.66 -3 1.32 -3 2 C-2.01 2.33 -1.02 2.66 0 3 C-6.59390542 3.99989549 -11.61767125 4.00925164 -18 2 C-18 1.67 -18 1.34 -18 1 C-15.75152519 0.63627613 -13.50113812 0.28435904 -11.25 -0.0625 C-9.99703125 -0.25972656 -8.7440625 -0.45695312 -7.453125 -0.66015625 C-4.49983411 -0.95080818 -2.7397586 -0.98935727 0 0 Z " fill="#646461" transform="translate(572,327)"/>
<path d="M0 0 C0 0.33 0 0.66 0 1 C-6.54657937 2.30931587 -12.84168004 3.07915998 -19 0 C-19 -0.33 -19 -0.66 -19 -1 C-11.99515884 -2.33425546 -6.7286222 -2.1531591 0 0 Z " fill="#555656" transform="translate(550,481)"/>
<path d="M0 0 C1.2065625 0.0309375 1.2065625 0.0309375 2.4375 0.0625 C2.4375 0.7225 2.4375 1.3825 2.4375 2.0625 C-3.71028871 3.6902833 -9.20262196 4.26440089 -15.5625 4.0625 C-15.5625 3.4025 -15.5625 2.7425 -15.5625 2.0625 C-12.6687501 1.0979167 -10.93124995 0.98448697 -7.9375 1.0625 C-6.47965517 1.10024356 -5.02009317 1.10895715 -3.5625 1.0625 C-2.5625 0.0625 -2.5625 0.0625 0 0 Z " fill="#4B4C4C" transform="translate(634.5625,415.9375)"/>
<path d="M0 0 C0.66 0.66 1.32 1.32 2 2 C-3.92205576 3.89505784 -9.28781613 3.22914492 -15 1 C-15 0.67 -15 0.34 -15 0 C-9.92647987 -1.17081234 -5.071176 -1.16637048 0 0 Z " fill="#616260" transform="translate(526,384)"/>
<path d="M0 0 C0.66 0.66 1.32 1.32 2 2 C-3.57067277 3.59162079 -8.21101581 4.20674944 -14 4 C-9.77777553 -0.35842526 -5.82168687 -0.98362489 0 0 Z " fill="#4D4E4E" transform="translate(534,481)"/>
<path d="M0 0 C-0.99 0 -1.98 0 -3 0 C-3 0.66 -3 1.32 -3 2 C-2.01 2.33 -1.02 2.66 0 3 C-6.435 3.495 -6.435 3.495 -13 4 C-12.34 2.68 -11.68 1.36 -11 0 C-7.08355188 -0.94284862 -3.83576122 -1.38087404 0 0 Z " fill="#646462" transform="translate(372,357)"/>
<path d="M0 0 C1.8871875 0.0309375 1.8871875 0.0309375 3.8125 0.0625 C4.1425 0.7225 4.4725 1.3825 4.8125 2.0625 C-0.41262279 3.52920113 -4.7689234 4.28827402 -10.1875 4.0625 C-7.08842497 0.66827497 -4.52992189 -0.07426101 0 0 Z " fill="#4C4D4D" transform="translate(419.1875,398.9375)"/>
<path d="M0 0 C2.97 0.495 2.97 0.495 6 1 C1.79248553 3.80500965 -1.24985414 4.12829139 -6.25 4.0625 C-7.14203125 4.05347656 -8.0340625 4.04445313 -8.953125 4.03515625 C-9.62859375 4.02355469 -10.3040625 4.01195312 -11 4 C-11.33 3.34 -11.66 2.68 -12 2 C-10.56359829 1.80426392 -9.12580496 1.61872184 -7.6875 1.4375 C-6.88699219 1.33308594 -6.08648438 1.22867187 -5.26171875 1.12109375 C-3 1 -3 1 0 2 C0 1.34 0 0.68 0 0 Z " fill="#484949" transform="translate(603,371)"/>
<path d="M0 0 C-0.99 0.33 -1.98 0.66 -3 1 C-1.35 1.33 0.3 1.66 2 2 C2 2.33 2 2.66 2 3 C-4.435 3.495 -4.435 3.495 -11 4 C-10.67 2.68 -10.34 1.36 -10 0 C-6.33694766 -0.74926071 -3.57644848 -1.2380014 0 0 Z " fill="#6D6D6A" transform="translate(408,501)"/>
<path d="M0 0 C-0.99 0.33 -1.98 0.66 -3 1 C-2.01 1.66 -1.02 2.32 0 3 C-2.06242617 3.02717692 -4.12495703 3.0464758 -6.1875 3.0625 C-7.33605469 3.07410156 -8.48460937 3.08570313 -9.66796875 3.09765625 C-12.59300586 3.01192832 -15.16316291 2.67849023 -18 2 C-18 1.67 -18 1.34 -18 1 C-15.75152519 0.63627613 -13.50113812 0.28435904 -11.25 -0.0625 C-9.99703125 -0.25972656 -8.7440625 -0.45695312 -7.453125 -0.66015625 C-4.49983411 -0.95080818 -2.7397586 -0.98935727 0 0 Z " fill="#636460" transform="translate(551,429)"/>
<path d="M0 0 C0 0.33 0 0.66 0 1 C-6.15234375 1.09765625 -6.15234375 1.09765625 -8 1 C-8.33 0.67 -8.66 0.34 -9 0 C-12.63194641 -0.19149081 -12.63194641 -0.19149081 -16 1 C-20.01699293 1.8926651 -23.01360873 2.05522122 -27 1 C-27 0.67 -27 0.34 -27 0 C-17.43961042 -1.78460605 -9.37399377 -3.12466459 0 0 Z " fill="#6F706D" transform="translate(402,355)"/>
<path d="M0 0 C1.77049689 -0.05410687 3.54146849 -0.09284119 5.3125 -0.125 C6.29863281 -0.14820313 7.28476562 -0.17140625 8.30078125 -0.1953125 C11 0 11 0 14 2 C11.32356043 2.89214652 9.74615622 3.13540211 7 3.125 C5.9790625 3.12886719 5.9790625 3.12886719 4.9375 3.1328125 C3 3 3 3 0 2 C0 1.34 0 0.68 0 0 Z " fill="#4E4F4E" transform="translate(527,332)"/>
<path d="M0 0 C-0.66 0.66 -1.32 1.32 -2 2 C-2.99 1.67 -3.98 1.34 -5 1 C-5 1.66 -5 2.32 -5 3 C-3.35 3 -1.7 3 0 3 C0 3.33 0 3.66 0 4 C-3.3 4.33 -6.6 4.66 -10 5 C-9.67 4.34 -9.34 3.68 -9 3 C-10.32 2.34 -11.64 1.68 -13 1 C-8.60563789 0.14256349 -4.47427924 -0.08948558 0 0 Z " fill="#72726E" transform="translate(614,468)"/>
<path d="M0 0 C0 0.99 0 1.98 0 3 C-4.0527516 3.98248524 -7.83861737 4.08159574 -12 4 C-12 3.34 -12 2.68 -12 2 C-10.7625 1.67 -9.525 1.34 -8.25 1 C-7.55390625 0.814375 -6.8578125 0.62875 -6.140625 0.4375 C-4 0 -4 0 0 0 Z " fill="#494A4A" transform="translate(669,361)"/>
<path d="M0 0 C0.66 0.66 1.32 1.32 2 2 C-0.64458379 3.32229189 -2.67761301 3.09677194 -5.625 3.0625 C-6.62789063 3.05347656 -7.63078125 3.04445313 -8.6640625 3.03515625 C-9.43492187 3.02355469 -10.20578125 3.01195312 -11 3 C-11 2.34 -11 1.68 -11 1 C-7.07703567 -0.30765478 -4.13997567 -0.1971417 0 0 Z " fill="#434545" transform="translate(380,356)"/>
<path d="M0 0 C0.89589844 -0.01417969 1.79179687 -0.02835937 2.71484375 -0.04296875 C5.0625 0.1875 5.0625 0.1875 7.0625 2.1875 C3.93543041 3.7510348 0.48267557 3.58708487 -2.9375 3.1875 C-3.9275 2.5275 -4.9175 1.8675 -5.9375 1.1875 C-4.27188601 -0.47811399 -2.27787295 0.01634055 0 0 Z " fill="#4C4D4D" transform="translate(467.9375,440.8125)"/>
<path d="M0 0 C1.2065625 0.0309375 1.2065625 0.0309375 2.4375 0.0625 C2.7675 0.7225 3.0975 1.3825 3.4375 2.0625 C-5.97252278 4.35862756 -5.97252278 4.35862756 -10.5625 4.0625 C-9.9025 3.0725 -9.2425 2.0825 -8.5625 1.0625 C-6 0.9375 -6 0.9375 -3.5625 1.0625 C-2.5625 0.0625 -2.5625 0.0625 0 0 Z " fill="#4C4B4A" transform="translate(585.5625,373.9375)"/>
<path d="M0 0 C-0.66 0.66 -1.32 1.32 -2 2 C-1.34 2.33 -0.68 2.66 0 3 C0 3.33 0 3.66 0 4 C-3.3 4.33 -6.6 4.66 -10 5 C-9.34 4.34 -8.68 3.68 -8 3 C-9.65 2.67 -11.3 2.34 -13 2 C-13 1.67 -13 1.34 -13 1 C-8.60563789 0.14256349 -4.47427924 -0.08948558 0 0 Z " fill="#72726E" transform="translate(596,372)"/>
<path d="M0 0 C-3.01490557 2.00993705 -5.2149927 2.72623341 -8.6875 3.625 C-10.17830078 4.01558594 -10.17830078 4.01558594 -11.69921875 4.4140625 C-12.45847656 4.60742188 -13.21773437 4.80078125 -14 5 C-14.99 4.01 -15.98 3.02 -17 2 C-5.47835991 -0.29612756 -5.47835991 -0.29612756 0 0 Z " fill="#D1D0C9" transform="translate(738,636)"/>
<path d="M0 0 C0 0.66 0 1.32 0 2 C0.99 2.33 1.98 2.66 3 3 C-2.94 3.495 -2.94 3.495 -9 4 C-9 3.01 -9 2.02 -9 1 C-5.846632 0.29925156 -3.27275026 0 0 0 Z " fill="#5C5C5A" transform="translate(393,453)"/>
<path d="M0 0 C1.4370809 -0.05422947 2.87475462 -0.09289723 4.3125 -0.125 C5.11300781 -0.14820313 5.91351563 -0.17140625 6.73828125 -0.1953125 C9 0 9 0 12 2 C9.11788698 2.96070434 7.30149956 3.10581883 4.3125 3.0625 C3.10013672 3.04896484 3.10013672 3.04896484 1.86328125 3.03515625 C0.94095703 3.01775391 0.94095703 3.01775391 0 3 C0 2.01 0 1.02 0 0 Z " fill="#474848" transform="translate(393,452)"/>
<path d="M0 0 C1.21236328 0.01353516 1.21236328 0.01353516 2.44921875 0.02734375 C3.37154297 0.04474609 3.37154297 0.04474609 4.3125 0.0625 C4.6425 0.7225 4.9725 1.3825 5.3125 2.0625 C1.38953567 3.37015478 -1.54752433 3.2596417 -5.6875 3.0625 C-6.3475 2.4025 -7.0075 1.7425 -7.6875 1.0625 C-4.80538698 0.10179566 -2.98899956 -0.04331883 0 0 Z " fill="#444546" transform="translate(393.6875,402.9375)"/>
<path d="M0 0 C0.91007813 0.00902344 1.82015625 0.01804687 2.7578125 0.02734375 C3.45648437 0.03894531 4.15515625 0.05054688 4.875 0.0625 C4.875 0.7225 4.875 1.3825 4.875 2.0625 C2.64609005 3.17695498 1.34444894 3.22730286 -1.125 3.25 C-2.176875 3.27126953 -2.176875 3.27126953 -3.25 3.29296875 C-5.125 3.0625 -5.125 3.0625 -7.125 1.0625 C-4.60024538 -0.19987731 -2.81299534 -0.03606404 0 0 Z " fill="#4A4B4B" transform="translate(615.125,319.9375)"/>
<path d="M0 0 C0.80824219 0.10183594 1.61648438 0.20367187 2.44921875 0.30859375 C3.06410156 0.39238281 3.67898438 0.47617187 4.3125 0.5625 C2.3125 2.5625 2.3125 2.5625 -0.2890625 2.7578125 C-1.28679688 2.73460937 -2.28453125 2.71140625 -3.3125 2.6875 C-4.81683594 2.66042969 -4.81683594 2.66042969 -6.3515625 2.6328125 C-7.12242187 2.60960937 -7.89328125 2.58640625 -8.6875 2.5625 C-6.80760684 -1.19728632 -3.63897564 -0.474649 0 0 Z " fill="#464746" transform="translate(555.6875,428.4375)"/>
<path d="M0 0 C1.8871875 0.0309375 1.8871875 0.0309375 3.8125 0.0625 C3.8125 0.7225 3.8125 1.3825 3.8125 2.0625 C1.28774538 3.32487731 -0.49950466 3.16106404 -3.3125 3.125 C-4.22257812 3.11597656 -5.13265625 3.10695313 -6.0703125 3.09765625 C-6.76898438 3.08605469 -7.46765625 3.07445312 -8.1875 3.0625 C-6.45706736 -0.39836529 -3.47359009 -0.0569441 0 0 Z " fill="#4A4A4A" transform="translate(480.1875,389.9375)"/>
<path d="M0 0 C1.9375 1.5 1.9375 1.5 3 3 C0.69 3.33 -1.62 3.66 -4 4 C-3.67 3.34 -3.34 2.68 -3 2 C-3.9075 2.20625 -4.815 2.4125 -5.75 2.625 C-9.11027897 3.0127245 -10.24075815 2.80411967 -13 1 C-8.60590108 0.14261484 -4.47621945 -0.33782788 0 0 Z " fill="#6B6C69" transform="translate(423,498)"/>
<path d="M0 0 C0.66 0.66 1.32 1.32 2 2 C-1.52994613 3.17664871 -4.29455413 3.19850603 -8 3 C-8.99 2.34 -9.98 1.68 -11 1 C-7.07703567 -0.30765478 -4.13997567 -0.1971417 0 0 Z " fill="#484848" transform="translate(676,459)"/>
<path d="M0 0 C-0.33 1.32 -0.66 2.64 -1 4 C-4.85645121 4.22036864 -7.49223216 3.60355101 -11 2 C-11 1.67 -11 1.34 -11 1 C-7.27569643 0.30710631 -3.78916254 -0.11144596 0 0 Z " fill="#696865" transform="translate(696,455)"/>
<path d="M0 0 C1.8871875 0.0309375 1.8871875 0.0309375 3.8125 0.0625 C3.8125 0.7225 3.8125 1.3825 3.8125 2.0625 C1.40704362 3.26522819 -0.13746953 3.16321472 -2.8125 3.125 C-4.03839844 3.11146484 -4.03839844 3.11146484 -5.2890625 3.09765625 C-6.22878906 3.08025391 -6.22878906 3.08025391 -7.1875 3.0625 C-7.1875 2.4025 -7.1875 1.7425 -7.1875 1.0625 C-4.43671116 0.14557039 -2.82801087 -0.04636083 0 0 Z " fill="#484848" transform="translate(576.1875,325.9375)"/>
<path d="M0 0 C0.33 0.66 0.66 1.32 1 2 C-1.88211302 2.96070434 -3.69850044 3.10581883 -6.6875 3.0625 C-7.89986328 3.04896484 -7.89986328 3.04896484 -9.13671875 3.03515625 C-10.05904297 3.01775391 -10.05904297 3.01775391 -11 3 C-8.89427904 -1.21144191 -4.11694326 -0.07767817 0 0 Z " fill="#434445" transform="translate(510,485)"/>
<path d="M0 0 C-0.99 0.495 -0.99 0.495 -2 1 C-0.35 1.33 1.3 1.66 3 2 C3 2.33 3 2.66 3 3 C-0.3 3.33 -3.6 3.66 -7 4 C-6.67 3.34 -6.34 2.68 -6 2 C-7.32 1.34 -8.64 0.68 -10 0 C-6.33694766 -0.74926071 -3.57644848 -1.2380014 0 0 Z " fill="#777874" transform="translate(631,466)"/>
<path d="M0 0 C0.66 0.66 1.32 1.32 2 2 C-0.52475462 3.26237731 -2.31200466 3.09856404 -5.125 3.0625 C-6.03507812 3.05347656 -6.94515625 3.04445313 -7.8828125 3.03515625 C-8.58148438 3.02355469 -9.28015625 3.01195312 -10 3 C-8.04050742 -0.91898516 -3.88584979 -0.24803297 0 0 Z " fill="#494948" transform="translate(492,438)"/>
<path d="M0 0 C1.22589844 0.01353516 1.22589844 0.01353516 2.4765625 0.02734375 C3.41628906 0.04474609 3.41628906 0.04474609 4.375 0.0625 C4.045 1.0525 3.715 2.0425 3.375 3.0625 C-2.6796875 3.2578125 -2.6796875 3.2578125 -4.625 3.0625 C-5.285 2.4025 -5.945 1.7425 -6.625 1.0625 C-4.21954362 -0.14022819 -2.67503047 -0.03821472 0 0 Z " fill="#4C4C4C" transform="translate(579.625,423.9375)"/>
<path d="M0 0 C-0.99 0 -1.98 0 -3 0 C-3 0.66 -3 1.32 -3 2 C-2.34 2.33 -1.68 2.66 -1 3 C-5.455 3.495 -5.455 3.495 -10 4 C-9.67 3.34 -9.34 2.68 -9 2 C-9.66 1.34 -10.32 0.68 -11 0 C-3.57142857 -1.28571429 -3.57142857 -1.28571429 0 0 Z " fill="#60605D" transform="translate(660,363)"/>
<path d="M0 0 C6.0546875 -0.1953125 6.0546875 -0.1953125 8 0 C8.66 0.66 9.32 1.32 10 2 C7.24921116 2.91692961 5.64051087 3.10886083 2.8125 3.0625 C0.9253125 3.0315625 0.9253125 3.0315625 -1 3 C-0.67 2.01 -0.34 1.02 0 0 Z " fill="#474746" transform="translate(463,491)"/>
<path d="M0 0 C-0.99 0 -1.98 0 -3 0 C-3 0.66 -3 1.32 -3 2 C-2.34 2.33 -1.68 2.66 -1 3 C-3.64 3 -6.28 3 -9 3 C-9 2.34 -9 1.68 -9 1 C-9.66 0.67 -10.32 0.34 -11 0 C-3.57142857 -1.28571429 -3.57142857 -1.28571429 0 0 Z " fill="#676865" transform="translate(648,414)"/>
<path d="M0 0 C3.3125 -0.1875 3.3125 -0.1875 7 0 C7.99 0.99 8.98 1.98 10 3 C7.03 3 4.06 3 1 3 C0.67 2.01 0.34 1.02 0 0 Z " fill="#555555" transform="translate(480,488)"/>
<path d="M0 0 C0.33 0.66 0.66 1.32 1 2 C-1.40545638 3.20272819 -2.94996953 3.10071472 -5.625 3.0625 C-6.85089844 3.04896484 -6.85089844 3.04896484 -8.1015625 3.03515625 C-9.04128906 3.01775391 -9.04128906 3.01775391 -10 3 C-8.0130571 -0.97388579 -3.91761109 -0.08705802 0 0 Z " fill="#494847" transform="translate(605,470)"/>
<path d="M0 0 C0.33 0.66 0.66 1.32 1 2 C-1.75078884 2.91692961 -3.35948913 3.10886083 -6.1875 3.0625 C-8.0746875 3.0315625 -8.0746875 3.0315625 -10 3 C-7.29536552 -0.8183075 -4.37912428 -0.24787496 0 0 Z " fill="#484949" transform="translate(638,465)"/>
<path d="M0 0 C-0.99 0.33 -1.98 0.66 -3 1 C-2.01 1.66 -1.02 2.32 0 3 C-2.64 3.33 -5.28 3.66 -8 4 C-8 3.34 -8 2.68 -8 2 C-8.99 1.34 -9.98 0.68 -11 0 C-3.57142857 -1.28571429 -3.57142857 -1.28571429 0 0 Z " fill="#6D6D69" transform="translate(476,391)"/>
<path d="M0 0 C1.2065625 0.0309375 1.2065625 0.0309375 2.4375 0.0625 C2.1075 1.0525 1.7775 2.0425 1.4375 3.0625 C-1.8625 3.0625 -5.1625 3.0625 -8.5625 3.0625 C-8.5625 2.4025 -8.5625 1.7425 -8.5625 1.0625 C-7.3559375 1.0934375 -7.3559375 1.0934375 -6.125 1.125 C-3.0866539 1.050894 -3.0383461 0.074106 0 0 Z " fill="#474849" transform="translate(426.5625,447.9375)"/>
<path d="M0 0 C4.82360189 -0.19294408 8.49646738 0.24252386 13 2 C13 2.33 13 2.66 13 3 C9.7 3.33 6.4 3.66 3 4 C3 3.34 3 2.68 3 2 C2.01 1.34 1.02 0.68 0 0 Z " fill="#71706C" transform="translate(489,437)"/>
<path d="M0 0 C1.79133978 -0.05391993 3.58313899 -0.09275571 5.375 -0.125 C6.37273437 -0.14820313 7.37046875 -0.17140625 8.3984375 -0.1953125 C11 0 11 0 13 2 C8.05632546 3.20577428 4.79137588 2.6290678 0 1 C0 0.67 0 0.34 0 0 Z " fill="#575858" transform="translate(504,385)"/>
<path d="M0 0 C-0.33 0.99 -0.66 1.98 -1 3 C-3.97 3 -6.94 3 -10 3 C-10 2.34 -10 1.68 -10 1 C-6.52674819 -0.1577506 -3.63932552 -0.06866652 0 0 Z " fill="#444445" transform="translate(561,378)"/>
<path d="M0 0 C2.00720923 0.28674418 4.0085944 0.61866701 6 1 C1.93150591 3.71232939 -0.16476784 3.30699887 -5 3 C-5.66 2.34 -6.32 1.68 -7 1 C-5.5459375 1.0309375 -5.5459375 1.0309375 -4.0625 1.0625 C-1.12534105 1.35618499 -1.12534105 1.35618499 0 0 Z " fill="#464647" transform="translate(616,369)"/>
<path d="M0 0 C-0.33 0.99 -0.66 1.98 -1 3 C-3.97 3 -6.94 3 -10 3 C-8.0130571 -0.97388579 -3.91761109 -0.08705802 0 0 Z " fill="#4C4E4C" transform="translate(639,366)"/>
<path d="M0 0 C4.81938524 -0.23509196 8.46298506 0.54815522 13 2 C13 2.33 13 2.66 13 3 C11.40012764 3.27615058 9.794667 3.52007625 8.1875 3.75 C7.29417969 3.88921875 6.40085937 4.0284375 5.48046875 4.171875 C3 4 3 4 1.17578125 2.015625 C0.78777344 1.35046875 0.39976562 0.6853125 0 0 Z " fill="#70706C" transform="translate(415,349)"/>
<path d="M0 0 C5.41538462 -0.36923077 5.41538462 -0.36923077 8.375 1.5 C8.91125 1.995 9.4475 2.49 10 3 C5.545 3.495 5.545 3.495 1 4 C1.33 3.34 1.66 2.68 2 2 C1.34 1.34 0.68 0.68 0 0 Z " fill="#686765" transform="translate(455,343)"/>
<path d="M0 0 C5.19209404 -0.21192221 9.126739 0.4087311 14 2 C14 2.33 14 2.66 14 3 C10.7 3.33 7.4 3.66 4 4 C4.66 3.67 5.32 3.34 6 3 C6 2.34 6 1.68 6 1 C4.02 1 2.04 1 0 1 C0 0.67 0 0.34 0 0 Z " fill="#7F7E7A" transform="translate(614,319)"/>
<path d="M0 0 C0 0.99 0 1.98 0 3 C-0.99 3 -1.98 3 -3 3 C-3 2.34 -3 1.68 -3 1 C-4.2375 1.37125 -5.475 1.7425 -6.75 2.125 C-10.65289982 3.12148506 -10.65289982 3.12148506 -13.5 2.125 C-13.995 1.75375 -14.49 1.3825 -15 1 C-9.94997778 -0.03590199 -5.12583611 -0.10251672 0 0 Z " fill="#676764" transform="translate(656,314)"/>
<path d="M0 0 C-0.33 0.99 -0.66 1.98 -1 3 C-3.64 3 -6.28 3 -9 3 C-9 2.34 -9 1.68 -9 1 C-5.8035914 -0.06546953 -3.34252724 -0.07427838 0 0 Z " fill="#494B4A" transform="translate(452,494)"/>
<path d="M0 0 C2.00720923 0.28674418 4.0085944 0.61866701 6 1 C1.93150591 3.71232939 -0.16476784 3.30699887 -5 3 C-5.66 2.34 -6.32 1.68 -7 1 C-5.5459375 1.0309375 -5.5459375 1.0309375 -4.0625 1.0625 C-1.12534105 1.35618499 -1.12534105 1.35618499 0 0 Z " fill="#424344" transform="translate(456,443)"/>
<path d="M0 0 C5.19209404 -0.21192221 9.126739 0.4087311 14 2 C14 2.33 14 2.66 14 3 C10.7 3.33 7.4 3.66 4 4 C4.33 3.34 4.66 2.68 5 2 C3.35 1.67 1.7 1.34 0 1 C0 0.67 0 0.34 0 0 Z " fill="#797976" transform="translate(566,425)"/>
<path d="M0 0 C0.33 0.66 0.66 1.32 1 2 C-2.47325181 3.1577506 -5.36067448 3.06866652 -9 3 C-9 2.34 -9 1.68 -9 1 C-5.8035914 -0.06546953 -3.34252724 -0.07427838 0 0 Z " fill="#454645" transform="translate(654,413)"/>
<path d="M0 0 C1.2065625 0.0309375 1.2065625 0.0309375 2.4375 0.0625 C0.72921079 2.16883718 -0.08398416 3.00051608 -2.82421875 3.35546875 C-3.62472656 3.32066406 -4.42523437 3.28585937 -5.25 3.25 C-6.46236328 3.20939453 -6.46236328 3.20939453 -7.69921875 3.16796875 C-8.62154297 3.11576172 -8.62154297 3.11576172 -9.5625 3.0625 C-9.2325 2.4025 -8.9025 1.7425 -8.5625 1.0625 C-7.3559375 1.0934375 -7.3559375 1.0934375 -6.125 1.125 C-3.0866539 1.050894 -3.0383461 0.074106 0 0 Z " fill="#444446" transform="translate(672.5625,409.9375)"/>
<path d="M0 0 C1.8871875 0.0309375 1.8871875 0.0309375 3.8125 0.0625 C2.6875 1.5625 2.6875 1.5625 0.8125 3.0625 C-2.25 3.375 -2.25 3.375 -5.1875 3.0625 C-5.8475 2.4025 -6.5075 1.7425 -7.1875 1.0625 C-4.43671116 0.14557039 -2.82801087 -0.04636083 0 0 Z " fill="#454546" transform="translate(455.1875,343.9375)"/>
<path d="M0 0 C1.2065625 0.0309375 1.2065625 0.0309375 2.4375 0.0625 C2.4375 0.7225 2.4375 1.3825 2.4375 2.0625 C0.20859005 3.17695498 -1.09305106 3.22730286 -3.5625 3.25 C-4.614375 3.27126953 -4.614375 3.27126953 -5.6875 3.29296875 C-7.5625 3.0625 -7.5625 3.0625 -9.5625 1.0625 C-8.1084375 1.0934375 -8.1084375 1.0934375 -6.625 1.125 C-3.22707532 1.0556546 -3.2165483 0.0784524 0 0 Z " fill="#424344" transform="translate(650.5625,314.9375)"/>
<path d="M0 0 C2.97 0.495 2.97 0.495 6 1 C6 1.66 6 2.32 6 3 C2.7 3.33 -0.6 3.66 -4 4 C-3.01 3.67 -2.02 3.34 -1 3 C-0.67 2.01 -0.34 1.02 0 0 Z " fill="#636362" transform="translate(512,484)"/>
<path d="M0 0 C2.31 0 4.62 0 7 0 C7.33 0.66 7.66 1.32 8 2 C3.545 2.495 3.545 2.495 -1 3 C-0.67 2.01 -0.34 1.02 0 0 Z " fill="#474747" transform="translate(567,475)"/>
<path d="M0 0 C-0.66 0 -1.32 0 -2 0 C-2 0.66 -2 1.32 -2 2 C-0.02 2 1.96 2 4 2 C4 2.33 4 2.66 4 3 C1.36 3 -1.28 3 -4 3 C-4 2.34 -4 1.68 -4 1 C-5.98 1 -7.96 1 -10 1 C-10 0.67 -10 0.34 -10 0 C-6.33694766 -0.74926071 -3.57644848 -1.2380014 0 0 Z " fill="#82827D" transform="translate(649,463)"/>
<path d="M0 0 C2.97 0.33 5.94 0.66 9 1 C9 1.66 9 2.32 9 3 C6.36 3.33 3.72 3.66 1 4 C1.33 3.01 1.66 2.02 2 1 C1.34 0.67 0.68 0.34 0 0 Z " fill="#595A59" transform="translate(659,460)"/>
<path d="M0 0 C-0.99 0.33 -1.98 0.66 -3 1 C-2.01 1.66 -1.02 2.32 0 3 C-2.31 3.33 -4.62 3.66 -7 4 C-6.67 3.34 -6.34 2.68 -6 2 C-7.32 1.34 -8.64 0.68 -10 0 C-6.33694766 -0.74926071 -3.57644848 -1.2380014 0 0 Z " fill="#7D7C77" transform="translate(486,439)"/>
<path d="M0 0 C5.06562383 -0.25328119 9.15758367 0.66416101 14 2 C14 2.33 14 2.66 14 3 C10.7 3.33 7.4 3.66 4 4 C4 3.34 4 2.68 4 2 C2.68 1.34 1.36 0.68 0 0 Z " fill="#7B7B77" transform="translate(508,434)"/>
<path d="M0 0 C-2 2 -2 2 -4.1640625 2.1953125 C-5.38222656 2.16050781 -5.38222656 2.16050781 -6.625 2.125 C-7.44226563 2.10695313 -8.25953125 2.08890625 -9.1015625 2.0703125 C-9.72804688 2.04710937 -10.35453125 2.02390625 -11 2 C-11 1.34 -11 0.68 -11 0 C-7.01803543 -1.05404945 -4.01804691 -0.84098656 0 0 Z " fill="#444444" transform="translate(514,436)"/>
<path d="M0 0 C5.21979128 -0.1799928 9.07262981 0.02905192 14 2 C14 2.33 14 2.66 14 3 C10.7 3.33 7.4 3.66 4 4 C4.66 3.34 5.32 2.68 6 2 C3.03 1.505 3.03 1.505 0 1 C0 0.67 0 0.34 0 0 Z " fill="#797975" transform="translate(392,402)"/>
<path d="M0 0 C4.81938524 -0.23509196 8.46298506 0.54815522 13 2 C13 2.33 13 2.66 13 3 C9.7 3.33 6.4 3.66 3 4 C3.66 3.67 4.32 3.34 5 3 C5 2.34 5 1.68 5 1 C3.35 1 1.7 1 0 1 C0 0.67 0 0.34 0 0 Z " fill="#868580" transform="translate(537,479)"/>
<path d="M0 0 C0.80824219 0.11085938 1.61648438 0.22171875 2.44921875 0.3359375 C3.37154297 0.47902344 3.37154297 0.47902344 4.3125 0.625 C4.3125 0.955 4.3125 1.285 4.3125 1.625 C2.0025 1.295 -0.3075 0.965 -2.6875 0.625 C-2.6875 1.285 -2.6875 1.945 -2.6875 2.625 C-4.3375 2.295 -5.9875 1.965 -7.6875 1.625 C-4.33422361 -0.61051759 -3.78006343 -0.54783528 0 0 Z " fill="#414142" transform="translate(600.6875,421.375)"/>
<path d="M0 0 C5.19209404 -0.21192221 9.126739 0.4087311 14 2 C14 2.33 14 2.66 14 3 C8.78020872 3.1799928 4.92737019 2.97094808 0 1 C0 0.67 0 0.34 0 0 Z " fill="#6D6D6B" transform="translate(432,396)"/>
<path d="M0 0 C4.81938524 -0.23509196 8.46298506 0.54815522 13 2 C13 2.33 13 2.66 13 3 C9.7 3.33 6.4 3.66 3 4 C3.66 3.67 4.32 3.34 5 3 C5 2.34 5 1.68 5 1 C3.35 1 1.7 1 0 1 C0 0.67 0 0.34 0 0 Z " fill="#7E7D78" transform="translate(479,389)"/>
<path d="M0 0 C-0.99 0.495 -0.99 0.495 -2 1 C-1.34 1.66 -0.68 2.32 0 3 C-3.71888239 2.49287967 -6.73454239 1.88391785 -10 0 C-6.33694766 -0.74926071 -3.57644848 -1.2380014 0 0 Z " fill="#6D6D6A" transform="translate(596,422)"/>
<path d="M0 0 C0.9075 0.226875 1.815 0.45375 2.75 0.6875 C0.75 2.6875 0.75 2.6875 -1.1953125 2.8828125 C-3.21354167 2.81770833 -5.23177083 2.75260417 -7.25 2.6875 C-4.61280971 0.1517401 -3.74095095 -0.35970682 0 0 Z " fill="#484949" transform="translate(435.25,397.3125)"/>
<path d="M0 0 C3.3 0 6.6 0 10 0 C9.67 0.99 9.34 1.98 9 3 C4.545 2.01 4.545 2.01 0 1 C0 0.67 0 0.34 0 0 Z " fill="#575755" transform="translate(459,392)"/>
</svg>
