<?xml version="1.0" encoding="UTF-8"?>
<svg version="1.1" xmlns="http://www.w3.org/2000/svg" width="1024" height="1024">
<path d="M0 0 C337.92 0 675.84 0 1024 0 C1024 337.92 1024 675.84 1024 1024 C686.08 1024 348.16 1024 0 1024 C0 686.08 0 348.16 0 0 Z " fill="#FDFAF6" transform="translate(0,0)"/>
<path d="M0 0 C0.74007797 0.2416539 1.48015594 0.4833078 2.24266052 0.73228455 C4.64835506 1.52093426 7.04874357 2.32452397 9.44921875 3.12890625 C11.13486866 3.68573258 12.8207435 4.24187838 14.50683594 4.79736328 C25.72946201 8.5060118 36.91320858 12.32536872 48.0703125 16.2265625 C72.82238161 24.87872208 97.65554648 33.27620005 122.61985779 41.29548645 C149.43600996 49.91515123 149.43600996 49.91515123 156.1953125 52.71875 C163.36356334 55.68825661 170.81260409 57.89839779 178.19921875 60.25390625 C179.71560336 60.73989575 181.23188014 61.22622184 182.74804688 61.71289062 C183.48468567 61.94932785 184.22132446 62.18576508 184.98028564 62.42936707 C185.70351013 62.66150406 186.42673462 62.89364105 187.171875 63.1328125 C188.23834259 63.47479424 188.23834259 63.47479424 189.32635498 63.82368469 C196.70594897 66.19134343 204.02418161 68.60319146 211.26171875 71.37890625 C224.75799377 76.50217089 238.436052 81.14714436 252.13671875 85.69140625 C254.73838639 86.55827974 257.33994212 87.42548503 259.94140625 88.29296875 C261.41487126 88.78411344 262.88834145 89.27524259 264.36181641 89.76635742 C267.51001401 90.81574271 270.65811445 91.8654189 273.80615234 92.9152832 C280.68909806 95.2105094 287.57210641 97.50549915 294.45858765 99.7901001 C296.37503881 100.42588677 298.29128248 101.06229878 300.20751953 101.69873047 C302.53361135 102.47111183 304.86009401 103.24231737 307.18701172 104.01220703 C308.21455566 104.35364746 309.24209961 104.69508789 310.30078125 105.046875 C311.1923291 105.34231201 312.08387695 105.63774902 313.00244141 105.94213867 C315.13671875 106.69140625 315.13671875 106.69140625 317.13671875 107.69140625 C317.13671875 109.67140625 317.13671875 111.65140625 317.13671875 113.69140625 C100.65671875 113.69140625 -115.82328125 113.69140625 -338.86328125 113.69140625 C-338.86328125 111.71140625 -338.86328125 109.73140625 -338.86328125 107.69140625 C-328.26872214 103.07719695 -317.1514554 99.83793695 -306.15820312 96.32763672 C-303.51729499 95.48302628 -300.87777557 94.63417274 -298.23828125 93.78515625 C-297.44631348 93.53399048 -296.6543457 93.28282471 -295.83837891 93.02404785 C-291.87860862 91.74989931 -288.00348336 90.37279678 -284.15234375 88.79907227 C-277.81553271 86.22202801 -271.34333065 84.05963664 -264.86328125 81.875 C-263.51157975 81.41721289 -262.15994243 80.95923625 -260.80836487 80.50108337 C-257.23013284 79.28910638 -253.6506319 78.08092104 -250.07078934 76.87371063 C-247.85732725 76.12689739 -245.644282 75.37886174 -243.43136597 74.63043213 C-225.50782144 68.56919737 -207.57906997 62.52716191 -189.53320312 56.83764648 C-188.36466797 56.46712158 -187.19613281 56.09659668 -185.9921875 55.71484375 C-185.0338501 55.41497559 -184.0755127 55.11510742 -183.08813477 54.80615234 C-180.4011558 53.87733518 -177.79404856 52.86787654 -175.16235352 51.79711914 C-169.82503995 49.63996387 -164.41330495 47.78412124 -158.94921875 45.9765625 C-157.93590485 45.63894394 -156.92259094 45.30132538 -155.87857056 44.95347595 C-153.74618154 44.24368037 -151.61331043 43.53533162 -149.47998047 42.82836914 C-146.26675675 41.76334447 -143.05513825 40.69359168 -139.84375 39.62304688 C-129.60129349 36.21521907 -119.35128597 32.85539313 -109.02514648 29.70922852 C-105.33409177 28.52105717 -101.79238724 27.08634176 -98.21875 25.58984375 C-94.84763967 24.30401394 -91.39939952 23.44059925 -87.89453125 22.59765625 C-85.33963717 21.83382194 -82.99817565 20.9497759 -80.53979492 19.93261719 C-74.11379385 17.34481562 -67.57202054 15.13440357 -61.0078125 12.92578125 C-60.04174356 12.60030682 -60.04174356 12.60030682 -59.05615807 12.26825714 C-55.65810306 11.12372933 -52.25888056 9.98275185 -48.85864258 8.84472656 C-45.36562998 7.67484051 -41.87699772 6.49240982 -38.38916492 5.30718613 C-35.68479451 4.39077767 -32.97733174 3.48379005 -30.26895714 2.5792923 C-28.35963539 1.93896885 -26.45367587 1.28864762 -24.54780579 0.63812256 C-23.3793663 0.25061829 -22.21092682 -0.13688599 -21.00708008 -0.53613281 C-19.98689285 -0.87936584 -18.96670563 -1.22259888 -17.91560364 -1.57623291 C-11.483908 -3.11942574 -6.14192002 -2.08011899 0 0 Z " fill="#FDFAF6" transform="translate(522.86328125,214.30859375)"/>
<path d="M0 0 C201.3 0 402.6 0 610 0 C610 3.3 610 6.6 610 10 C607.69 10 605.38 10 603 10 C603 65.77 603 121.54 603 179 C599.7 179 596.4 179 593 179 C593 123.23 593 67.46 593 10 C582.11 10 571.22 10 560 10 C560 65.77 560 121.54 560 179 C556.7 179 553.4 179 550 179 C549.96132812 177.5459375 549.96132812 177.5459375 549.921875 176.0625 C548.75108995 144.78243485 533.23981357 119.28544759 511.0234375 97.83984375 C487.62173754 76.56146406 458.36436763 59.03702903 428.30078125 49.1328125 C425.58101117 48.19940028 422.96401493 47.174188 420.30859375 46.078125 C401.16715101 38.36283292 380.26276692 34.45025729 360 31 C358.9476416 30.81920898 357.8952832 30.63841797 356.81103516 30.45214844 C339.60058172 27.67261462 322.26301157 27.69365097 304.875 27.625 C303.7413501 27.6169635 302.6077002 27.608927 301.43969727 27.60064697 C235.15088282 27.24462929 167.49731783 46.15197149 114 86 C112.57300781 87.05574219 112.57300781 87.05574219 111.1171875 88.1328125 C97.26759974 98.93294975 84.15352436 111.94592709 75 127 C74.63729004 127.59345215 74.27458008 128.1869043 73.90087891 128.79833984 C68.33193921 138.10462388 64.90251662 147.58582019 62 158 C61.67 158.99 61.34 159.98 61 161 C60.85507877 162.40664926 60.75371069 163.8181133 60.68359375 165.23046875 C60.62075195 166.43413086 60.62075195 166.43413086 60.55664062 167.66210938 C60.51732422 168.49548828 60.47800781 169.32886719 60.4375 170.1875 C60.37272461 171.4549707 60.37272461 171.4549707 60.30664062 172.74804688 C60.20068482 174.83184433 60.0998498 176.91590103 60 179 C56.7 179 53.4 179 50 179 C50 123.23 50 67.46 50 10 C39.11 10 28.22 10 17 10 C17 65.77 17 121.54 17 179 C13.7 179 10.4 179 7 179 C7 123.23 7 67.46 7 10 C4.69 10 2.38 10 0 10 C0 6.7 0 3.4 0 0 Z " fill="#515964" transform="translate(207,340)"/>
<path d="M0 0 C0.99 0.33 1.98 0.66 3 1 C4.10212346 3.4210581 5.01609992 5.74329696 5.875 8.25 C6.39467227 9.71655777 6.91552244 11.18269865 7.4375 12.6484375 C7.69660156 13.38288086 7.95570313 14.11732422 8.22265625 14.87402344 C9.33565561 17.91799278 10.62001417 20.88727805 11.875 23.875 C13.93755822 29.2791704 15.32673955 34.24734025 14 40 C12.57723364 42.61014857 11.25269724 43.96184536 9 46 C8.34 46 7.68 46 7 46 C7 49.3 7 52.6 7 56 C8.45277344 55.95101562 9.90554688 55.90203125 11.40234375 55.8515625 C18.7813698 55.85392492 25.95318545 56.93564639 33.23413086 58.02636719 C35.56056666 58.37471052 37.88842161 58.71176534 40.21679688 59.046875 C47.18095107 60.05991297 54.11190947 61.14238187 61.00170898 62.58886719 C63.73739503 63.15171328 66.48353399 63.55729198 69.25 63.9375 C70.42304687 64.10121094 71.59609375 64.26492188 72.8046875 64.43359375 C76.037694 64.87387714 79.2726182 65.29877616 82.5078125 65.72265625 C83.95945801 65.91516968 83.95945801 65.91516968 85.44042969 66.11157227 C87.35459487 66.36493639 89.26929342 66.61431227 91.18457031 66.85913086 C95.81322307 67.47248148 100.19527933 68.30112627 104.71337891 69.50488281 C110.0639111 70.66342213 115.56117126 71.0621645 121 71.625 C122.25167969 71.7590625 123.50335937 71.893125 124.79296875 72.03125 C127.86148319 72.35918284 130.93044769 72.68195461 134 73 C134.28746094 72.37609375 134.57492187 71.7521875 134.87109375 71.109375 C136.47194367 68.11816753 137.8746235 67.32994745 141 66 C147.49481849 64.98861176 151.71529523 66.19501256 157 70 C160.45808434 73.78934943 160.45254327 76.64154499 160.28515625 81.59765625 C159.74106842 86.18140985 157.77601902 88.29969015 154.4375 91.3125 C152 93 152 93 150 93 C150.42744507 94.01924561 150.42744507 94.01924561 150.86352539 95.05908203 C158.83382399 114.10265601 166.49883511 133.25635491 174.04275513 152.47238159 C177.49063911 161.25465375 180.95638201 170.02985615 184.42245483 178.80496216 C186.030937 182.87754944 187.63849386 186.95050189 189.24609375 191.0234375 C189.78441921 192.38720886 190.32274877 193.75097859 190.86108398 195.11474609 C191.42484741 196.54294678 191.42484741 196.54294678 192 198 C196.62 198.33 201.24 198.66 206 199 C205.06208689 203.68956557 204.37585261 205.31574803 201.6875 209 C201.09324219 209.825 200.49898437 210.65 199.88671875 211.5 C199.26410156 212.325 198.64148438 213.15 198 214 C197.38511719 214.8353125 196.77023437 215.670625 196.13671875 216.53125 C185.55329529 228.75926394 168.4710022 233.83100955 153 236 C133.64664343 237.29970076 114.16509836 234.01069376 98.765625 221.640625 C93.08506635 216.21681476 86.96773005 209.35550298 84 202 C84 201.01 84 200.02 84 199 C88.62 199 93.24 199 98 199 C98.61331177 196.85552368 98.61331177 196.85552368 99.23901367 194.66772461 C100.916772 189.08407972 102.98593658 183.71619886 105.17578125 178.31640625 C105.57785797 177.31472916 105.97993469 176.31305206 106.39419556 175.28102112 C107.69624447 172.03986711 109.00431283 168.80118074 110.3125 165.5625 C111.215353 163.31836871 112.11777478 161.07406388 113.01977539 158.82958984 C114.82609189 154.33599571 116.63444996 149.84323178 118.44433594 145.35107422 C120.72516742 139.68711229 122.99502058 134.01884639 125.2578125 128.34765625 C125.5774144 127.54685135 125.8970163 126.74604645 126.2263031 125.92097473 C127.41159601 122.95058748 128.59661964 119.98009326 129.78091431 117.00930786 C133.11731812 108.64315584 136.50728766 100.30233313 140 92 C139.37609375 91.71125 138.7521875 91.4225 138.109375 91.125 C135.60009737 89.7867186 134.49679175 88.3948668 133 86 C133 85.34 133 84.68 133 84 C125.29609745 84.10909341 117.59225999 84.22199366 109.88847923 84.33933926 C106.30865098 84.39375716 102.72881448 84.44701643 99.14892578 84.49731445 C84.88161831 84.69851432 70.63077562 84.94109308 56.37823486 85.66622925 C48.28894915 86.06710547 40.22249833 86.11492404 32.125 86.0625 C30.73177252 86.05745207 29.33854318 86.05289524 27.9453125 86.04882812 C24.63015679 86.03731717 21.3151062 86.02107196 18 86 C18 89.63 18 93.26 18 97 C15.03 97 12.06 97 9 97 C9.13912471 101.39607256 9.28746803 105.79178723 9.4375 110.1875 C9.47681641 111.43337891 9.51613281 112.67925781 9.55664062 113.96289062 C9.61948242 115.7659668 9.61948242 115.7659668 9.68359375 117.60546875 C9.72025146 118.71043701 9.75690918 119.81540527 9.79467773 120.95385742 C9.98236408 123.73835504 10.44882939 126.270982 11 129 C11.20074706 131.30196935 11.36321892 133.60740839 11.5 135.9140625 C11.54028824 136.58914856 11.58057648 137.26423462 11.62208557 137.95977783 C11.7525426 140.18128541 11.87672484 142.40308302 12 144.625 C12.04357635 145.38911194 12.08715271 146.15322388 12.13204956 146.94049072 C12.89189619 160.3498968 13.36412136 173.7587393 13.65820312 187.18603516 C13.82217096 194.39506977 14.15819563 201.54928326 14.76147461 208.73535156 C15.29781523 216.07613644 15.40454221 223.44268424 15.60546875 230.79882812 C15.66154297 232.64444336 15.66154297 232.64444336 15.71875 234.52734375 C15.74904297 235.62812256 15.77933594 236.72890137 15.81054688 237.86303711 C15.9983643 240.97291609 16.4649156 243.93334469 17 247 C17.1324834 248.50567936 17.23983457 250.01388161 17.31640625 251.5234375 C17.37924805 252.71259766 17.37924805 252.71259766 17.44335938 253.92578125 C17.48267578 254.73402344 17.52199219 255.54226563 17.5625 256.375 C17.62727539 257.62216797 17.62727539 257.62216797 17.69335938 258.89453125 C17.79861805 260.92953228 17.89973072 262.96474703 18 265 C18.75953979 265.37584229 18.75953979 265.37584229 19.53442383 265.75927734 C31.39112735 271.63500074 43.16706605 277.6399528 54.84619141 283.86132812 C56.90408697 284.94929286 58.97121249 286.01684386 61.04296875 287.078125 C62.23698556 287.69790435 63.43099641 288.31769518 64.625 288.9375 C65.64851563 289.46214844 66.67203125 289.98679687 67.7265625 290.52734375 C70 292 70 292 71 295 C24.8 295 -21.4 295 -69 295 C-69 294.01 -69 293.02 -69 292 C-68.5107756 291.75023407 -68.02155121 291.50046814 -67.51750183 291.24313354 C-62.37312643 288.61637542 -57.22984365 285.987487 -52.0871582 283.35742188 C-50.17401977 282.37934858 -48.26061392 281.40179817 -46.34692383 280.42480469 C-43.57821299 279.01117942 -40.81031479 277.59598256 -38.04296875 276.1796875 C-37.15302216 275.7243866 -36.26307556 275.26908569 -35.34616089 274.79998779 C-29.78810167 271.94649574 -24.28799984 269.01936581 -18.85668945 265.93017578 C-17 265 -17 265 -15 265 C-15.02284058 263.54315796 -15.02284058 263.54315796 -15.04614258 262.05688477 C-15.16317511 250.9978649 -14.61827477 240.03999567 -13.88937378 229.00790405 C-12.49139862 207.74536752 -11.40703729 186.47285168 -10.4375 165.1875 C-10.37467267 163.81094276 -10.31182687 162.43438636 -10.2489624 161.05783081 C-10.2180356 160.38057858 -10.1871088 159.70332636 -10.15524483 159.00555134 C-10.00211602 155.65343212 -9.8487725 152.30132283 -9.6953125 148.94921875 C-9.63628754 147.658983 -9.57726257 146.36874725 -9.51644897 145.03941345 C-8.77831514 129.02088323 -7.91439793 113.00935128 -7 97 C-8.299375 97.020625 -9.59875 97.04125 -10.9375 97.0625 C-12.29165633 97.08399454 -13.64756083 97.07148199 -15 97 C-16 96 -16 96 -16.09765625 93.71484375 C-16.08025391 92.34005859 -16.08025391 92.34005859 -16.0625 90.9375 C-16.05347656 90.01839844 -16.04445313 89.09929687 -16.03515625 88.15234375 C-16.01775391 87.08693359 -16.01775391 87.08693359 -16 86 C-16.67015137 86.00523682 -17.34030273 86.01047363 -18.03076172 86.01586914 C-32.52245158 86.11228513 -46.9733577 85.97320309 -61.45837402 85.49591064 C-76.51130577 85.00320947 -91.56666999 84.71224082 -106.625 84.4375 C-107.83493622 84.41535431 -109.04487244 84.39320862 -110.29147339 84.37039185 C-117.19427313 84.24449582 -124.09711107 84.1209054 -131 84 C-131.2990625 84.78761719 -131.598125 85.57523437 -131.90625 86.38671875 C-132.98329693 88.96009159 -133.83396884 90.28522533 -136 92 C-136.66 92 -137.32 92 -138 92 C-137.69819824 92.73935791 -137.39639648 93.47871582 -137.08544922 94.24047852 C-123.06359859 128.60016014 -123.06359859 128.60016014 -118.7734375 139.8203125 C-115.60124786 148.08119848 -112.29910749 156.28916158 -109 164.5 C-106.92971086 169.65254797 -104.86358921 174.80666627 -102.81103516 179.96630859 C-102.27930181 181.29964357 -101.74520405 182.63203858 -101.20849609 183.96337891 C-100.48683724 185.75429949 -99.77441096 187.54893223 -99.0625 189.34375 C-98.66160156 190.34599609 -98.26070313 191.34824219 -97.84765625 192.38085938 C-97 195 -97 195 -97 199 C-92.05 199 -87.1 199 -82 199 C-82.93791311 203.68956557 -83.62414739 205.31574803 -86.3125 209 C-86.90675781 209.825 -87.50101562 210.65 -88.11328125 211.5 C-88.73589844 212.325 -89.35851562 213.15 -90 214 C-90.92619141 215.25490234 -90.92619141 215.25490234 -91.87109375 216.53515625 C-102.14335736 228.42836421 -119.67989434 234.79101509 -135 236 C-154.75303028 237.27054667 -174.75725345 233.42871122 -190.5 220.6875 C-195.84962969 215.52807936 -201.12396726 208.89957349 -204 202 C-204 201.01 -204 200.02 -204 199 C-199.05 199 -194.1 199 -189 199 C-188.67 197.35 -188.34 195.7 -188 194 C-185.5309652 185.75159381 -182.40992676 177.75687067 -179.18359375 169.78125 C-178.73015594 168.65178452 -178.27671814 167.52231903 -177.80953979 166.35862732 C-176.35532156 162.73781823 -174.8964524 159.11890376 -173.4375 155.5 C-171.4481756 150.55432795 -169.46269954 145.60710889 -167.4765625 140.66015625 C-166.75407066 138.86198204 -166.75407066 138.86198204 -166.01698303 137.02748108 C-161.96710636 126.9400783 -157.97584012 116.83097289 -154.05834961 106.69140625 C-152.23514092 102.00034807 -150.3619541 97.44647232 -148 93 C-148.59296875 92.89429688 -149.1859375 92.78859375 -149.796875 92.6796875 C-153.81981943 91.43856635 -156.02583651 88.62458957 -158 85 C-158.92663129 80.52236208 -159.10746898 76.18887986 -157.00390625 72.03125 C-154.18162848 68.44405582 -151.13135175 66.37129076 -146.66796875 65.59375 C-139.94629829 65.33970261 -139.94629829 65.33970261 -137.07421875 67.34375 C-135.375 69 -135.375 69 -133.9609375 70.6875 C-129.12214459 73.92621398 -120.78601954 71.6949538 -115.26171875 70.86328125 C-114.43555054 70.74368546 -113.60938232 70.62408966 -112.75817871 70.50086975 C-110.06713821 70.11011193 -107.37733702 69.71145068 -104.6875 69.3125 C-102.80712443 69.03739699 -100.92667087 68.76282663 -99.04614258 68.48876953 C-96.17213343 68.06976492 -93.29820793 67.65024594 -90.42460632 67.22845459 C-84.34885382 66.33734293 -78.27016332 65.47148066 -72.1875 64.62890625 C-58.88964816 62.78124852 -45.65132778 60.87778898 -32.47998047 58.24658203 C-23.27277114 56.41818643 -14.37929385 55.86406821 -5 56 C-5 52.7 -5 49.4 -5 46 C-6.32 45.34 -7.64 44.68 -9 44 C-11.82284029 41.47960689 -12.00043537 39.99521094 -12.34765625 36.17578125 C-12.2517926 29.64720434 -9.89757111 23.82169924 -7.6875 17.75 C-7.08131836 16.01363281 -7.08131836 16.01363281 -6.46289062 14.2421875 C-4.66240929 9.17156365 -2.90036752 4.55511448 0 0 Z " fill="#B68B42" transform="translate(511,401)"/>
<path d="M0 0 C161.7 0 323.4 0 490 0 C490 39.6 490 79.2 490 120 C487.17295973 117.17295973 485.7626518 114.96525452 483.875 111.5 C480.19101786 105.07624963 475.86361964 99.5654171 471 94 C470.23171875 93.12085938 469.4634375 92.24171875 468.671875 91.3359375 C466.47571549 88.86339056 464.24879507 86.42467848 462 84 C461.46246094 83.40832031 460.92492187 82.81664062 460.37109375 82.20703125 C443.66795593 64.58291842 420.88764476 51.37658826 399.13525391 41.01806641 C397.70713281 40.33715342 396.28231645 39.64926718 394.86083984 38.95458984 C373.13054432 28.37250205 349.68752853 20.24135933 325.9597168 15.61279297 C323.63366289 15.13119639 321.32913963 14.61214411 319.01879883 14.06298828 C308.20118782 11.51243605 297.49681748 9.82153954 286.4375 8.75 C285.59381866 8.6659491 284.75013733 8.58189819 283.88088989 8.49530029 C256.4916929 5.82466144 228.32541354 5.42852051 201 9 C199.93716797 9.13422363 198.87433594 9.26844727 197.77929688 9.40673828 C175.56572974 12.27065192 154.31661682 17.19494071 133 24 C132.12714355 24.27118652 131.25428711 24.54237305 130.35498047 24.82177734 C93.29435342 36.42540276 57.0206525 55.94073539 29.46875 83.53515625 C27.97844429 85.02310388 26.47021504 86.49379957 24.9296875 87.9296875 C15.67974458 96.68723802 8.25529709 107.26298349 2.0234375 118.33984375 C1.68570312 118.88769531 1.34796875 119.43554688 1 120 C0.67 120 0.34 120 0 120 C0 80.4 0 40.8 0 0 Z " fill="#FBF8F5" transform="translate(267,350)"/>
<path d="M0 0 C0.74007797 0.2416539 1.48015594 0.4833078 2.24266052 0.73228455 C4.64835506 1.52093426 7.04874357 2.32452397 9.44921875 3.12890625 C11.13486866 3.68573258 12.8207435 4.24187838 14.50683594 4.79736328 C25.72946201 8.5060118 36.91320858 12.32536872 48.0703125 16.2265625 C72.82238161 24.87872208 97.65554648 33.27620005 122.61985779 41.29548645 C149.43600996 49.91515123 149.43600996 49.91515123 156.1953125 52.71875 C163.36356334 55.68825661 170.81260409 57.89839779 178.19921875 60.25390625 C179.71560336 60.73989575 181.23188014 61.22622184 182.74804688 61.71289062 C183.48468567 61.94932785 184.22132446 62.18576508 184.98028564 62.42936707 C185.70351013 62.66150406 186.42673462 62.89364105 187.171875 63.1328125 C188.23834259 63.47479424 188.23834259 63.47479424 189.32635498 63.82368469 C196.70594897 66.19134343 204.02418161 68.60319146 211.26171875 71.37890625 C224.75799377 76.50217089 238.436052 81.14714436 252.13671875 85.69140625 C254.73838639 86.55827974 257.33994212 87.42548503 259.94140625 88.29296875 C261.41487126 88.78411344 262.88834145 89.27524259 264.36181641 89.76635742 C267.51001401 90.81574271 270.65811445 91.8654189 273.80615234 92.9152832 C280.68909806 95.2105094 287.57210641 97.50549915 294.45858765 99.7901001 C296.37503881 100.42588677 298.29128248 101.06229878 300.20751953 101.69873047 C302.53361135 102.47111183 304.86009401 103.24231737 307.18701172 104.01220703 C308.21455566 104.35364746 309.24209961 104.69508789 310.30078125 105.046875 C311.1923291 105.34231201 312.08387695 105.63774902 313.00244141 105.94213867 C315.13671875 106.69140625 315.13671875 106.69140625 317.13671875 107.69140625 C317.13671875 109.67140625 317.13671875 111.65140625 317.13671875 113.69140625 C100.65671875 113.69140625 -115.82328125 113.69140625 -338.86328125 113.69140625 C-338.86328125 111.71140625 -338.86328125 109.73140625 -338.86328125 107.69140625 C-328.26872214 103.07719695 -317.1514554 99.83793695 -306.15820312 96.32763672 C-303.51729499 95.48302628 -300.87777557 94.63417274 -298.23828125 93.78515625 C-297.44631348 93.53399048 -296.6543457 93.28282471 -295.83837891 93.02404785 C-291.87860862 91.74989931 -288.00348336 90.37279678 -284.15234375 88.79907227 C-277.81553271 86.22202801 -271.34333065 84.05963664 -264.86328125 81.875 C-263.51157975 81.41721289 -262.15994243 80.95923625 -260.80836487 80.50108337 C-257.23013284 79.28910638 -253.6506319 78.08092104 -250.07078934 76.87371063 C-247.85732725 76.12689739 -245.644282 75.37886174 -243.43136597 74.63043213 C-225.50782144 68.56919737 -207.57906997 62.52716191 -189.53320312 56.83764648 C-188.36466797 56.46712158 -187.19613281 56.09659668 -185.9921875 55.71484375 C-185.0338501 55.41497559 -184.0755127 55.11510742 -183.08813477 54.80615234 C-180.4011558 53.87733518 -177.79404856 52.86787654 -175.16235352 51.79711914 C-169.82503995 49.63996387 -164.41330495 47.78412124 -158.94921875 45.9765625 C-157.93590485 45.63894394 -156.92259094 45.30132538 -155.87857056 44.95347595 C-153.74618154 44.24368037 -151.61331043 43.53533162 -149.47998047 42.82836914 C-146.26675675 41.76334447 -143.05513825 40.69359168 -139.84375 39.62304688 C-129.60129349 36.21521907 -119.35128597 32.85539313 -109.02514648 29.70922852 C-105.33409177 28.52105717 -101.79238724 27.08634176 -98.21875 25.58984375 C-94.84763967 24.30401394 -91.39939952 23.44059925 -87.89453125 22.59765625 C-85.33963717 21.83382194 -82.99817565 20.9497759 -80.53979492 19.93261719 C-74.11379385 17.34481562 -67.57202054 15.13440357 -61.0078125 12.92578125 C-60.04174356 12.60030682 -60.04174356 12.60030682 -59.05615807 12.26825714 C-55.65810306 11.12372933 -52.25888056 9.98275185 -48.85864258 8.84472656 C-45.36562998 7.67484051 -41.87699772 6.49240982 -38.38916492 5.30718613 C-35.68479451 4.39077767 -32.97733174 3.48379005 -30.26895714 2.5792923 C-28.35963539 1.93896885 -26.45367587 1.28864762 -24.54780579 0.63812256 C-23.3793663 0.25061829 -22.21092682 -0.13688599 -21.00708008 -0.53613281 C-19.98689285 -0.87936584 -18.96670563 -1.22259888 -17.91560364 -1.57623291 C-11.483908 -3.11942574 -6.14192002 -2.08011899 0 0 Z M-26.86328125 12.50390625 C-28.425625 13.03854492 -28.425625 13.03854492 -30.01953125 13.58398438 C-34.34874467 15.07351803 -38.65861813 16.59945006 -42.93359375 18.23828125 C-48.71425673 20.43251587 -54.64896092 22.17554457 -60.5546875 23.99804688 C-64.90942494 25.3615595 -69.18134802 26.77943599 -73.39453125 28.53515625 C-80.41276614 31.40863911 -87.66206529 33.61056671 -94.88049316 35.91921997 C-108.3392743 40.22703164 -121.76272009 44.62129605 -135.11328125 49.25390625 C-146.7541883 53.29132894 -158.4214344 57.24128458 -170.11328125 61.12890625 C-170.87000122 61.38052521 -171.62672119 61.63214417 -172.40637207 61.89138794 C-175.94722934 63.06833217 -179.48847654 64.24409568 -183.0300293 65.41894531 C-187.49442136 66.90020408 -191.95650829 68.38835321 -196.41821289 69.87768555 C-197.93848014 70.3836317 -199.45964593 70.88689623 -200.98217773 71.38598633 C-205.8292233 72.98031136 -210.64052106 74.66906529 -215.44921875 76.375 C-224.22569554 79.47974173 -233.02385781 82.51921706 -241.83178711 85.53344727 C-244.32407853 86.38688395 -246.81536097 87.24322439 -249.30664062 88.09960938 C-263.76936254 93.05882373 -263.76936254 93.05882373 -270.89501953 95.11669922 C-278.33272182 97.28841234 -285.59623626 100.0155037 -292.86328125 102.69140625 C-292.86328125 103.02140625 -292.86328125 103.35140625 -292.86328125 103.69140625 C-106.41328125 103.69140625 80.03671875 103.69140625 272.13671875 103.69140625 C272.13671875 103.36140625 272.13671875 103.03140625 272.13671875 102.69140625 C271.01394531 102.36527344 269.89117188 102.03914063 268.734375 101.703125 C260.18075313 99.2097925 251.67022249 96.6908279 243.28808594 93.66210938 C236.66984522 91.27082572 230.03202671 88.96444187 223.3515625 86.75390625 C222.59523026 86.50362671 221.83889801 86.25334717 221.05964661 85.9954834 C217.95030908 84.96819659 214.84025773 83.94311047 211.72924805 82.92089844 C196.91610466 78.04870375 196.91610466 78.04870375 189.875 75.26171875 C180.53116887 71.59482745 170.93729653 68.64136013 161.38671875 65.56640625 C158.49926362 64.63295545 155.61213234 63.69850828 152.72503662 62.76394653 C150.94330019 62.18759973 149.16129602 61.61207967 147.37896729 61.03756714 C139.91309753 58.62946808 132.4662567 56.178716 125.07421875 53.55200195 C115.30101127 50.08535533 105.47615847 46.77673634 95.63671875 43.50390625 C94.91628387 43.26424133 94.195849 43.02457642 93.45358276 42.77764893 C89.35413378 41.41429994 85.25427558 40.05218474 81.15429688 38.69042969 C70.61073574 35.18829174 60.06843928 31.68235672 49.52735901 28.17275906 C45.46114327 26.8190187 41.39444572 25.46673881 37.3273735 24.11557388 C34.14362416 23.05743544 30.96054053 21.99729953 27.77734375 20.9375 C26.62039001 20.55357086 25.46343628 20.16964172 24.27142334 19.77407837 C18.51283423 17.85467331 12.8092156 15.85130593 7.13671875 13.69140625 C4.57888644 12.8964998 2.01141324 12.16405104 -0.56640625 11.4375 C-2.86328125 10.69140625 -2.86328125 10.69140625 -4.66015625 9.6015625 C-12.12431008 6.51796703 -19.73989375 9.98691722 -26.86328125 12.50390625 Z " fill="#515865" transform="translate(522.86328125,214.30859375)"/>
<path d="M0 0 C0.33 0 0.66 0 1 0 C1 31.35 1 62.7 1 95 C-11.54 95 -24.08 95 -37 95 C-33.6269791 83.756597 -33.6269791 83.756597 -31.4765625 78.57421875 C-30.78046875 76.88329102 -30.78046875 76.88329102 -30.0703125 75.15820312 C-29.59335937 74.01287109 -29.11640625 72.86753906 -28.625 71.6875 C-25.37201932 63.82761948 -22.18665799 55.95388382 -19.15283203 48.0065918 C-17.48296213 43.65156261 -15.74121515 39.32687605 -14 35 C-12.84782493 32.12284904 -11.69744848 29.24497924 -10.546875 26.3671875 C-9.92190323 24.80467621 -9.29690289 23.24217634 -8.671875 21.6796875 C-8.35669922 20.89174805 -8.04152344 20.10380859 -7.71679688 19.29199219 C-5.14453125 12.86132812 -2.57226562 6.43066406 0 0 Z " fill="#FCF8F1" transform="translate(652,505)"/>
<path d="M0 0 C0.33 0 0.66 0 1 0 C1 31.02 1 62.04 1 94 C-11.54 94 -24.08 94 -37 94 C-35.04756448 88.14269344 -33.05660429 82.3766919 -30.8203125 76.6328125 C-30.52567108 75.87257782 -30.23102966 75.11234314 -29.92745972 74.32907104 C-29.30836698 72.73376627 -28.68816637 71.13889101 -28.06689453 69.54443359 C-27.1305257 67.13919381 -26.1998371 64.73180902 -25.26953125 62.32421875 C-22.36993886 54.85140908 -19.39019745 47.46927567 -16.00146484 40.20117188 C-14.73501601 37.41757784 -13.71787468 34.58728325 -12.75 31.6875 C-10.46449557 25.11667475 -7.89180614 18.68536899 -5.25 12.25 C-4.8487793 11.27248779 -4.44755859 10.29497559 -4.03417969 9.2878418 C-1.15946622 2.31893244 -1.15946622 2.31893244 0 0 Z " fill="#FCFAF3" transform="translate(364,506)"/>
<path d="M0 0 C1.99378762 2.99068143 3.07199904 5.63812117 4.3125 9 C5.92779442 13.28528107 7.62527413 17.47551003 9.5625 21.625 C11.58424412 25.98870236 13.2987726 30.38721592 14.90625 34.91796875 C19.29178631 47.34404297 19.29178631 47.34404297 24.5 59.4375 C27.01334694 64.77937244 28.91197995 70.27863234 30.82885742 75.85400391 C32.4126899 80.43158424 34.13723876 84.86775827 36.23828125 89.23828125 C37 91 37 91 38 95 C25.46 95 12.92 95 0 95 C0 63.65 0 32.3 0 0 Z " fill="#FCF9F2" transform="translate(371,505)"/>
<path d="M0 0 C2 1 2 1 3.11328125 3.7734375 C3.50902344 4.96195312 3.90476562 6.15046875 4.3125 7.375 C5.82686408 11.80972283 7.43347437 16.13422319 9.4375 20.375 C11.47469178 24.71593202 13.22084343 29.12699791 14.875 33.625 C17.50709049 40.78113003 20.35506217 47.83010323 23.2890625 54.8671875 C24.52344531 57.83114158 25.72612148 60.80619465 26.9140625 63.7890625 C28.37026398 67.44322466 29.85449635 71.08436078 31.359375 74.71875 C31.94912109 76.14574219 31.94912109 76.14574219 32.55078125 77.6015625 C33.36358453 79.56605773 34.17876399 81.5295712 34.99609375 83.4921875 C35.38410156 84.43320312 35.77210938 85.37421875 36.171875 86.34375 C36.5234668 87.19130859 36.87505859 88.03886719 37.23730469 88.91210938 C38 91 38 91 38 93 C25.46 93 12.92 93 0 93 C0 62.31 0 31.62 0 0 Z " fill="#FCF9F3" transform="translate(659,507)"/>
<path d="M0 0 C0.66 0.33 1.32 0.66 2 1 C2.0300006 1.60700933 2.0600012 2.21401867 2.09091091 2.83942223 C2.82501124 17.6918805 3.55972384 32.54430839 4.2950964 47.39670372 C4.65071988 54.57955879 5.0061452 61.76242356 5.36108398 68.9453125 C5.67088318 75.21470187 5.98107458 81.48407171 6.29171377 87.75341952 C6.45578496 91.06498352 6.61961696 94.37655891 6.78309441 97.68815231 C7.68457662 116.09715297 7.68457662 116.09715297 8.70771694 134.49968529 C9.02971119 140.0459442 9.12044647 145.57105381 9.0625 151.125 C9.05798828 151.99769531 9.05347656 152.87039063 9.04882812 153.76953125 C9.03741683 155.84638659 9.0195106 157.92320495 9 160 C3.72 160 -1.56 160 -7 160 C-7.07268764 148.73046438 -6.84122343 137.55879059 -6.23046875 126.30859375 C-6.1484685 124.73485468 -6.0669026 123.16109293 -5.98573303 121.58731079 C-5.81330523 118.2579573 -5.63837161 114.9287498 -5.46130371 111.59963989 C-5.04176344 103.70784372 -4.63555341 95.8153555 -4.22828293 87.92291832 C-4.0895838 85.23715386 -3.95039059 82.55141528 -3.81118774 79.86567688 C-2.90114676 62.26723549 -2.06573304 44.66553123 -1.25 27.0625 C-1.18469614 25.6561578 -1.11937846 24.24981624 -1.05404663 22.84347534 C-0.70048106 15.22908522 -0.34892032 7.61460443 0 0 Z " fill="#F8F5EA" transform="translate(511,504)"/>
<path d="M0 0 C30.03 0 60.06 0 91 0 C80.82926151 11.86586157 69.63693452 18.06038025 54 20 C35.01040802 20.82148134 18.1044184 18.66261197 3.40234375 5.578125 C2 4.25 2 4.25 0 2 C0 1.34 0 0.68 0 0 Z " fill="#FAF6EC" transform="translate(323,608)"/>
<path d="M0 0 C30.03 0 60.06 0 91 0 C86.58868338 8.82263325 77.95576078 13.51074255 69 17 C50.89503145 22.52918672 32.15653296 21.70075894 15.0703125 13.61328125 C9.19580092 10.35462361 4.3611283 6.10422558 0 1 C0 0.67 0 0.34 0 0 Z " fill="#FAF6ED" transform="translate(610,608)"/>
<path d="M0 0 C0 4.62 0 9.24 0 14 C-31.02 14 -62.04 14 -94 14 C-91.04006542 11.04006542 -87.54686245 11.19461928 -83.55078125 10.703125 C-82.68203369 10.58891205 -81.81328613 10.4746991 -80.91821289 10.35702515 C-79.03550604 10.11006129 -77.1523116 9.86679292 -75.26870728 9.62677002 C-70.27061359 8.98976061 -65.2759014 8.32744835 -60.28125 7.6640625 C-58.75024406 7.4613826 -58.75024406 7.4613826 -57.18830872 7.25460815 C-50.35186759 6.34047581 -43.53244656 5.34361857 -36.71875 4.2734375 C-35.8323735 4.13429932 -34.94599701 3.99516113 -34.03276062 3.85180664 C-29.82965751 3.18853973 -25.62863476 2.51368218 -21.42895508 1.82910156 C-14.24592317 0.67542329 -7.30168852 -0.35048105 0 0 Z " fill="#FAF8EE" transform="translate(494,465)"/>
<path d="M0 0 C8.65209449 0.58989029 17.15784348 1.48236586 25.73046875 2.77734375 C26.88694412 2.94875381 28.04341949 3.12016388 29.23493958 3.29676819 C31.6578442 3.65686293 34.08042461 4.01914545 36.50268555 4.38354492 C40.18785251 4.93755299 43.87408741 5.48396263 47.56054688 6.02929688 C49.92975405 6.38236623 52.29889696 6.7358671 54.66796875 7.08984375 C55.75675827 7.25137436 56.84554779 7.41290497 57.96733093 7.57933044 C63.65908689 8.43872015 69.30287364 9.40780363 74.9370575 10.58921814 C77.49044273 11.09765904 80.03191307 11.40273541 82.625 11.625 C83.88183594 11.73714844 83.88183594 11.73714844 85.1640625 11.8515625 C86.07285156 11.92503906 86.07285156 11.92503906 87 12 C87 12.33 87 12.66 87 13 C69.11503902 14.06943241 51.26570969 14.12352538 33.35784912 14.06866455 C29.58232196 14.0582409 25.80678755 14.05382713 22.03125 14.04882812 C14.6874787 14.03825875 7.3437509 14.02074506 0 14 C0 9.38 0 4.76 0 0 Z " fill="#FBF8EF" transform="translate(530,465)"/>
<path d="M0 0 C-0.33 0.33 -0.66 0.66 -1 1 C0.16400068 0.99962028 1.32800136 0.99924056 2.52727479 0.99884933 C53.81158356 0.98218503 105.09589253 0.96675661 156.38020325 0.95765686 C157.15627835 0.9575188 157.93235345 0.95738075 158.73194598 0.95723851 C175.59699871 0.9542458 192.46205147 0.95147559 209.32710428 0.94893467 C217.59738268 0.9476873 225.86766107 0.94639075 234.13793945 0.94506836 C234.96094398 0.9449376 235.78394851 0.94480684 236.63189257 0.94467212 C263.3214418 0.94040862 290.01098892 0.9328957 316.70053687 0.92370278 C344.12102989 0.91427521 371.54152175 0.90811572 398.96201636 0.90608501 C402.83245359 0.90579684 406.7028908 0.90547121 410.57332802 0.90512276 C411.71599622 0.90502162 411.71599622 0.90502162 412.88174862 0.90491844 C425.15827951 0.90373543 437.43480679 0.89909386 449.71133621 0.89316797 C462.04490758 0.88728802 474.37847535 0.88503019 486.71204808 0.88649862 C493.39807663 0.88719358 500.08409328 0.88613135 506.77012062 0.88079453 C512.88480199 0.87594919 518.99946553 0.87566889 525.1141477 0.87910111 C527.33225734 0.87952567 529.55036807 0.8782395 531.76847555 0.87511682 C534.77220238 0.87113227 537.77586394 0.87324961 540.77958965 0.87695217 C541.65044892 0.87432516 542.52130819 0.87169814 543.41855714 0.86899152 C547.41366212 0.88019954 551.10090685 1.0021644 555 2 C555 2.33 555 2.66 555 3 C368.55 3 182.1 3 -10 3 C-7.28464405 0.28464405 -3.67870689 -1.83935344 0 0 Z " fill="#E1E3E3" transform="translate(240,315)"/>
<path d="M0 0 C5.94 0 11.88 0 18 0 C18 8.91 18 17.82 18 27 C12.06 27 6.12 27 0 27 C0 18.09 0 9.18 0 0 Z " fill="#FBF7EE" transform="translate(503,464)"/>
<path d="M0 0 C3.19873817 1.78416362 6.24271326 3.69372471 9.26513672 5.76342773 C9.26513672 6.09342773 9.26513672 6.42342773 9.26513672 6.76342773 C-9.21486328 6.76342773 -27.69486328 6.76342773 -46.73486328 6.76342773 C-46.73486328 6.10342773 -46.73486328 5.44342773 -46.73486328 4.76342773 C-32.97787271 -5.11338601 -15.54031565 -7.73244624 0 0 Z " fill="#F5F0E3" transform="translate(531.73486328125,675.236572265625)"/>
<path d="M0 0 C2.0343997 -0.01251657 4.06877511 -0.03000469 6.10308838 -0.05255127 C9.00699583 -0.08261672 11.91031529 -0.09235523 14.81436157 -0.09695435 C16.12258881 -0.11540657 16.12258881 -0.11540657 17.45724487 -0.13423157 C22.89775577 -0.11470852 26.64245568 0.74957094 31.49795532 3.23117065 C31.49795532 3.56117065 31.49795532 3.89117065 31.49795532 4.23117065 C4.76795532 4.23117065 -21.96204468 4.23117065 -49.50204468 4.23117065 C-37.61524349 -3.69336347 -14.09212607 0.07617062 0 0 Z " fill="#F8F4E9" transform="translate(520.5020446777344,683.7688293457031)"/>
<path d="M0 0 C2.08766718 2.08766718 2.64740862 3.2891736 3.6875 6 C5.05203466 9.54154033 6.42942065 13.07498933 7.8515625 16.59375 C8.5054603 18.22906594 9.15910458 19.86448327 9.8125 21.5 C10.13887451 22.30179688 10.46524902 23.10359375 10.80151367 23.9296875 C11.59314332 25.93085212 12.30370392 27.96370211 13 30 C12.67 30.66 12.34 31.32 12 32 C9.77810176 29.77810176 9.07401108 27.91517292 8 25 C8.33 28.3 8.66 31.6 9 35 C6.15813987 31.21085317 4.62668734 27.81537343 3.0625 23.4375 C2.80452637 22.73093262 2.54655273 22.02436523 2.28076172 21.29638672 C1.76109866 19.87127464 1.24413308 18.4451758 0.72998047 17.01806641 C0.0721083 15.1993469 -0.60165254 13.38639364 -1.27734375 11.57421875 C-4 4.2588968 -4 4.2588968 -4 2 C-2.68 1.34 -1.36 0.68 0 0 Z " fill="#BA9250" transform="translate(386,528)"/>
<path d="M0 0 C0.144375 0.61875 0.28875 1.2375 0.4375 1.875 C0.93152225 4.03258322 0.93152225 4.03258322 2 6 C2.33 5.34 2.66 4.68 3 4 C3.66 4.33 4.32 4.66 5 5 C4.62488281 5.92039062 4.24976563 6.84078125 3.86328125 7.7890625 C3.34564389 9.06742095 2.82877548 10.34609093 2.3125 11.625 C2.04139404 12.29635986 1.77028809 12.96771973 1.4909668 13.65942383 C-0.80698252 19.40396106 -2.85528887 25.20802559 -4.82421875 31.07421875 C-5.92445532 33.81201673 -7.10727259 35.75818165 -9 38 C-8.67 35.03 -8.34 32.06 -8 29 C-8.99 29.33 -9.98 29.66 -11 30 C-9.0173911 22.93487572 -6.592956 16.16273165 -3.8125 9.375 C-3.44447266 8.46621094 -3.07644531 7.55742188 -2.69726562 6.62109375 C-1.80216521 4.41240441 -0.9030465 2.20544952 0 0 Z " fill="#BC9657" transform="translate(352,520)"/>
<path d="M0 0 C0.66 0 1.32 0 2 0 C6.8613346 13.21675343 6.8613346 13.21675343 6 19 C4.8125 21 4.8125 21 3 22 C-0.34192692 21.75546876 -1.60543557 21.39456443 -4 19 C-4.88692761 12.20022164 -2.32296539 6.31556214 0 0 Z " fill="#F7F2E3" transform="translate(511,419)"/>
<path d="M0 0 C2.4375 1.6875 2.4375 1.6875 4 4 C4 7.21294292 3.48073631 8.50209453 1.25 10.8125 C-1.47751486 12.25202173 -2.96116668 12.54543162 -6 12 C-8.2855347 9.87208838 -8.92303658 8.52591672 -9.375 5.4375 C-9 3 -9 3 -7.875 1.1875 C-5.08666183 -0.57844751 -3.23271032 -0.46181576 0 0 Z " fill="#F8F3E4" transform="translate(660,475)"/>
<path d="M0 0 C1.9375 1.1875 1.9375 1.1875 3 3 C3.4375 5.4375 3.4375 5.4375 3 8 C1.00600369 10.73251347 -0.1623973 11.83247946 -3.5 12.5 C-6.8376027 11.83247946 -8.00600369 10.73251347 -10 8 C-10.49089348 5.12476676 -10.41359492 3.70554428 -8.9375 1.1875 C-5.90624457 -0.67036623 -3.46577141 -0.37133265 0 0 Z " fill="#F8F4E6" transform="translate(370,475)"/>
<path d="M0 0 C0.33 0 0.66 0 1 0 C1 31.02 1 62.04 1 94 C-0.65 94 -2.3 94 -4 94 C-2.02 93.505 -2.02 93.505 0 93 C-0.33 64.95 -0.66 36.9 -1 8 C-1.66 8 -2.32 8 -3 8 C-1.125 2.25 -1.125 2.25 0 0 Z " fill="#FBF5E3" transform="translate(364,506)"/>
<path d="M0 0 C-2.97 0.66 -5.94 1.32 -9 2 C-1.08 2.33 6.84 2.66 15 3 C15 3.33 15 3.66 15 4 C0.81 4 -13.38 4 -28 4 C-25.57663976 1.57663976 -24.47375634 1.57184813 -21.1328125 1.11328125 C-20.16472656 0.97986328 -19.19664062 0.84644531 -18.19921875 0.70898438 C-16.67748047 0.51272461 -16.67748047 0.51272461 -15.125 0.3125 C-14.11824219 0.17005859 -13.11148437 0.02761719 -12.07421875 -0.11914062 C-7.54976791 -0.72300159 -4.49544658 -1.12386165 0 0 Z " fill="#D8C298" transform="translate(428,475)"/>
<path d="M0 0 C0.33 0 0.66 0 1 0 C2.02043496 9.5946196 2.11986328 19.11729896 2.0625 28.75 C2.05746985 30.23697764 2.05290965 31.72395695 2.04882812 33.2109375 C2.03795432 36.80732706 2.0207752 40.40365237 2 44 C1.34 43.67 0.68 43.34 0 43 C-0.34680895 40.4667868 -0.56471863 38.04621789 -0.6875 35.5 C-0.7280249 34.76313965 -0.7685498 34.0262793 -0.81030273 33.26708984 C-0.97906847 29.66860733 -1.0653922 26.20271879 -0.5625 22.625 C-0.14156736 19.54596866 0.07097325 16.56421419 0.0703125 13.45703125 C0.0710376 12.63444824 0.0717627 11.81186523 0.07250977 10.96435547 C0.05803119 7.30939714 0.03548373 3.65482449 0 0 Z " fill="#C1A366" transform="translate(522,553)"/>
<path d="M0 0 C0.33 0 0.66 0 1 0 C1.33 2.97 1.66 5.94 2 9 C2.33 9 2.66 9 3 9 C3.14370117 13.09548345 3.20196534 16.29985348 2.0625 20.25 C0.59054035 25.44515169 0.33524483 30.62726057 0 36 C-0.33 36 -0.66 36 -1 36 C-1.15130716 23.96267515 -0.68944522 12.01604528 0 0 Z " fill="#C4A567" transform="translate(502,535)"/>
<path d="M0 0 C0.33 0 0.66 0 1 0 C2.23402862 4.77092956 2.11265112 9.42469446 2.0625 14.3125 C2.05798828 15.14845703 2.05347656 15.98441406 2.04882812 16.84570312 C2.03710548 18.89716649 2.01917203 20.94859273 2 23 C1.67 23 1.34 23 1 23 C0.67 21.35 0.34 19.7 0 18 C-0.33 18 -0.66 18 -1 18 C-1.02707139 15.75006641 -1.04642829 13.50003905 -1.0625 11.25 C-1.07410156 9.99703125 -1.08570313 8.7440625 -1.09765625 7.453125 C-1.02021027 4.71463499 -0.82780815 2.58119707 0 0 Z " fill="#BB954A" transform="translate(506,569)"/>
<path d="M0 0 C0.85078125 0.00322266 1.7015625 0.00644531 2.578125 0.00976562 C3.46757812 0.01814453 4.35703125 0.02652344 5.2734375 0.03515625 C6.170625 0.03966797 7.0678125 0.04417969 7.9921875 0.04882812 C10.21100398 0.06063034 12.42968768 0.0770947 14.6484375 0.09765625 C14.9784375 1.08765625 15.3084375 2.07765625 15.6484375 3.09765625 C7.3984375 3.09765625 -0.8515625 3.09765625 -9.3515625 3.09765625 C-5.77073159 0.71043565 -4.2090522 -0.02806035 0 0 Z " fill="#F0E4C7" transform="translate(480.3515625,684.90234375)"/>
<path d="M0 0 C8.34671491 0.89429088 16.67207858 1.94751423 25 3 C25 3.33 25 3.66 25 4 C22.31243045 4.02720824 19.62514202 4.0469388 16.9375 4.0625 C16.18533203 4.07087891 15.43316406 4.07925781 14.65820312 4.08789062 C9.99366882 4.10808341 5.60076827 3.77595959 1 3 C0.67 2.01 0.34 1.02 0 0 Z " fill="#F8F2E1" transform="translate(592,474)"/>
<path d="M0 0 C0.33 0 0.66 0 1 0 C1.92972557 9.69570954 2.11237377 19.27342548 2 29 C1.67 29 1.34 29 1 29 C0.67 26.03 0.34 23.06 0 20 C-0.33 20 -0.66 20 -1 20 C-0.67 13.4 -0.34 6.8 0 0 Z " fill="#C4A564" transform="translate(524,600)"/>
<path d="M0 0 C2.475 0.99 2.475 0.99 5 2 C4.67 2.53625 4.34 3.0725 4 3.625 C2.77300796 6.5391061 2.85766714 8.86867708 3 12 C2.01 12 1.02 12 0 12 C0 8.04 0 4.08 0 0 Z " fill="#BB934C" transform="translate(516,573)"/>
<path d="M0 0 C-0.95712891 0.19916016 -0.95712891 0.19916016 -1.93359375 0.40234375 C-3.17302734 0.66724609 -3.17302734 0.66724609 -4.4375 0.9375 C-5.26121094 1.11152344 -6.08492188 1.28554688 -6.93359375 1.46484375 C-8.97661204 1.80752994 -8.97661204 1.80752994 -10 3 C-12.01964199 3.07244053 -14.04167124 3.08377188 -16.0625 3.0625 C-17.16722656 3.05347656 -18.27195312 3.04445313 -19.41015625 3.03515625 C-20.69212891 3.01775391 -20.69212891 3.01775391 -22 3 C-22 2.67 -22 2.34 -22 2 C-19.08483516 1.46915208 -16.16839443 0.95000945 -13.25 0.4375 C-12.425 0.28603516 -11.6 0.13457031 -10.75 -0.02148438 C-9.95078125 -0.16005859 -9.1515625 -0.29863281 -8.328125 -0.44140625 C-7.5949707 -0.57232666 -6.86181641 -0.70324707 -6.10644531 -0.83813477 C-3.83766713 -1.01247412 -2.16221421 -0.66874807 0 0 Z " fill="#EADEC3" transform="translate(428,475)"/>
<path d="M0 0 C0.33 0 0.66 0 1 0 C1 5.61 1 11.22 1 17 C0.67 17 0.34 17 0 17 C-0.33 14.03 -0.66 11.06 -1 8 C-1.66 8 -2.32 8 -3 8 C-1.125 2.25 -1.125 2.25 0 0 Z " fill="#F2E7CA" transform="translate(364,506)"/>
<path d="M0 0 C2.50329639 2.50329639 2.70034576 3.47906271 3 7 C2.49430721 10.04437273 1.78640106 13.0168753 1 16 C0.67 16 0.34 16 0 16 C0 10.72 0 5.44 0 0 Z " fill="#BD974F" transform="translate(518,610)"/>
<path d="M0 0 C-0.625 1.875 -0.625 1.875 -2 4 C-5.125 5.25 -5.125 5.25 -8 6 C-8 5.01 -8 4.02 -8 3 C-2.25 0 -2.25 0 0 0 Z " fill="#BF9754" transform="translate(450,690)"/>
</svg>
