<?xml version="1.0" encoding="UTF-8"?>
<svg version="1.1" xmlns="http://www.w3.org/2000/svg" width="1024" height="1024">
<path d="M0 0 C337.92 0 675.84 0 1024 0 C1024 337.92 1024 675.84 1024 1024 C686.08 1024 348.16 1024 0 1024 C0 686.08 0 348.16 0 0 Z " fill="#14243B" transform="translate(0,0)"/>
<path d="M0 0 C22.77 0 45.54 0 69 0 C69 85.14 69 170.28 69 258 C46.23 258 23.46 258 0 258 C0 172.86 0 87.72 0 0 Z " fill="#F3EDD7" transform="translate(565,329)"/>
<path d="M0 0 C22.77 0 45.54 0 69 0 C69 62.37 69 124.74 69 189 C46.23 189 23.46 189 0 189 C0 126.63 0 64.26 0 0 Z " fill="#F3ECD6" transform="translate(471,398)"/>
<path d="M0 0 C1.17175781 0.01353516 1.17175781 0.01353516 2.3671875 0.02734375 C2.94726562 0.03894531 3.52734375 0.05054688 4.125 0.0625 C2.13699515 5.61721944 -1.18581374 9.53521835 -4.875 14.0625 C-5.55369141 14.96355469 -5.55369141 14.96355469 -6.24609375 15.8828125 C-15.05827066 27.12683645 -27.6801696 34.12500302 -41.6875 36 C-51.50125446 37.91514282 -57.28900437 45.0510098 -63.875 52.0625 C-64.91449174 53.13496128 -65.95480894 54.20662333 -66.99609375 55.27734375 C-70.04771513 58.46009341 -72.97437295 61.74220382 -75.875 65.0625 C-76.40915527 65.66835938 -76.94331055 66.27421875 -77.49365234 66.8984375 C-98.63032937 91.0616845 -115.04484905 118.85077532 -125.875 149.0625 C-126.15037598 149.8241748 -126.42575195 150.58584961 -126.70947266 151.37060547 C-135.16864843 175.19804874 -139.3050124 200.51033167 -139.125 225.75 C-139.12156586 226.5413031 -139.11813171 227.3326062 -139.11459351 228.14788818 C-139.0533358 240.21124874 -138.78560389 252.12818175 -136.875 264.0625 C-136.71902344 265.0426709 -136.56304687 266.0228418 -136.40234375 267.03271484 C-129.0986001 311.32180483 -110.78512515 351.50142363 -80.875 385.0625 C-80.40674805 385.59246582 -79.93849609 386.12243164 -79.45605469 386.66845703 C-73.94165106 392.89142581 -68.33805578 398.80718697 -61.875 404.0625 C-61.37581055 404.47935059 -60.87662109 404.89620117 -60.36230469 405.32568359 C-25.87569898 434.11789619 13.73868916 453.54131296 57.30859375 463.69140625 C63.04476257 465.03097957 68.72296813 466.52149019 74.40625 468.0703125 C79.74891716 469.49577201 85.11862808 470.80836482 90.48876953 472.12597656 C94.71258205 473.17242753 98.90949641 474.26928838 103.0859375 475.4921875 C103.88153076 475.72365479 104.67712402 475.95512207 105.49682617 476.19360352 C106.98453628 476.63136829 108.46940761 477.07896617 109.95043945 477.53881836 C119.74997835 480.41844124 127.65406188 478.68927899 137.3125 475.875 C145.79492138 473.49044889 154.26755184 471.26141915 162.875 469.375 C169.91417916 467.82475664 176.80581716 466.08214626 183.71484375 464.0234375 C187.61816831 462.92353161 191.54577546 462.01962496 195.5 461.125 C241.55860895 450.5291872 291.77836703 423.59386057 322.46484375 387.03125 C324.20997903 384.96172487 326.0384777 382.98863829 327.875 381 C350.42481123 355.5013673 364.81190553 324.54075487 374.125 292.0625 C374.38007324 291.19705566 374.63514648 290.33161133 374.89794922 289.43994141 C385.71435766 252.30190163 385.26827274 210.50940502 376.125 173.0625 C375.94598145 172.29518555 375.76696289 171.52787109 375.58251953 170.73730469 C365.87862875 129.27286504 343.96692609 92.13032186 315.125 61.0625 C314.15422407 60.00066132 313.18421546 58.93812078 312.21484375 57.875 C307.5973735 52.82133743 302.94426765 47.7979775 298.1875 42.875 C297.51847656 42.18019531 296.84945313 41.48539062 296.16015625 40.76953125 C292.28556105 37.51963086 288.05722705 36.78999285 283.1875 35.875 C265.35144641 31.78840984 252.430582 20.86224558 242.125 6.0625 C240.95732748 4.07943581 240.01925618 2.18635844 239.125 0.0625 C244.33823617 -0.12707222 248.97978941 0.4956541 254 1.8125 C254.70471436 1.99514404 255.40942871 2.17778809 256.13549805 2.3659668 C272.09688415 6.64281625 284.7897863 15.04801146 293.4375 29.3125 C294.33868154 30.89279543 295.23461717 32.47609519 296.125 34.0625 C300.15486217 41.15762967 306.03937579 46.02792337 312.15234375 51.31640625 C317.27772669 55.85313135 321.88213907 60.81434817 326.3359375 66.00390625 C327.48377239 67.32466823 328.65414486 68.62636251 329.8515625 69.90234375 C351.62015327 93.29199979 369.20440774 123.39796411 378.125 154.0625 C378.6381072 155.60675531 379.15804548 157.1487728 379.6875 158.6875 C379.91695312 159.39003906 380.14640625 160.09257812 380.3828125 160.81640625 C380.91794213 162.4358775 381.47842741 164.04704778 382.0546875 165.65234375 C385.84303829 176.82651024 387.41606399 188.42358013 389.125 200.0625 C389.24649414 200.85817383 389.36798828 201.65384766 389.49316406 202.47363281 C393.17553993 227.1290629 391.02822786 251.57536076 387.125 276.0625 C386.95371582 277.17399414 386.78243164 278.28548828 386.60595703 279.43066406 C380.62411875 317.11452133 363.38141826 353.66408446 339.125 383.0625 C338.66125977 383.62775391 338.19751953 384.19300781 337.71972656 384.77539062 C327.56999069 397.07440256 316.76429909 408.27935421 304.125 418.0625 C303.56393555 418.50529297 303.00287109 418.94808594 302.42480469 419.40429688 C267.62838314 446.81282341 228.76006833 463.51817362 186.13354492 474.25634766 C182.4335674 475.18849075 178.73521957 476.12688504 175.03710938 477.06640625 C172.64592512 477.67223739 170.25465206 478.27771816 167.86328125 478.8828125 C166.77751297 479.15787628 165.69174469 479.43294006 164.57307434 479.71633911 C157.11167876 481.5944713 149.62779574 483.3575168 142.125 485.0625 C147.6075748 488.20073702 153.33314338 489.56085174 159.4375 491.0625 C169.81012244 493.64389146 179.70327738 496.77658069 189.625 500.75 C190.4799707 501.09160156 191.33494141 501.43320312 192.21582031 501.78515625 C200.67916755 505.21176452 208.91850123 509.06555241 217.125 513.0625 C217.125 514.0525 217.125 515.0425 217.125 516.0625 C215.16405766 517.91547379 213.23436139 519.58483971 211.125 521.25 C210.55265625 521.71341797 209.9803125 522.17683594 209.390625 522.65429688 C207.97522029 523.79841568 206.55092549 524.93152041 205.125 526.0625 C201.29971789 524.67712756 198.1935543 522.87435978 194.8125 520.625 C168.91821846 504.23868525 138.3774217 496.10702696 109.125 488.0625 C107.31625045 487.55784975 105.50764532 487.05268143 103.69921875 486.546875 C92.39961014 483.40696481 81.04605828 480.47989465 69.6875 477.5625 C68.15722504 477.16878848 66.62695159 476.77507106 65.09667969 476.38134766 C58.58334856 474.70744259 52.06893649 473.04206287 45.5390625 471.43359375 C3.27943493 460.93897899 -36.92097632 439.98683591 -69.1875 410.59863281 C-70.85375336 409.08184084 -72.53440176 407.5825842 -74.21875 406.0859375 C-79.08589753 401.73307139 -83.80518178 397.33502333 -87.9921875 392.30859375 C-89.45863012 390.5592068 -90.97410222 388.85087841 -92.5078125 387.16015625 C-122.93598581 353.39954256 -139.45715798 309.51997689 -145.875 265.0625 C-146.0507959 263.86737793 -146.2265918 262.67225586 -146.40771484 261.44091797 C-147.03816597 256.29136276 -147.07495844 251.1513946 -147.11328125 245.96875 C-147.121353 244.90499146 -147.12942474 243.84123291 -147.13774109 242.74523926 C-147.15152855 240.49277343 -147.16227439 238.24028717 -147.17016602 235.98779297 C-147.18157737 233.73284577 -147.20185213 231.47792319 -147.23168945 229.22314453 C-147.44466799 213.07722951 -146.12139885 197.88345556 -142.875 182.0625 C-142.62339111 180.81227051 -142.37178223 179.56204102 -142.11254883 178.27392578 C-141.50658906 175.45568567 -140.84401298 172.66629342 -140.125 169.875 C-139.87387451 168.89345947 -139.62274902 167.91191895 -139.36401367 166.90063477 C-131.11471293 135.83135266 -115.91271553 105.30161906 -95.21240234 80.66015625 C-93.89876934 79.09089477 -92.61434642 77.50114487 -91.33203125 75.90625 C-84.68938513 67.78189558 -77.34909345 60.35299611 -69.9375 52.9375 C-69.42900513 52.42800812 -68.92051025 51.91851624 -68.39660645 51.39358521 C-66.92551572 49.92282091 -65.45013659 48.45653061 -63.97265625 46.9921875 C-63.11164307 46.13866699 -62.25062988 45.28514648 -61.36352539 44.40576172 C-58.875 42.0625 -58.875 42.0625 -56.14233398 39.94970703 C-53.64727025 37.87294999 -52.94303246 36.08938438 -51.796875 33.109375 C-45.61847585 19.39123452 -33.38316511 9.25302887 -19.65234375 3.77734375 C-13.14790437 1.52859705 -6.92568039 -0.10493455 0 0 Z " fill="#E2BC67" transform="translate(390.875,231.9375)"/>
<path d="M0 0 C22.44 0 44.88 0 68 0 C68 41.25 68 82.5 68 125 C45.56 125 23.12 125 0 125 C0 83.75 0 42.5 0 0 Z " fill="#F7F0D9" transform="translate(378,462)"/>
<path d="M0 0 C2.1137463 1.32239973 4.24177313 2.61543844 6.38134766 3.89550781 C6.99252441 4.26289062 7.60370117 4.63027344 8.23339844 5.00878906 C8.80171387 5.35039063 9.3700293 5.69199219 9.95556641 6.04394531 C15.14261186 9.16803622 15.14261186 9.16803622 16.26806641 11.41894531 C14.26933902 11.90339296 12.26900704 12.38122191 10.26806641 12.85644531 C9.15431641 13.12328125 8.04056641 13.39011719 6.89306641 13.66503906 C-13.34004641 17.87300326 -35.13394371 16.85755194 -54.73193359 10.41894531 C-55.42416016 10.19432617 -56.11638672 9.96970703 -56.82958984 9.73828125 C-70.97145995 4.98511845 -83.4572068 -2.91409579 -94.73193359 -12.58105469 C-95.44607422 -13.16242187 -96.16021484 -13.74378906 -96.89599609 -14.34277344 C-98.55125439 -15.70456961 -100.14902842 -17.13579345 -101.73193359 -18.58105469 C-101.73193359 -19.24105469 -101.73193359 -19.90105469 -101.73193359 -20.58105469 C-63.56173487 -26.93118443 -32.35136722 -20.35337712 0 0 Z " fill="#E5BD65" transform="translate(369.73193359375,684.5810546875)"/>
<path d="M0 0 C0.68659698 -0.00349457 1.37319397 -0.00698914 2.08059692 -0.0105896 C10.80744059 -0.03518399 19.18428789 0.54867409 27.75 2.3125 C20.47898721 17.34029608 -0.24114132 26.6887419 -15.34912109 32.05859375 C-17.51520068 32.78241353 -19.68854905 33.46538232 -21.875 34.125 C-22.51880615 34.32005127 -23.1626123 34.51510254 -23.82592773 34.71606445 C-34.93896897 37.84916537 -46.12329323 38.67537578 -57.625 38.625 C-58.89126221 38.62226074 -60.15752441 38.61952148 -61.4621582 38.61669922 C-84.20001833 38.36248167 -84.20001833 38.36248167 -89.25 33.3125 C-83.50809932 29.30228365 -77.57353335 25.71092257 -71.47387695 22.27758789 C-68.03600676 20.34139048 -64.6580007 18.34093794 -61.3125 16.25 C-52.36458463 10.84581349 -42.38895716 5.92106665 -32.25 3.3125 C-31.26773438 3.03535156 -30.28546875 2.75820313 -29.2734375 2.47265625 C-19.57077402 0.17910726 -9.92153637 0.0163013 0 0 Z " fill="#E5BE66" transform="translate(728.25,661.6875)"/>
<path d="M0 0 C-9.40997279 18.09100402 -24.16120332 34.00349657 -42 44 C-43.02222656 44.58394531 -44.04445313 45.16789063 -45.09765625 45.76953125 C-59.34060852 53.41574773 -75.18221428 58.23036779 -91.375 58.0625 C-92.62216797 58.05573242 -92.62216797 58.05573242 -93.89453125 58.04882812 C-95.92971897 58.03713164 -97.96486923 58.01919935 -100 58 C-98.88559348 54.65678045 -98.02527657 53.93980381 -95.375 51.75 C-90.0990352 47.26401924 -85.27769857 42.54568236 -80.8125 37.25 C-60.67769572 14.11734709 -30.96839472 -0.4698113 0 0 Z " fill="#E4BD66" transform="translate(811,589)"/>
<path d="M0 0 C30.43083924 0.97848358 55.29629173 12.79522755 77 34 C77.62793457 34.61278809 78.25586914 35.22557617 78.90283203 35.85693359 C80.92136442 37.83520336 82.93167214 39.82135251 84.9375 41.8125 C85.56446777 42.43463379 86.19143555 43.05676758 86.83740234 43.69775391 C89.63070362 46.50157609 92.31558828 49.317159 94.81640625 52.38671875 C96.73130129 55.03215378 96.73130129 55.03215378 99 56 C99 56.66 99 57.32 99 58 C82.9273427 59.09172767 65.52228191 55.947843 51 49 C50.09411133 48.5666333 50.09411133 48.5666333 49.16992188 48.12451172 C40.63254095 43.97427634 33.1410333 39.31258009 26 33 C25.10796875 32.25105469 24.2159375 31.50210938 23.296875 30.73046875 C13.8502228 22.56360044 6.1549315 12.87371232 0 2 C0 1.34 0 0.68 0 0 Z " fill="#E5BE65" transform="translate(215,589)"/>
<path d="M0 0 C-0.52822974 6.59626887 -1.78095852 12.33750468 -4 18.5625 C-4.46140381 19.86078735 -4.46140381 19.86078735 -4.93212891 21.18530273 C-13.50027874 44.38236478 -28.41964148 62.47701382 -51 73 C-63.23698782 78 -63.23698782 78 -68 78 C-65.9657397 71.44853998 -62.93111562 65.45377748 -59.87988281 59.33422852 C-58.88882852 57.34032167 -57.91298051 55.33945223 -56.9375 53.33789062 C-45.50365487 30.17713549 -28.67637919 13.93651095 -6 2 C-5.24976563 1.59910156 -4.49953125 1.19820313 -3.7265625 0.78515625 C-2 0 -2 0 0 0 Z " fill="#E5BE66" transform="translate(829,504)"/>
<path d="M0 0 C27.51700953 10.14811699 46.79861097 31.07820949 59.02978516 57.19921875 C60.29157288 60.01287464 61.52135323 62.83702164 62.70532227 65.68432617 C64.22191849 69.32688633 65.96887705 72.62493042 68 76 C68 76.66 68 77.32 68 78 C62.58014625 77.4523982 58.202284 76.11013366 53.25 73.875 C52.55189209 73.56296631 51.85378418 73.25093262 51.13452148 72.92944336 C29.36309692 62.95640322 14.73563795 46.08409631 6.20654297 23.93994141 C4.65817147 19.66994258 3.29011326 15.35538235 2 11 C1.62617188 9.78441406 1.25234375 8.56882812 0.8671875 7.31640625 C0 4 0 4 0 0 Z " fill="#E5BE66" transform="translate(196,504)"/>
<path d="M0 0 C6.09983904 18.29951711 0.13397865 43.49914514 -8.09765625 60.421875 C-14.63293053 73.07079296 -25.38663989 85.20819071 -38 92 C-38.30902088 83.98033591 -37.36139079 76.35127792 -36.125 68.4375 C-35.95097656 67.27025391 -35.77695312 66.10300781 -35.59765625 64.90039062 C-32.52268728 44.68531684 -26.0297975 27.83421269 -13.4375 11.5625 C-12.99059814 10.98298584 -12.54369629 10.40347168 -12.08325195 9.80639648 C-4.26639363 0 -4.26639363 0 0 0 Z " fill="#E4BD66" transform="translate(822,416)"/>
<path d="M0 0 C3.80948695 1.5520132 6.25701074 4.03873574 9 7 C9.59941406 7.61746094 10.19882813 8.23492187 10.81640625 8.87109375 C25.01620391 24.01569203 32.32219979 42.29795136 35.43798828 62.5456543 C35.75056741 64.56616777 36.08315699 66.58267398 36.41796875 68.59960938 C37.62829608 76.10976621 38.32308285 83.38860681 38 91 C33.38916838 88.92717807 29.78514154 86.37714384 26.125 82.9375 C25.60325195 82.44854248 25.08150391 81.95958496 24.54394531 81.45581055 C8.60942574 66.25117258 -0.26398067 46.47139147 -1.09765625 24.41650391 C-1.46331948 7.11758595 -1.46331948 7.11758595 0 0 Z " fill="#E4BD66" transform="translate(203,416)"/>
<path d="M0 0 C-0.38272191 20.00591824 -7.58136593 39.06940716 -21 54 C-21.50660156 54.59941406 -22.01320313 55.19882812 -22.53515625 55.81640625 C-30.1001577 64.1553209 -41.79450381 71.37220937 -52 76 C-52.66 76 -53.32 76 -54 76 C-53.62758063 56.22791729 -46.11676662 38.77279127 -33 24 C-32.47019531 23.39929688 -31.94039062 22.79859375 -31.39453125 22.1796875 C-25.46755844 15.88685217 -9.23429419 0 0 0 Z " fill="#E5BD66" transform="translate(668,603)"/>
<path d="M0 0 C22.83334255 10.05273267 40.64402541 28.75401329 49.875 51.75 C52.80654189 59.87343088 54.31962737 67.37006102 54 76 C33.27771844 68.19160405 16.89565607 52.93854423 7.62890625 33.05859375 C2.88504267 22.26172915 0.60454547 11.75736707 0 0 Z " fill="#E5BE67" transform="translate(357,603)"/>
<path d="M0 0 C11.16818622 11.99545927 14.3943923 31.06495021 14.25 46.8125 C14.24395752 47.87710449 14.23791504 48.94170898 14.23168945 50.03857422 C14.15269212 56.29803547 13.8130425 62.32627587 12.64453125 68.48828125 C11.71139543 73.57245762 11.05866824 78.68965418 10.375 83.8125 C10.11212795 85.75653054 9.84911897 87.70054257 9.5859375 89.64453125 C9.39046779 91.09633301 9.19509208 92.54814745 9 94 C8.34 94 7.68 94 7 94 C-8.60637859 76.12884352 -12.38032765 54.85250894 -11 32 C-9.90094794 23.05746905 -6.65561595 6.65561595 0 0 Z " fill="#E4BD65" transform="translate(233,338)"/>
<path d="M0 0 C0.66 0 1.32 0 2 0 C10.90557932 20.9281114 17.90039258 45.69304123 9 68 C4.96573239 76.88514565 0.34491319 85.544727 -6 93 C-6.33 93 -6.66 93 -7 93 C-18.83038296 29.51657085 -18.83038296 29.51657085 -1.8125 2.25 C-1.214375 1.5075 -0.61625 0.765 0 0 Z " fill="#E3BD67" transform="translate(791,339)"/>
<path d="M0 0 C0.66 0 1.32 0 2 0 C2.65455759 1.99716175 3.2981943 3.99790387 3.9375 6 C4.29714844 7.11375 4.65679688 8.2275 5.02734375 9.375 C10.40269968 29.40845502 7.2918357 50.29270968 -2.85009766 68.13574219 C-5.74132593 72.82309231 -9.35503486 76.88773164 -13 81 C-13.54011719 81.75796875 -14.08023438 82.5159375 -14.63671875 83.296875 C-15.08660156 83.85890625 -15.53648437 84.4209375 -16 85 C-16.66 85 -17.32 85 -18 85 C-18.48091058 82.79204578 -18.95965179 80.583619 -19.4375 78.375 C-19.70433594 77.14523437 -19.97117187 75.91546875 -20.24609375 74.6484375 C-25.65780852 48.45910279 -19.12739123 28.21960463 -4.97021484 6.34033203 C-3.44028882 4.02586379 -1.96710412 1.96710412 0 0 Z " fill="#E4BD66" transform="translate(708,548)"/>
<path d="M0 0 C4.25516154 1.4984316 6.04683598 4.5771559 8.3125 8.25 C8.70203857 8.87406738 9.09157715 9.49813477 9.49291992 10.14111328 C22.68620245 31.62030572 27.2209768 52.55966022 22.61962891 77.4987793 C21.96964964 80.12251355 21.06051596 82.51665757 20 85 C15.32345183 81.38411224 11.87123128 77.60937389 8.4375 72.8125 C7.71916992 71.81295288 7.71916992 71.81295288 6.98632812 70.79321289 C-4.5028629 54.5397797 -7.53468299 36.02176209 -4.61035156 16.38330078 C-2.40265522 4.80531043 -2.40265522 4.80531043 0 0 Z " fill="#E5BF68" transform="translate(315,548)"/>
<path d="M0 0 C11.27648093 10.21747229 16.82628798 27.61626676 17.61962891 42.39746094 C17.9182405 54.12279981 15.06077438 64.02883811 10.82128906 74.87451172 C9.78631594 77.55301231 8.87986553 80.26708434 8 83 C7.34 83 6.68 83 6 83 C-6.28969604 62.95414024 -12.70566104 44.0091081 -7.58398438 20.37451172 C-6.72090059 16.86516686 -5.65933402 13.48748374 -4.5 10.0625 C-4.18095703 9.09473633 -4.18095703 9.09473633 -3.85546875 8.10742188 C-2.82926463 5.06973177 -1.79165729 2.68748594 0 0 Z " fill="#E4BE67" transform="translate(733,489)"/>
<path d="M0 0 C0.99 0.33 1.98 0.66 3 1 C4.17516531 3.81979871 5.15697886 6.53134849 6.0625 9.4375 C6.45719482 10.67874634 6.45719482 10.67874634 6.85986328 11.94506836 C13.58311824 33.44807456 12.2292624 52.68251059 1.90625 72.68579102 C0.95852756 74.46853253 -0.01983062 76.23489005 -1 78 C-1.53496094 78.97582031 -2.06992187 79.95164062 -2.62109375 80.95703125 C-3.07613281 81.63121094 -3.53117187 82.30539062 -4 83 C-4.66 83 -5.32 83 -6 83 C-14.03734046 62.12999095 -20.09663892 41.62576486 -11 20 C-7.79159529 13.09839175 -4.22357005 6.33535508 0 0 Z " fill="#E4BD67" transform="translate(290,489)"/>
<path d="M0 0 C5.04625513 7.56938269 2.74453179 22.17164151 1.3125 30.87890625 C-2.26885628 48.76983216 -11.64323874 62.0033318 -26 73 C-26.66 73 -27.32 73 -28 73 C-30.8813124 52.62168566 -29.25369975 34.47822404 -17.046875 17.2421875 C-12.11939567 10.89854286 -6.71916862 4.47944575 0 0 Z " fill="#E5BE67" transform="translate(287,427)"/>
<path d="M0 0 C14.31178779 8.58707268 23.68155951 23.48155042 29 39 C30.39277744 44.77247517 30.14728912 50.65959808 30.125 56.5625 C30.13080078 58.10454102 30.13080078 58.10454102 30.13671875 59.67773438 C30.13542969 60.67224609 30.13414062 61.66675781 30.1328125 62.69140625 C30.13168457 63.59060791 30.13055664 64.48980957 30.12939453 65.41625977 C29.99833145 68.03331752 29.57879488 70.44772724 29 73 C24.35175806 71.56714744 21.3978778 68.90273238 18.0625 65.5 C17.26863892 64.69369141 17.26863892 64.69369141 16.45874023 63.87109375 C12.10539834 59.32917638 8.75606297 54.67731583 6 49 C5.53980469 48.06542969 5.07960938 47.13085938 4.60546875 46.16796875 C-1.67899997 32.34938191 -2.0664654 16.97890985 -1 2 C-0.67 1.34 -0.34 0.68 0 0 Z " fill="#E3BC66" transform="translate(737,427)"/>
<path d="M0 0 C-1.89543556 15.73415321 -7.73071478 30.65785303 -19 42 C-19.53625 42.57105469 -20.0725 43.14210938 -20.625 43.73046875 C-26.11899775 49.08956923 -38.00930738 58 -46 58 C-43.14565468 39.71362511 -37.57040734 24.27203628 -23 12 C-6.52517986 0 -6.52517986 0 0 0 Z " fill="#E5BD67" transform="translate(303,370)"/>
<path d="M0 0 C12.94482035 2.02190192 24.49463443 12.55445264 33 22 C33.44988281 22.495 33.89976562 22.99 34.36328125 23.5 C41.69203877 32.57586071 45.15020925 46.54313113 45 58 C36.00627319 53.75142967 27.47138676 49.69149253 20 43 C19.41347656 42.53980469 18.82695313 42.07960938 18.22265625 41.60546875 C7.39840769 32.30299663 2.37892891 16.60813878 0 3 C0 2.01 0 1.02 0 0 Z " fill="#E3BC65" transform="translate(722,370)"/>
<path d="M0 0 C0.66 0 1.32 0 2 0 C3.68277335 6.36502311 4.32604023 12.30068834 4.25 18.875 C4.24033203 19.75921631 4.23066406 20.64343262 4.22070312 21.55444336 C3.86722616 40.75707937 -4.84530301 56.95158661 -13 74 C-13.66 74 -14.32 74 -15 74 C-15.81898266 71.79388434 -16.63027543 69.5854166 -17.4375 67.375 C-17.88996094 66.14523437 -18.34242188 64.91546875 -18.80859375 63.6484375 C-23.13150678 50.4104022 -22.06812164 35.73924925 -16.13818359 23.17382812 C-11.86250677 14.76922157 -6.6900779 6.6900779 0 0 Z " fill="#E4BD65" transform="translate(277,283)"/>
<path d="M0 0 C0.66 0 1.32 0 2 0 C3.65845732 1.87978709 5.18086997 3.75313293 6.6875 5.75 C7.35471069 6.62930176 7.35471069 6.62930176 8.03540039 7.52636719 C18.8893919 22.08178294 24.35985004 35.6692214 23 54 C21.76979686 61.17206784 19.85309366 68.30422615 17 75 C13.61822917 72.21686562 12.0027571 68.41734027 10.125 64.5625 C9.77421387 63.84892334 9.42342773 63.13534668 9.06201172 62.40014648 C2.10267589 48.1055107 -1.34676398 36.85169217 -1.1875 20.875 C-1.18685547 19.63878906 -1.18621094 18.40257812 -1.18554688 17.12890625 C-1.15749959 11.32623456 -1.05934359 5.71198062 0 0 Z " fill="#E3BD66" transform="translate(746,282)"/>
<path d="M0 0 C1.71509766 0.54333984 1.71509766 0.54333984 3.46484375 1.09765625 C4.32207031 1.37480469 5.17929687 1.65195312 6.0625 1.9375 C3.25556961 3.80878693 1.17083146 4.66510093 -2.00390625 5.6796875 C-22.23315809 12.31043945 -42.73109356 19.74926296 -60.22119141 32.16772461 C-61.9609375 33.3671875 -61.9609375 33.3671875 -64.9375 34.9375 C-66.9921875 34.484375 -66.9921875 34.484375 -68.9375 32.9375 C-69.86046875 32.22335937 -70.7834375 31.50921875 -71.734375 30.7734375 C-72.70890625 29.96132813 -73.6834375 29.14921875 -74.6875 28.3125 C-75.67234375 27.49523437 -76.6571875 26.67796875 -77.671875 25.8359375 C-78.41953125 25.20945312 -79.1671875 24.58296875 -79.9375 23.9375 C-77.84746692 21.66495244 -75.93415613 20.25651905 -73.15625 18.921875 C-72.03259033 18.3813147 -72.03259033 18.3813147 -70.88623047 17.82983398 C-70.07814941 17.45286377 -69.27006836 17.07589355 -68.4375 16.6875 C-67.58945801 16.29054932 -66.74141602 15.89359863 -65.86767578 15.48461914 C-57.06670699 11.43558774 -48.10094504 8.06402653 -38.9375 4.9375 C-37.89561523 4.57672363 -36.85373047 4.21594727 -35.78027344 3.84423828 C-32.42234368 2.68887947 -29.05675662 1.55936 -25.6875 0.4375 C-24.09784424 -0.10692749 -24.09784424 -0.10692749 -22.47607422 -0.66235352 C-13.96397974 -3.43235644 -8.50669533 -2.71863459 0 0 Z " fill="#E2BC66" transform="translate(495.9375,723.0625)"/>
<path d="M0 0 C1.13509273 17.87771052 -5.67420066 36.23069803 -17.140625 49.90625 C-17.75421875 50.5971875 -18.3678125 51.288125 -19 52 C-20.13695312 53.31484375 -20.13695312 53.31484375 -21.296875 54.65625 C-27.8205433 62.07532376 -27.8205433 62.07532376 -32 65 C-35.6149521 54.1551437 -33.75250775 39.12083341 -29 29 C-24.56888743 20.95798079 -10.65080918 0 0 0 Z " fill="#E3BC66" transform="translate(333,237)"/>
<path d="M0 0 C4.68277347 1.45956576 7.81552757 4.19217848 11.3125 7.5 C11.88427979 8.03898926 12.45605957 8.57797852 13.04516602 9.13330078 C22.96009544 18.63224857 31.70114822 29.12715997 32.40234375 43.390625 C32.65344953 57.42719651 32.65344953 57.42719651 31 64 C30.27554688 63.27039063 29.55109375 62.54078125 28.8046875 61.7890625 C27.08094542 60.07492344 25.33970114 58.37791779 23.5703125 56.7109375 C10.42367603 44.1523295 1.00386483 26.78708836 -0.24609375 8.375 C-0.24940178 5.56978748 -0.18759798 2.79833651 0 0 Z " fill="#E4BD66" transform="translate(693,238)"/>
<path d="M0 0 C12.57096437 0.45712598 25.85890752 5.6686414 36 13 C36.69222656 13.48726563 37.38445313 13.97453125 38.09765625 14.4765625 C46.86312844 21.33356001 51.88395642 31.88139287 56 42 C38.67966235 41.61818895 24.40175206 33.30282019 12.5859375 21.046875 C7.25490277 14.76559541 2.87283686 7.74665463 0 0 Z " fill="#E4BD65" transform="translate(695,321)"/>
<path d="M0 0 C-5.61892668 15.95651002 -16.92511351 28.5806734 -32 36 C-39.35551883 39.13852854 -46.98990913 41.50958627 -55 42 C-54.41654929 37.46109667 -52.52741845 33.95169438 -50.25 30.0625 C-49.91484375 29.46759766 -49.5796875 28.87269531 -49.234375 28.25976562 C-40.78425209 13.61608671 -27.00083231 6.0132883 -11.0625 1.6875 C-7.14251261 0.66189834 -4.06316833 0 0 0 Z " fill="#E4BD66" transform="translate(330,321)"/>
<path d="M0 0 C-5.67178969 12.43323356 -19.1805545 20.98195596 -31.41015625 26.0703125 C-41.14024058 29.56316328 -50.79903652 29.21301316 -61 29 C-58.83893355 24.24565381 -55.5006334 20.81561881 -52 17 C-51.46246094 16.38511719 -50.92492187 15.77023437 -50.37109375 15.13671875 C-36.98914861 0.59393017 -18.43653246 -0.23909048 0 0 Z " fill="#E4BE66" transform="translate(368,282)"/>
<path d="M0 0 C17.08558714 -0.65434164 34.7307834 1.1783343 48 13 C51.74145215 16.59715372 55.38276955 20.27758353 59 24 C59.60199219 24.56332031 60.20398438 25.12664062 60.82421875 25.70703125 C62 27 62 27 62 29 C41.83656544 29.78136022 25.6689808 26.83526172 10.45703125 12.81640625 C7.50616146 9.979504 4.6552761 7.11727469 2 4 C2 3.34 2 2.68 2 2 C1.34 2 0.68 2 0 2 C0 1.34 0 0.68 0 0 Z " fill="#E3BC64" transform="translate(657,282)"/>
<path d="M0 0 C0.33 0 0.66 0 1 0 C1 40.59 1 81.18 1 123 C22.45 123 43.9 123 66 123 C66 82.41 66 41.82 66 0 C66.66 0 67.32 0 68 0 C68 41.25 68 82.5 68 125 C45.56 125 23.12 125 0 125 C0 83.75 0 42.5 0 0 Z " fill="#DDDDD0" transform="translate(378,462)"/>
<path d="M0 0 C1.98 0.66 3.96 1.32 6 2 C5.87882813 2.60368408 5.75765625 3.20736816 5.6328125 3.8293457 C1.21413387 25.81453495 1.21413387 25.81453495 -2 48 C-2.33 48 -2.66 48 -3 48 C-3.0272415 46.58344207 -3.04650467 45.16672955 -3.0625 43.75 C-3.07410156 42.96109375 -3.08570313 42.1721875 -3.09765625 41.359375 C-3.00385306 39.09308998 -2.63241063 37.1711105 -2 35 C-2.66 35 -3.32 35 -4 35 C-4.47128425 27.58163684 -3.29329611 20.89544418 -1.734375 13.65234375 C-0.82222426 9.11584936 -0.31472386 4.61233245 0 0 Z " fill="#17262F" transform="translate(246,397)"/>
<path d="M0 0 C0.99 0.33 1.98 0.66 3 1 C3.33 1.99 3.66 2.98 4 4 C2.59375 6.09375 2.59375 6.09375 0.5 8.5 C-3.86285539 13.70777457 -7.47329494 19.20297855 -11 25 C-11.66 24.01 -12.32 23.02 -13 22 C-14.98 22.99 -14.98 22.99 -17 24 C-14.31980705 19.0935679 -11.40299679 14.69243073 -7.9375 10.3125 C-7.07146625 9.20454301 -6.20557726 8.09647285 -5.33984375 6.98828125 C-4.56769531 6.00214844 -3.79554688 5.01601563 -3 4 C-1.99549304 2.67005882 -0.9932137 1.33839617 0 0 Z " fill="#D4B268" transform="translate(300,307)"/>
<path d="M0 0 C1.68315665 6.36647294 2.32111071 12.29979871 2.25 18.875 C2.24613281 19.74543945 2.24226563 20.61587891 2.23828125 21.51269531 C2.15359515 27.82416244 1.57530597 33.86755892 0 40 C-2.51314157 36.23028765 -2.15974372 34.41372106 -1.9765625 29.92578125 C-1.95153656 29.2419487 -1.92651062 28.55811615 -1.90072632 27.8535614 C-1.81865275 25.67269371 -1.72201736 23.49274903 -1.625 21.3125 C-1.56674731 19.83271981 -1.5094443 18.35290191 -1.453125 16.87304688 C-1.3130945 13.24819578 -1.15999996 9.62403076 -1 6 C-3.91985181 6.68088981 -6.35122304 7.58101234 -9 9 C-3.2 0 -3.2 0 0 0 Z " fill="#CCAD65" transform="translate(279,283)"/>
<path d="M0 0 C2.23413013 3.35119519 2.23847762 4.4177755 2.1953125 8.32421875 C2.18886719 9.35224609 2.18242187 10.38027344 2.17578125 11.43945312 C2.15902344 12.51130859 2.14226562 13.58316406 2.125 14.6875 C2.11597656 15.77095703 2.10695313 16.85441406 2.09765625 17.97070312 C2.0740734 20.6473571 2.04116126 23.32356797 2 26 C1.34 26 0.68 26 0 26 C-0.33 18.74 -0.66 11.48 -1 4 C-5.62 8.62 -10.24 13.24 -15 18 C-15.66 17.67 -16.32 17.34 -17 17 C-15.29657414 15.09955869 -13.58752883 13.20471126 -11.875 11.3125 C-11.400625 10.78205078 -10.92625 10.25160156 -10.4375 9.70507812 C-7.18500869 6.12294242 -3.77952775 3.02250068 0 0 Z " fill="#C7AB71" transform="translate(287,427)"/>
<path d="M0 0 C1.32 0.66 2.64 1.32 4 2 C3.39733215 6.50727647 1.63400206 9.8587963 -0.5625 13.8125 C-1.0565332 14.7087207 -1.0565332 14.7087207 -1.56054688 15.62304688 C-2.36773267 17.08533998 -3.18304917 18.5431399 -4 20 C-4.99 20 -5.98 20 -7 20 C-8.16209423 16.51371731 -7.88616059 16.13629782 -6.34765625 12.98828125 C-5.98349609 12.23095703 -5.61933594 11.47363281 -5.24414062 10.69335938 C-4.85419922 9.90767578 -4.46425781 9.12199219 -4.0625 8.3125 C-3.67642578 7.51521484 -3.29035156 6.71792969 -2.89257812 5.89648438 C-1.93709398 3.92653557 -0.97267894 1.96150061 0 0 Z " fill="#2B3538" transform="translate(272,338)"/>
<path d="M0 0 C5.56427915 0.24101397 8.21853469 3.76018887 11.8125 7.5625 C12.40998047 8.17802734 13.00746094 8.79355469 13.62304688 9.42773438 C15.0912621 10.94293249 16.54689553 12.47030438 18 14 C17.34 15.32 16.68 16.64 16 18 C9.74649963 12.89510174 3.40426312 7.4727727 0 0 Z " fill="#DDBE70" transform="translate(694,278)"/>
<path d="M0 0 C1.32 0 2.64 0 4 0 C5.67578125 1.72265625 5.67578125 1.72265625 7.3125 4.0625 C10.11702066 7.89836051 13.07707911 11.1959697 16.48828125 14.4921875 C18.19759222 16.19708164 19.64277482 18.00408062 21 20 C21.66 18.68 22.32 17.36 23 16 C23 17.98 23 19.96 23 22 C22.01 22.33 21.02 22.66 20 23 C14.62666311 17.723967 9.35084772 12.43257016 4.47265625 6.69140625 C3.01708942 4.96420472 3.01708942 4.96420472 1.30859375 3.40234375 C0 2 0 2 0 0 Z " fill="#22292D" transform="translate(702,281)"/>
<path d="M0 0 C0.33 0.66 0.66 1.32 1 2 C1.66 2 2.32 2 3 2 C1.70004345 4.644209 0.33303155 7.22717383 -1.12890625 9.78515625 C-1.52400391 10.48060547 -1.91910156 11.17605469 -2.32617188 11.89257812 C-3.15302842 13.3438224 -3.98116212 14.79433973 -4.81054688 16.24414062 C-5.40125977 17.28538086 -5.40125977 17.28538086 -6.00390625 18.34765625 C-6.36299072 18.97679932 -6.7220752 19.60594238 -7.09204102 20.25415039 C-8.13946486 22.1564492 -8.13946486 22.1564492 -9 25 C-8.34 25.33 -7.68 25.66 -7 26 C-8.175625 26.4640625 -8.175625 26.4640625 -9.375 26.9375 C-11.92330128 27.92875038 -11.92330128 27.92875038 -14 29 C-12.72287446 24.89306101 -11.18709006 21.18406415 -9.1796875 17.3828125 C-8.64472656 16.36445313 -8.10976563 15.34609375 -7.55859375 14.296875 C-7.00300781 13.25015625 -6.44742187 12.2034375 -5.875 11.125 C-5.31167969 10.05507813 -4.74835938 8.98515625 -4.16796875 7.8828125 C-2.78265261 5.25305983 -1.39322404 2.62556917 0 0 Z " fill="#313534" transform="translate(284,338)"/>
<path d="M0 0 C0.33 0.99 0.66 1.98 1 3 C1.66 3.33 2.32 3.66 3 4 C-3.66666667 10.66666667 -10.33333333 17.33333333 -17 24 C-17 20 -17 20 -15.56640625 18.28125 C-14.90511719 17.6934375 -14.24382812 17.105625 -13.5625 16.5 C-8.28994434 11.51984009 -4.22684352 5.87061599 0 0 Z " fill="#373D39" transform="translate(320,280)"/>
<path d="M0 0 C3.70474412 4.10168099 6.38446682 8.70739435 8 14 C7.67 14.99 7.34 15.98 7 17 C6.01 17.33 5.02 17.66 4 18 C2.99267601 16.06629769 1.99436712 14.12789694 1 12.1875 C0.443125 11.10855469 -0.11375 10.02960938 -0.6875 8.91796875 C-2 6 -2 6 -2 3 C-1.34 3 -0.68 3 0 3 C0 2.01 0 1.02 0 0 Z " fill="#1F2B32" transform="translate(753,340)"/>
<path d="M0 0 C0.89203125 0.19464844 1.7840625 0.38929688 2.703125 0.58984375 C3.37859375 0.74582031 4.0540625 0.90179687 4.75 1.0625 C4.42 3.3725 4.09 5.6825 3.75 8.0625 C0.88275314 7.48905063 -0.1114515 7.2010485 -2.25 5.0625 C-3.77056618 4.46415446 -5.31612088 3.92743344 -6.875 3.4375 C-7.69226563 3.17710937 -8.50953125 2.91671875 -9.3515625 2.6484375 C-10.29128906 2.35839844 -10.29128906 2.35839844 -11.25 2.0625 C-7.69101477 -1.49648523 -4.7127233 -1.05416179 0 0 Z " fill="#202C37" transform="translate(499.25,718.9375)"/>
<path d="M0 0 C3.80473912 4.32078419 6.26426038 9.01210698 8.8125 14.125 C9.23208984 14.93582031 9.65167969 15.74664062 10.08398438 16.58203125 C10.47521484 17.36191406 10.86644531 18.14179688 11.26953125 18.9453125 C11.62635986 19.65187988 11.98318848 20.35844727 12.35083008 21.08642578 C13 23 13 23 12 26 C9.08818978 23.08818978 7.52871893 19.57791583 5.6015625 15.9609375 C4.59068849 14.09205336 3.54761966 12.23990917 2.4609375 10.4140625 C1.99945312 9.63804687 1.53796875 8.86203125 1.0625 8.0625 C0.64097656 7.37285156 0.21945312 6.68320312 -0.21484375 5.97265625 C-1.17256524 3.56644056 -0.86305317 2.39617867 0 0 Z " fill="#2A2F2F" transform="translate(739,336)"/>
<path d="M0 0 C6.66449937 5.21569516 11.72553454 11.44140914 17 18 C16.34 18.66 15.68 19.32 15 20 C15 19.34 15 18.68 15 18 C14.01 17.67 13.02 17.34 12 17 C10.421875 15.3984375 10.421875 15.3984375 8.75 13.375 C5.35878848 9.36917659 1.76066802 5.6577926 -2 2 C-1.34 1.34 -0.68 0.68 0 0 Z " fill="#3E3F37" transform="translate(704,291)"/>
<path d="M0 0 C2.59668928 2.59668928 2.25722357 3.69387212 2.265625 7.3046875 C2.26820313 8.36300781 2.27078125 9.42132813 2.2734375 10.51171875 C2.26570312 11.62160156 2.25796875 12.73148437 2.25 13.875 C2.25773438 14.97714844 2.26546875 16.07929688 2.2734375 17.21484375 C2.27085937 18.27574219 2.26828125 19.33664062 2.265625 20.4296875 C2.26336914 21.40147949 2.26111328 22.37327148 2.25878906 23.37451172 C1.99449165 26.0558838 1.36742059 27.70308647 0 30 C-0.93891428 19.81639123 -0.93891428 10.18360877 0 0 Z " fill="#D9B871" transform="translate(245,371)"/>
<path d="M0 0 C2.02196167 2.02196167 2.67551358 3.25864486 3.6875 5.875 C3.95949219 6.55304688 4.23148438 7.23109375 4.51171875 7.9296875 C5.07336741 10.31107782 4.76694846 11.70430191 4 14 C3.01 14 2.02 14 1 14 C0.67 14.66 0.34 15.32 0 16 C-0.64910154 14.41800369 -1.29414694 12.83434276 -1.9375 11.25 C-2.29714844 10.36828125 -2.65679688 9.4865625 -3.02734375 8.578125 C-3.85356576 6.38813896 -4.49369943 4.28101729 -5 2 C-4.34 2 -3.68 2 -3 2 C-2.01 4.64 -1.02 7.28 0 10 C0 6.7 0 3.4 0 0 Z " fill="#D9B76B" transform="translate(762,369)"/>
<path d="M0 0 C0.66 0.33 1.32 0.66 2 1 C1.58427734 2.32064453 1.58427734 2.32064453 1.16015625 3.66796875 C0.61681641 5.41013672 0.61681641 5.41013672 0.0625 7.1875 C-0.29714844 8.33605469 -0.65679688 9.48460937 -1.02734375 10.66796875 C-1.83756036 13.44353006 -2.49134307 16.15687548 -3 19 C-2.01 19.33 -1.02 19.66 0 20 C-1.65 20.66 -3.3 21.32 -5 22 C-4.16761116 7.63034002 -4.16761116 7.63034002 -2 1 C-1.34 0.67 -0.68 0.34 0 0 Z " fill="#C3A96D" transform="translate(619,657)"/>
<path d="M0 0 C0.99 0 1.98 0 3 0 C1.63387799 3.09744495 0.0959759 5.07666871 -2.375 7.375 C-5.4710236 10.36760737 -7.76241414 13.33035919 -10 17 C-10.99 16.34 -11.98 15.68 -13 15 C-11.02132918 12.68707408 -9.04208794 10.37464074 -7.0625 8.0625 C-6.49853516 7.40314453 -5.93457031 6.74378906 -5.35351562 6.06445312 C-4.81533203 5.43603516 -4.27714844 4.80761719 -3.72265625 4.16015625 C-3.22515869 3.57886963 -2.72766113 2.99758301 -2.21508789 2.39868164 C-1.5013317 1.57708043 -0.76957015 0.76957015 0 0 Z " fill="#3A3934" transform="translate(317,294)"/>
<path d="M0 0 C0.33 0 0.66 0 1 0 C0.98259766 0.85271484 0.98259766 0.85271484 0.96484375 1.72265625 C0.92021444 5.54165041 1.00443151 9.02703222 1.625 12.8125 C2.02082508 16.17701314 1.93133527 17.29613062 0 20 C-1.625 21.75 -1.625 21.75 -3 23 C-3.48350422 15.10276444 -1.67664721 7.66467297 0 0 Z " fill="#2D383C" transform="translate(256,410)"/>
<path d="M0 0 C-0.66 1.32 -1.32 2.64 -2 4 C-2.33 3.34 -2.66 2.68 -3 2 C-15.375 2.495 -15.375 2.495 -28 3 C-19.46495825 -1.26752087 -9.34604852 -0.12120236 0 0 Z " fill="#BDA36A" transform="translate(368,282)"/>
<path d="M0 0 C0.99 0.495 0.99 0.495 2 1 C2.6730227 3.7632474 3.21802784 6.4516684 3.6875 9.25 C3.82994141 10.01441406 3.97238281 10.77882813 4.11914062 11.56640625 C4.82902474 15.65618639 5.21114919 18.93574097 4 23 C3.67 23 3.34 23 3 23 C2.33333333 20.33333333 1.66666667 17.66666667 1 15 C0.814375 14.3709375 0.62875 13.741875 0.4375 13.09375 C-0.11651999 10.44236861 -0.09471571 7.95611949 -0.0625 5.25 C-0.05347656 4.26515625 -0.04445313 3.2803125 -0.03515625 2.265625 C-0.02355469 1.51796875 -0.01195312 0.7703125 0 0 Z " fill="#283336" transform="translate(778,402)"/>
<path d="M0 0 C1.98 0.66 3.96 1.32 6 2 C5 7 4 12 3 17 C2.67 17 2.34 17 2 17 C-0.29612756 5.47835991 -0.29612756 5.47835991 0 0 Z " fill="#323E42" transform="translate(246,397)"/>
<path d="M0 0 C0 3 0 3 -1.28515625 4.62573242 C-2.16494141 5.4819519 -2.16494141 5.4819519 -3.0625 6.35546875 C-3.69414062 6.97744141 -4.32578125 7.59941406 -4.9765625 8.24023438 C-5.64429688 8.88283203 -6.31203125 9.52542969 -7 10.1875 C-8.00160156 11.16879883 -8.00160156 11.16879883 -9.0234375 12.16992188 C-10.67578441 13.78686135 -12.33471601 15.39640491 -14 17 C-14.99 16.67 -15.98 16.34 -17 16 C-14.91975578 13.89270058 -12.83597761 11.78911127 -10.75 9.6875 C-9.87021484 8.79514648 -9.87021484 8.79514648 -8.97265625 7.88476562 C-6.12147184 5.01756332 -3.34887496 2.29613457 0 0 Z " fill="#2D3236" transform="translate(340,271)"/>
<path d="M0 0 C-1.65863505 4.32504836 -4.871041 7.09418825 -8.125 10.25 C-8.68832031 10.80429687 -9.25164062 11.35859375 -9.83203125 11.9296875 C-11.21686028 13.29104485 -12.60783204 14.64614859 -14 16 C-14.66 15.67 -15.32 15.34 -16 15 C-14.23000902 13.06172464 -12.45904239 11.12435656 -10.6875 9.1875 C-10.18798828 8.64029297 -9.68847656 8.09308594 -9.17382812 7.52929688 C-7.78777469 6.01473517 -6.39413878 4.50712253 -5 3 C-4.42894531 2.37738281 -3.85789062 1.75476563 -3.26953125 1.11328125 C-2 0 -2 0 0 0 Z " fill="#D1B36A" transform="translate(286,429)"/>
<path d="M0 0 C0.66 0 1.32 0 2 0 C2 7.59 2 15.18 2 23 C1.67 23 1.34 23 1 23 C-0.50242978 15.07809753 -1.3345093 7.98902187 0 0 Z " fill="#CFB375" transform="translate(337,594)"/>
<path d="M0 0 C1.4800841 0.11362262 2.95910074 0.24122908 4.4375 0.375 C5.26121094 0.44460938 6.08492187 0.51421875 6.93359375 0.5859375 C7.95646484 0.79089844 7.95646484 0.79089844 9 1 C9.33 1.66 9.66 2.32 10 3 C8.68 3 7.36 3 6 3 C6.33 4.98 6.66 6.96 7 9 C6.01 9 5.02 9 4 9 C0 2.25 0 2.25 0 0 Z " fill="#D5B76B" transform="translate(695,321)"/>
<path d="M0 0 C3.67420866 0.30618405 4.78135513 0.75771784 7.3125 3.5625 C8.1478125 4.7690625 8.1478125 4.7690625 9 6 C8.01 6.99 7.02 7.98 6 9 C4.99105628 8.07213211 3.99309093 7.13231567 3 6.1875 C2.1646875 5.40439453 2.1646875 5.40439453 1.3125 4.60546875 C0 3 0 3 0 0 Z " fill="#CDAC65" transform="translate(703,287)"/>
<path d="M0 0 C0 3 0 3 -2.3359375 5.69921875 C-3.34119508 6.70314662 -4.35458968 7.6989775 -5.375 8.6875 C-5.88289063 9.19861328 -6.39078125 9.70972656 -6.9140625 10.23632812 C-10.73300859 14 -10.73300859 14 -13 14 C-13 14.66 -13 15.32 -13 16 C-13.66 15.67 -14.32 15.34 -15 15 C-10.39863498 9.46398272 -5.53601728 4.60136502 0 0 Z " fill="#D3B46A" transform="translate(325,242)"/>
<path d="M0 0 C0.33 0.66 0.66 1.32 1 2 C4.27555608 2.47001033 4.27555608 2.47001033 8.0625 2.625 C9.99802734 2.73714844 9.99802734 2.73714844 11.97265625 2.8515625 C13.47119141 2.92503906 13.47119141 2.92503906 15 3 C14.67 3.66 14.34 4.32 14 5 C8.39 5 2.78 5 -3 5 C-1 1 -1 1 0 0 Z " fill="#D0B46D" transform="translate(310,306)"/>
<path d="M0 0 C-0.30618405 3.67420866 -0.75771784 4.78135513 -3.5625 7.3125 C-4.366875 7.869375 -5.17125 8.42625 -6 9 C-6 8.34 -6 7.68 -6 7 C-6.66 7 -7.32 7 -8 7 C-6.13932792 2.84926997 -4.83061881 0 0 0 Z " fill="#E8C76E" transform="translate(309,301)"/>
<path d="M0 0 C3.19199167 2.41556126 5.74716687 4.68003538 8 8 C8.66 6.68 9.32 5.36 10 4 C10 5.98 10 7.96 10 10 C9.01 10.33 8.02 10.66 7 11 C4.36 8.36 1.72 5.72 -1 3 C-0.67 2.01 -0.34 1.02 0 0 Z " fill="#3E3F38" transform="translate(715,293)"/>
<path d="M0 0 C-1.51553404 3.47775179 -3.5773456 5.9557984 -6.125 8.75 C-7.21167969 9.94882812 -7.21167969 9.94882812 -8.3203125 11.171875 C-8.87460937 11.77515625 -9.42890625 12.3784375 -10 13 C-10.66 12.67 -11.32 12.34 -12 12 C-10.53033642 8.60140297 -8.61962486 6.35036291 -6 3.75 C-5.29875 3.04359375 -4.5975 2.3371875 -3.875 1.609375 C-2 0 -2 0 0 0 Z " fill="#2C3332" transform="translate(314,291)"/>
<path d="M0 0 C0 3 0 3 -2.40625 5.69921875 C-3.4299968 6.70302243 -4.4616054 7.69885649 -5.5 8.6875 C-6.02464844 9.19861328 -6.54929687 9.70972656 -7.08984375 10.23632812 C-8.38660904 11.49772708 -9.69246117 12.74977212 -11 14 C-11.66 13.34 -12.32 12.68 -13 12 C-11.58653438 10.55935235 -10.16908789 9.12260985 -8.75 7.6875 C-7.96109375 6.88699219 -7.1721875 6.08648438 -6.359375 5.26171875 C-4.32605933 3.31256349 -2.29398922 1.62578594 0 0 Z " fill="#CFAE68" transform="translate(801,520)"/>
<path d="M0 0 C0.66 0 1.32 0 2 0 C3.23839599 6.65637843 3.09139136 13.2471936 3 20 C2.67 20 2.34 20 2 20 C1.47007619 17.23062417 0.9507542 14.45996921 0.4375 11.6875 C0.28603516 10.90181641 0.13457031 10.11613281 -0.02148438 9.30664062 C-0.16005859 8.54931641 -0.29863281 7.79199219 -0.44140625 7.01171875 C-0.57232666 6.31522217 -0.70324707 5.61872559 -0.83813477 4.90112305 C-1 3 -1 3 0 0 Z " fill="#2A363E" transform="translate(765,408)"/>
<path d="M0 0 C2.34290892 2.48434437 2.97982934 3.77731593 3.29296875 7.234375 C3.25816406 8.39453125 3.22335937 9.5546875 3.1875 10.75 C3.16042969 11.92046875 3.13335938 13.0909375 3.10546875 14.296875 C3.07066406 15.18890625 3.03585937 16.0809375 3 17 C0.15611042 14.15611042 -0.4503839 10.87514138 -1 7 C-0.88553173 4.55953651 -0.50075674 2.40363236 0 0 Z " fill="#0B293E" transform="translate(776,396)"/>
<path d="M0 0 C2.39591038 -0.02712351 4.79150957 -0.0468982 7.1875 -0.0625 C7.86103516 -0.07087891 8.53457031 -0.07925781 9.22851562 -0.08789062 C12.95434131 -0.10606538 16.3788042 0.10700608 20 1 C20 1.33 20 1.66 20 2 C17.04196565 2.19421438 14.08379837 2.38066186 11.125 2.5625 C10.28324219 2.61857422 9.44148437 2.67464844 8.57421875 2.73242188 C7.76855469 2.78076172 6.96289062 2.82910156 6.1328125 2.87890625 C5.38918457 2.9260376 4.64555664 2.97316895 3.87939453 3.02172852 C2 3 2 3 0 2 C0 1.34 0 0.68 0 0 Z " fill="#BCA268" transform="translate(657,282)"/>
<path d="M0 0 C0.99 0.33 1.98 0.66 3 1 C3.98248524 5.0527516 4.08159574 8.83861737 4 13 C0.55142774 10.33519416 -0.11143942 7.14661606 -1 3 C-0.67 2.01 -0.34 1.02 0 0 Z " fill="#F1C260" transform="translate(759,367)"/>
<path d="M0 0 C0 0.66 0 1.32 0 2 C-13.6332574 2.18451025 -13.6332574 2.18451025 -20 1 C-20 0.67 -20 0.34 -20 0 C-17.22949974 -0.1946838 -14.45886998 -0.38102792 -11.6875 -0.5625 C-10.90181641 -0.61857422 -10.11613281 -0.67464844 -9.30664062 -0.73242188 C-8.1706543 -0.80493164 -8.1706543 -0.80493164 -7.01171875 -0.87890625 C-6.31522217 -0.9260376 -5.61872559 -0.97316895 -4.90112305 -1.02172852 C-3 -1 -3 -1 0 0 Z " fill="#BAA36B" transform="translate(314,645)"/>
<path d="M0 0 C0.33 2.64 0.66 5.28 1 8 C0.34 7.34 -0.32 6.68 -1 6 C-3.9628331 6.39504441 -6.38326241 7.59817629 -9 9 C-3.2 0 -3.2 0 0 0 Z " fill="#D7B56D" transform="translate(279,283)"/>
<path d="M0 0 C0.99 0.66 1.98 1.32 3 2 C-11.86046512 9.83388704 -11.86046512 9.83388704 -18 8 C-15.73117913 7.16080602 -13.46022973 6.32848276 -11.1875 5.5 C-10.22360352 5.14228516 -10.22360352 5.14228516 -9.24023438 4.77734375 C-6.35066261 3.72931254 -4.09923939 3 -1 3 C-0.67 2.01 -0.34 1.02 0 0 Z " fill="#DEC075" transform="translate(624,688)"/>
<path d="M0 0 C0.33 0 0.66 0 1 0 C1.33 3.96 1.66 7.92 2 12 C1.34 12 0.68 12 0 12 C-0.33 12.66 -0.66 13.32 -1 14 C-2.12029814 8.51053913 -1.79217969 5.16569441 0 0 Z " fill="#212E34" transform="translate(244,489)"/>
<path d="M0 0 C0.99 0.33 1.98 0.66 3 1 C3.33 1.99 3.66 2.98 4 4 C2.35 5.65 0.7 7.3 -1 9 C-2.1875 6.75 -2.1875 6.75 -3 4 C-1.625 1.6875 -1.625 1.6875 0 0 Z " fill="#D9B864" transform="translate(300,307)"/>
<path d="M0 0 C0.33 0 0.66 0 1 0 C1.66 5.61 2.32 11.22 3 17 C2.01 17 1.02 17 0 17 C0 11.39 0 5.78 0 0 Z " fill="#C7AA67" transform="translate(252,488)"/>
<path d="M0 0 C0.66 1.32 1.32 2.64 2 4 C2.66 4 3.32 4 4 4 C3.67 6.97 3.34 9.94 3 13 C2.34 13 1.68 13 1 13 C-0.10228696 8.59085217 -0.07654536 4.51617599 0 0 Z " fill="#203541" transform="translate(780,487)"/>
<path d="M0 0 C-0.3125 3.375 -0.3125 3.375 -1 7 C-1.99 7.66 -2.98 8.32 -4 9 C-4 8.34 -4 7.68 -4 7 C-4.99 6.67 -5.98 6.34 -7 6 C-6.02388578 4.99702025 -5.04402202 3.99768827 -4.0625 3 C-3.51722656 2.443125 -2.97195313 1.88625 -2.41015625 1.3125 C-1 0 -1 0 0 0 Z " fill="#D7B462" transform="translate(313,294)"/>
<path d="M0 0 C0.99 0.33 1.98 0.66 3 1 C0.36 3.64 -2.28 6.28 -5 9 C-5.99 8.67 -6.98 8.34 -8 8 C-5.36 5.36 -2.72 2.72 0 0 Z " fill="#D4B369" transform="translate(642,620)"/>
<path d="M0 0 C-0.875 4.75 -0.875 4.75 -2 7 C-2.99 7 -3.98 7 -5 7 C-6 4 -6 4 -5 1 C-2 0 -2 0 0 0 Z " fill="#212C37" transform="translate(270,351)"/>
<path d="M0 0 C-0.66 1.65 -1.32 3.3 -2 5 C-2.99 5 -3.98 5 -5 5 C-5 4.01 -5 3.02 -5 2 C-7.31 2.33 -9.62 2.66 -12 3 C-7.80491562 0.75263337 -4.79167039 0 0 0 Z " fill="#CAAE6D" transform="translate(330,321)"/>
<path d="M0 0 C0 3.96 0 7.92 0 12 C-0.99 12 -1.98 12 -3 12 C-3 8.37 -3 4.74 -3 1 C-1 0 -1 0 0 0 Z " fill="#D5B569" transform="translate(247,477)"/>
<path d="M0 0 C0.99 0.33 1.98 0.66 3 1 C-0.3 3.97 -3.6 6.94 -7 10 C-7.66 9.67 -8.32 9.34 -9 9 C-6.03 6.03 -3.06 3.06 0 0 Z " fill="#D7B96D" transform="translate(279,383)"/>
<path d="M0 0 C0.66 0.33 1.32 0.66 2 1 C1.67 2.98 1.34 4.96 1 7 C-0.875 6.6875 -0.875 6.6875 -3 6 C-3.66 5.01 -4.32 4.02 -5 3 C-2.625 1.4375 -2.625 1.4375 0 0 Z " fill="#383B3D" transform="translate(502,720)"/>
<path d="M0 0 C0.66 0.33 1.32 0.66 2 1 C-1.07881696 4.87051275 -4.00073014 8.02911382 -8 11 C-8.66 10.67 -9.32 10.34 -10 10 C-6.7 6.7 -3.4 3.4 0 0 Z " fill="#D0B469" transform="translate(740,616)"/>
<path d="M0 0 C2.97 0 5.94 0 9 0 C8.34 1.65 7.68 3.3 7 5 C6.34 5 5.68 5 5 5 C5 4.01 5 3.02 5 2 C3.35 2 1.7 2 0 2 C0 1.34 0 0.68 0 0 Z " fill="#CFB16F" transform="translate(386,232)"/>
<path d="M0 0 C0.66 0.33 1.32 0.66 2 1 C0.515 4.96 0.515 4.96 -1 9 C-1.66 9 -2.32 9 -3 9 C-2.4140625 2.84765625 -2.4140625 2.84765625 -2 1 C-1.34 0.67 -0.68 0.34 0 0 Z " fill="#D2B268" transform="translate(619,657)"/>
<path d="M0 0 C0.66 0.33 1.32 0.66 2 1 C0.92492371 2.29854721 -0.16043736 3.58858361 -1.25 4.875 C-1.85328125 5.59429687 -2.4565625 6.31359375 -3.078125 7.0546875 C-4.97087634 8.97052118 -6.53657727 9.96449045 -9 11 C-8.06558465 9.72689688 -7.12732889 8.456612 -6.1875 7.1875 C-5.66542969 6.47980469 -5.14335938 5.77210938 -4.60546875 5.04296875 C-3.16871123 3.21468607 -1.68184237 1.60103312 0 0 Z " fill="#CAAF6E" transform="translate(817,418)"/>
<path d="M0 0 C0.66 0 1.32 0 2 0 C2.125 4.75 2.125 4.75 1 7 C-0.32 7 -1.64 7 -3 7 C-3 5.68 -3 4.36 -3 3 C-2.34 3 -1.68 3 -1 3 C-0.67 2.01 -0.34 1.02 0 0 Z " fill="#F0C15F" transform="translate(267,363)"/>
<path d="M0 0 C-1.39332574 3.36720387 -2.9789286 4.9859524 -6 7 C-6.66 6.34 -7.32 5.68 -8 5 C-3.375 0 -3.375 0 0 0 Z " fill="#44453B" transform="translate(320,294)"/>
<path d="M0 0 C0.7425 0.0825 1.485 0.165 2.25 0.25 C-2.5 5.125 -2.5 5.125 -4.75 6.25 C-5.41 5.59 -6.07 4.93 -6.75 4.25 C-3.42692308 0.31153846 -3.42692308 0.31153846 0 0 Z " fill="#283235" transform="translate(324.75,288.75)"/>
<path d="M0 0 C3.3 1.65 6.6 3.3 10 5 C7 6 7 6 5 5.0625 C4.34 4.711875 3.68 4.36125 3 4 C2.01 4 1.02 4 0 4 C0 2.68 0 1.36 0 0 Z " fill="#D6B673" transform="translate(357,603)"/>
<path d="M0 0 C1.98 0.495 1.98 0.495 4 1 C3.74438677 3.3431213 3.40729228 5.67843403 3 8 C2.01 8.495 2.01 8.495 1 9 C0.855625 8.21625 0.71125 7.4325 0.5625 6.625 C0.12201075 4.03578982 0.12201075 4.03578982 -1 2 C-0.67 1.34 -0.34 0.68 0 0 Z " fill="#293539" transform="translate(248,398)"/>
<path d="M0 0 C0.33 0.99 0.66 1.98 1 3 C-0.65 4.65 -2.3 6.3 -4 8 C-4.99 7.67 -5.98 7.34 -7 7 C-4.69 4.69 -2.38 2.38 0 0 Z " fill="#C9AB63" transform="translate(716,616)"/>
<path d="M0 0 C-1.45255699 3.82946843 -3.42895561 5.12050295 -7 7 C-6.22006468 2.47637516 -4.81844319 0 0 0 Z " fill="#DFC076" transform="translate(340,270)"/>
<path d="M0 0 C2 3 2 3 3 6 C2.0625 8.6875 2.0625 8.6875 1 11 C0.34 11 -0.32 11 -1 11 C-0.67 7.37 -0.34 3.74 0 0 Z " fill="#323B38" transform="translate(243,415)"/>
<path d="M0 0 C1.7074998 1.28062485 3.37373596 2.61767557 5 4 C5 4.66 5 5.32 5 6 C2.11424181 5.60196439 1.17810487 5.20990931 -0.75 2.9375 C-1.1625 2.298125 -1.575 1.65875 -2 1 C-1.34 0.67 -0.68 0.34 0 0 Z " fill="#293031" transform="translate(704,291)"/>
<path d="M0 0 C2.31 0 4.62 0 7 0 C6.484375 0.4125 5.96875 0.825 5.4375 1.25 C4.963125 1.8275 4.48875 2.405 4 3 C4.22757731 5.16299211 4.22757731 5.16299211 5 7 C2.65941363 4.87219421 1.29299694 2.88437779 0 0 Z " fill="#D4B76E" transform="translate(630,232)"/>
<path d="M0 0 C0.99 0.33 1.98 0.66 3 1 C2.67 3.97 2.34 6.94 2 10 C0.0044484 6.00889681 -0.19546065 4.30013434 0 0 Z " fill="#1D2936" transform="translate(409,661)"/>
<path d="M0 0 C0.66 0 1.32 0 2 0 C2 0.99 2 1.98 2 3 C1.34 3 0.68 3 0 3 C-0.66 4.32 -1.32 5.64 -2 7 C-2.66 6.34 -3.32 5.68 -4 5 C-2.71937515 3.2925002 -1.38232443 1.62626404 0 0 Z " fill="#DAB86C" transform="translate(708,548)"/>
<path d="M0 0 C1.1875 1.6875 1.1875 1.6875 2 4 C0.625 6.75 0.625 6.75 -1 9 C-2.0326802 6.21176345 -2.04509293 5.1322726 -1.0625 2.25 C-0.711875 1.5075 -0.36125 0.765 0 0 Z " fill="#CFB168" transform="translate(769,511)"/>
<path d="M0 0 C0 3 0 3 -1.3125 4.60546875 C-1.869375 5.12753906 -2.42625 5.64960938 -3 6.1875 C-3.556875 6.71730469 -4.11375 7.24710937 -4.6875 7.79296875 C-5.120625 8.19128906 -5.55375 8.58960938 -6 9 C-6.66 8.67 -7.32 8.34 -8 8 C-3.375 2.25 -3.375 2.25 0 0 Z " fill="#D0B46C" transform="translate(292,336)"/>
<path d="M0 0 C2.375 0.3125 2.375 0.3125 5 1 C5.66 1.99 6.32 2.98 7 4 C5.1875 4.6875 5.1875 4.6875 3 5 C1.25 3.6875 1.25 3.6875 0 2 C0 1.34 0 0.68 0 0 Z " fill="#D8B66B" transform="translate(694,278)"/>
<path d="M0 0 C0.66 0.33 1.32 0.66 2 1 C0.02 3.31 -1.96 5.62 -4 8 C-4.66 7.67 -5.32 7.34 -6 7 C-4.02 4.69 -2.04 2.38 0 0 Z " fill="#232E38" transform="translate(726,619)"/>
<path d="M0 0 C2.64 0.99 5.28 1.98 8 3 C5 4 5 4 2 3 C1.67 4.32 1.34 5.64 1 7 C0.67 4.69 0.34 2.38 0 0 Z " fill="#CBAC70" transform="translate(196,504)"/>
<path d="M0 0 C2 3 2 3 2 5 C2.99 5.33 3.98 5.66 5 6 C3.02 6.66 1.04 7.32 -1 8 C-0.67 5.36 -0.34 2.72 0 0 Z " fill="#C3AA68" transform="translate(258,420)"/>
<path d="M0 0 C2.15377564 2.62198774 3.40072174 4.64404172 4 8 C3.01 8.495 3.01 8.495 2 9 C0.4375 6.1875 0.4375 6.1875 -1 3 C-0.67 2.01 -0.34 1.02 0 0 Z " fill="#303536" transform="translate(748,353)"/>
<path d="M0 0 C0.99 0 1.98 0 3 0 C2.67 1.65 2.34 3.3 2 5 C1.01 5 0.02 5 -1 5 C-0.67 3.35 -0.34 1.7 0 0 Z " fill="#E5BF5F" transform="translate(306,301)"/>
<path d="M0 0 C2.56687367 3.8503105 1.83288724 5.58569763 1 10 C-0.80411967 7.24075815 -1.0127245 6.11027897 -0.625 2.75 C-0.41875 1.8425 -0.2125 0.935 0 0 Z " fill="#152C3B" transform="translate(246,403)"/>
<path d="M0 0 C1.98 0.495 1.98 0.495 4 1 C2.63016497 4.16115776 2.0109362 4.9927092 -1 7 C-0.67 4.69 -0.34 2.38 0 0 Z " fill="#D4B770" transform="translate(302,295)"/>
</svg>
